<svg xmlns="http://www.w3.org/2000/svg" xmlns:xlink="http://www.w3.org/1999/xlink" width="1080" zoomAndPan="magnify" viewBox="0 0 810 809.999993" height="1080" preserveAspectRatio="xMidYMid meet" version="1.0"><defs><clipPath id="fe84bdf32f"><path d="M 563 470.59375 L 728 470.59375 L 728 634.414062 L 563 634.414062 Z M 563 470.59375 " clip-rule="nonzero"/></clipPath><clipPath id="af3c82b741"><path d="M 14.578125 416 L 239 416 L 239 531 L 14.578125 531 Z M 14.578125 416 " clip-rule="nonzero"/></clipPath><clipPath id="67101f4aa7"><path d="M 188 239 L 795.328125 239 L 795.328125 548.636719 L 188 548.636719 Z M 188 239 " clip-rule="nonzero"/></clipPath><clipPath id="886f86483a"><path d="M 187 175.625 L 290 175.625 L 290 235 L 187 235 Z M 187 175.625 " clip-rule="nonzero"/></clipPath></defs><path fill="#bf1b2c" d="M 140.0625 407.734375 L 191.175781 426.507812 L 207.160156 276.933594 L 173.613281 365.875 L 154.875 376.34375 L 140.0625 407.734375 " fill-opacity="1" fill-rule="nonzero"/><path fill="#bf1b2c" d="M 182.355469 450.007812 L 152.925781 443.078125 L 160.394531 411.292969 L 189.835938 418.222656 L 182.355469 450.007812 " fill-opacity="1" fill-rule="nonzero"/><path fill="#393536" d="M 490.171875 341.460938 L 429.175781 341.460938 L 429.175781 326.21875 L 490.171875 326.21875 L 490.171875 341.460938 " fill-opacity="1" fill-rule="nonzero"/><path fill="#231f20" d="M 201.640625 551.671875 C 201.640625 596.882812 165.015625 633.535156 119.828125 633.535156 C 74.644531 633.535156 38.023438 596.882812 38.023438 551.671875 C 38.023438 506.453125 74.644531 469.800781 119.828125 469.800781 C 165.015625 469.800781 201.640625 506.453125 201.640625 551.671875 " fill-opacity="1" fill-rule="nonzero"/><path fill="#ed1c24" d="M 168.96875 551.671875 C 168.96875 578.824219 146.96875 600.839844 119.828125 600.839844 C 92.695312 600.839844 70.691406 578.824219 70.691406 551.671875 C 70.691406 524.511719 92.695312 502.503906 119.828125 502.503906 C 146.96875 502.503906 168.96875 524.511719 168.96875 551.671875 " fill-opacity="1" fill-rule="nonzero"/><path fill="#bf1b2c" d="M 163.738281 551.671875 C 163.738281 575.9375 144.078125 595.609375 119.828125 595.609375 C 95.578125 595.609375 75.917969 575.9375 75.917969 551.671875 C 75.917969 527.398438 95.578125 507.734375 119.828125 507.734375 C 144.078125 507.734375 163.738281 527.398438 163.738281 551.671875 " fill-opacity="1" fill-rule="nonzero"/><path fill="#ed1c24" d="M 153.339844 551.671875 C 153.339844 570.191406 138.335938 585.203125 119.828125 585.203125 C 101.320312 585.203125 86.316406 570.191406 86.316406 551.671875 C 86.316406 533.148438 101.320312 518.132812 119.828125 518.132812 C 138.335938 518.132812 153.339844 533.148438 153.339844 551.671875 " fill-opacity="1" fill-rule="nonzero"/><path fill="#f4f4f4" d="M 132.054688 551.671875 C 132.054688 558.425781 126.578125 563.90625 119.828125 563.90625 C 113.078125 563.90625 107.601562 558.425781 107.601562 551.671875 C 107.601562 544.910156 113.078125 539.4375 119.828125 539.4375 C 126.578125 539.4375 132.054688 544.910156 132.054688 551.671875 " fill-opacity="1" fill-rule="nonzero"/><path fill="#d3d2d2" d="M 127.28125 551.671875 C 127.28125 555.789062 123.945312 559.125 119.828125 559.125 C 115.710938 559.125 112.382812 555.789062 112.382812 551.671875 C 112.382812 547.546875 115.710938 544.210938 119.828125 544.210938 C 123.945312 544.210938 127.28125 547.546875 127.28125 551.671875 " fill-opacity="1" fill-rule="nonzero"/><path fill="#f4f4f4" d="M 112.726562 537.824219 C 112.726562 540.464844 110.59375 542.601562 107.953125 542.601562 C 105.3125 542.601562 103.179688 540.464844 103.179688 537.824219 C 103.179688 535.1875 105.3125 533.054688 107.953125 533.054688 C 110.59375 533.054688 112.726562 535.1875 112.726562 537.824219 " fill-opacity="1" fill-rule="nonzero"/><path fill="#f4f4f4" d="M 123.707031 590.855469 C 123.707031 593.003906 121.972656 594.738281 119.828125 594.738281 C 117.6875 594.738281 115.949219 593.003906 115.949219 590.855469 C 115.949219 588.714844 117.6875 586.980469 119.828125 586.980469 C 121.972656 586.980469 123.707031 588.714844 123.707031 590.855469 " fill-opacity="1" fill-rule="nonzero"/><path fill="#f4f4f4" d="M 123.707031 511.605469 C 123.707031 513.75 121.972656 515.488281 119.828125 515.488281 C 117.6875 515.488281 115.949219 513.75 115.949219 511.605469 C 115.949219 509.464844 117.6875 507.734375 119.828125 507.734375 C 121.972656 507.734375 123.707031 509.464844 123.707031 511.605469 " fill-opacity="1" fill-rule="nonzero"/><path fill="#f4f4f4" d="M 156.058594 567.6875 C 157.914062 568.757812 158.550781 571.128906 157.480469 572.984375 C 156.414062 574.839844 154.035156 575.476562 152.179688 574.40625 C 150.332031 573.335938 149.695312 570.957031 150.757812 569.109375 C 151.835938 567.253906 154.207031 566.617188 156.058594 567.6875 " fill-opacity="1" fill-rule="nonzero"/><path fill="#f4f4f4" d="M 87.480469 528.0625 C 89.332031 529.132812 89.964844 531.503906 88.898438 533.359375 C 87.828125 535.222656 85.449219 535.851562 83.601562 534.789062 C 81.746094 533.707031 81.113281 531.335938 82.179688 529.484375 C 83.25 527.621094 85.621094 526.992188 87.480469 528.0625 " fill-opacity="1" fill-rule="nonzero"/><path fill="#f4f4f4" d="M 152.179688 528.0625 C 154.035156 526.992188 156.414062 527.628906 157.480469 529.484375 C 158.550781 531.335938 157.914062 533.707031 156.058594 534.789062 C 154.207031 535.851562 151.835938 535.222656 150.757812 533.359375 C 149.695312 531.503906 150.332031 529.132812 152.179688 528.0625 " fill-opacity="1" fill-rule="nonzero"/><path fill="#f4f4f4" d="M 83.601562 567.6875 C 85.449219 566.617188 87.828125 567.253906 88.898438 569.109375 C 89.964844 570.957031 89.332031 573.335938 87.480469 574.40625 C 85.621094 575.476562 83.25 574.839844 82.179688 572.984375 C 81.113281 571.128906 81.746094 568.757812 83.601562 567.6875 " fill-opacity="1" fill-rule="nonzero"/><path fill="#f4f4f4" d="M 136.828125 537.824219 C 136.828125 540.464844 134.695312 542.601562 132.054688 542.601562 C 129.421875 542.601562 127.28125 540.464844 127.28125 537.824219 C 127.28125 535.1875 129.421875 533.054688 132.054688 533.054688 C 134.695312 533.054688 136.828125 535.1875 136.828125 537.824219 " fill-opacity="1" fill-rule="nonzero"/><path fill="#f4f4f4" d="M 112.726562 563.90625 C 112.726562 566.542969 110.59375 568.683594 107.953125 568.683594 C 105.3125 568.683594 103.179688 566.542969 103.179688 563.90625 C 103.179688 561.265625 105.3125 559.125 107.953125 559.125 C 110.59375 559.125 112.726562 561.265625 112.726562 563.90625 " fill-opacity="1" fill-rule="nonzero"/><path fill="#f4f4f4" d="M 136.828125 563.90625 C 136.828125 566.542969 134.695312 568.683594 132.054688 568.683594 C 129.421875 568.683594 127.28125 566.542969 127.28125 563.90625 C 127.28125 561.265625 129.421875 559.125 132.054688 559.125 C 134.695312 559.125 136.828125 561.265625 136.828125 563.90625 " fill-opacity="1" fill-rule="nonzero"/><g clip-path="url(#fe84bdf32f)"><path fill="#231f20" d="M 727.488281 552.546875 C 727.488281 597.757812 690.855469 634.40625 645.675781 634.40625 C 600.484375 634.40625 563.859375 597.757812 563.859375 552.546875 C 563.859375 507.324219 600.484375 470.667969 645.675781 470.667969 C 690.855469 470.667969 727.488281 507.324219 727.488281 552.546875 " fill-opacity="1" fill-rule="nonzero"/></g><path fill="#ed1c24" d="M 694.816406 552.546875 C 694.816406 579.699219 672.808594 601.714844 645.675781 601.714844 C 618.535156 601.714844 596.53125 579.699219 596.53125 552.546875 C 596.53125 525.386719 618.535156 503.371094 645.675781 503.371094 C 672.808594 503.371094 694.816406 525.386719 694.816406 552.546875 " fill-opacity="1" fill-rule="nonzero"/><path fill="#bf1b2c" d="M 689.582031 552.546875 C 689.582031 576.8125 669.921875 596.484375 645.675781 596.484375 C 621.417969 596.484375 601.765625 576.8125 601.765625 552.546875 C 601.765625 528.273438 621.417969 508.597656 645.675781 508.597656 C 669.921875 508.597656 689.582031 528.273438 689.582031 552.546875 " fill-opacity="1" fill-rule="nonzero"/><path fill="#ed1c24" d="M 679.183594 552.546875 C 679.183594 571.058594 664.183594 586.078125 645.675781 586.078125 C 627.164062 586.078125 612.164062 571.058594 612.164062 552.546875 C 612.164062 534.015625 627.164062 519.003906 645.675781 519.003906 C 664.183594 519.003906 679.183594 534.015625 679.183594 552.546875 " fill-opacity="1" fill-rule="nonzero"/><path fill="#f4f4f4" d="M 657.898438 552.546875 C 657.898438 559.300781 652.421875 564.78125 645.675781 564.78125 C 638.925781 564.78125 633.449219 559.300781 633.449219 552.546875 C 633.449219 545.785156 638.925781 540.304688 645.675781 540.304688 C 652.421875 540.304688 657.898438 545.785156 657.898438 552.546875 " fill-opacity="1" fill-rule="nonzero"/><path fill="#d3d2d2" d="M 653.128906 552.546875 C 653.128906 556.65625 649.789062 559.996094 645.675781 559.996094 C 641.558594 559.996094 638.21875 556.65625 638.21875 552.546875 C 638.21875 548.417969 641.558594 545.078125 645.675781 545.078125 C 649.789062 545.078125 653.128906 548.417969 653.128906 552.546875 " fill-opacity="1" fill-rule="nonzero"/><path fill="#f4f4f4" d="M 638.574219 538.699219 C 638.574219 541.332031 636.433594 543.472656 633.800781 543.472656 C 631.160156 543.472656 629.027344 541.332031 629.027344 538.699219 C 629.027344 536.0625 631.160156 533.921875 633.800781 533.921875 C 636.433594 533.921875 638.574219 536.0625 638.574219 538.699219 " fill-opacity="1" fill-rule="nonzero"/><path fill="#f4f4f4" d="M 649.546875 591.730469 C 649.546875 593.871094 647.8125 595.609375 645.675781 595.609375 C 643.527344 595.609375 641.792969 593.871094 641.792969 591.730469 C 641.792969 589.589844 643.527344 587.847656 645.675781 587.847656 C 647.8125 587.847656 649.546875 589.589844 649.546875 591.730469 " fill-opacity="1" fill-rule="nonzero"/><path fill="#f4f4f4" d="M 649.546875 512.480469 C 649.546875 514.628906 647.8125 516.363281 645.675781 516.363281 C 643.527344 516.363281 641.792969 514.628906 641.792969 512.480469 C 641.792969 510.339844 643.527344 508.597656 645.675781 508.597656 C 647.8125 508.597656 649.546875 510.339844 649.546875 512.480469 " fill-opacity="1" fill-rule="nonzero"/><path fill="#f4f4f4" d="M 681.90625 568.558594 C 683.753906 569.628906 684.390625 572 683.320312 573.859375 C 682.25 575.714844 679.882812 576.34375 678.027344 575.273438 C 676.171875 574.203125 675.535156 571.832031 676.605469 569.976562 C 677.675781 568.121094 680.050781 567.488281 681.90625 568.558594 " fill-opacity="1" fill-rule="nonzero"/><path fill="#f4f4f4" d="M 613.320312 528.9375 C 615.175781 530.007812 615.804688 532.378906 614.742188 534.234375 C 613.671875 536.089844 611.296875 536.726562 609.441406 535.65625 C 607.585938 534.578125 606.957031 532.207031 608.027344 530.351562 C 609.097656 528.503906 611.464844 527.867188 613.320312 528.9375 " fill-opacity="1" fill-rule="nonzero"/><path fill="#f4f4f4" d="M 678.027344 528.9375 C 679.882812 527.867188 682.25 528.503906 683.320312 530.351562 C 684.390625 532.207031 683.753906 534.578125 681.90625 535.65625 C 680.050781 536.726562 677.675781 536.089844 676.605469 534.234375 C 675.535156 532.378906 676.171875 530.007812 678.027344 528.9375 " fill-opacity="1" fill-rule="nonzero"/><path fill="#f4f4f4" d="M 609.441406 568.558594 C 611.296875 567.488281 613.671875 568.121094 614.742188 569.976562 C 615.804688 571.832031 615.175781 574.203125 613.320312 575.273438 C 611.464844 576.34375 609.097656 575.714844 608.027344 573.859375 C 606.957031 572 607.585938 569.628906 609.441406 568.558594 " fill-opacity="1" fill-rule="nonzero"/><path fill="#f4f4f4" d="M 662.671875 538.699219 C 662.671875 541.332031 660.535156 543.472656 657.898438 543.472656 C 655.265625 543.472656 653.128906 541.332031 653.128906 538.699219 C 653.128906 536.0625 655.265625 533.921875 657.898438 533.921875 C 660.535156 533.921875 662.671875 536.0625 662.671875 538.699219 " fill-opacity="1" fill-rule="nonzero"/><path fill="#f4f4f4" d="M 638.574219 564.78125 C 638.574219 567.414062 636.433594 569.550781 633.800781 569.550781 C 631.160156 569.550781 629.027344 567.414062 629.027344 564.78125 C 629.027344 562.136719 631.160156 559.996094 633.800781 559.996094 C 636.433594 559.996094 638.574219 562.136719 638.574219 564.78125 " fill-opacity="1" fill-rule="nonzero"/><path fill="#f4f4f4" d="M 662.671875 564.78125 C 662.671875 567.414062 660.535156 569.550781 657.898438 569.550781 C 655.265625 569.550781 653.128906 567.414062 653.128906 564.78125 C 653.128906 562.136719 655.265625 559.996094 657.898438 559.996094 C 660.535156 559.996094 662.671875 562.136719 662.671875 564.78125 " fill-opacity="1" fill-rule="nonzero"/><g clip-path="url(#af3c82b741)"><path fill="#ed1c24" d="M 14.578125 484.46875 C 14.578125 484.46875 42.460938 491.445312 77.320312 491.445312 C 112.179688 491.445312 154.875 496.683594 172.308594 508.890625 C 189.734375 521.089844 212.390625 530.691406 225.457031 530.691406 C 238.53125 530.691406 238.53125 530.691406 238.53125 530.691406 C 238.53125 530.691406 214.132812 432.238281 146.164062 418.675781 C 78.1875 405.121094 18.929688 450.460938 14.578125 484.46875 " fill-opacity="1" fill-rule="nonzero"/></g><g clip-path="url(#67101f4aa7)"><path fill="#ed1c24" d="M 246.375 266.46875 L 216.746094 364.132812 C 216.746094 364.132812 212.390625 386.808594 216.746094 399.015625 C 221.105469 411.222656 273.386719 498.425781 273.386719 498.425781 L 435.472656 498.425781 C 435.472656 498.425781 478.167969 493.195312 478.167969 427.792969 C 478.167969 362.394531 415.433594 349.3125 415.433594 349.3125 L 419.792969 336.230469 L 680.34375 355.414062 L 693.414062 377.210938 C 693.414062 377.210938 752.664062 413.839844 771.835938 469.648438 C 791.015625 525.453125 795.367188 542.898438 795.367188 542.898438 L 289.074219 548.128906 C 289.074219 548.128906 221.46875 509.414062 197.753906 450.726562 C 174.046875 392.039062 203.671875 283.910156 207.160156 276.933594 C 210.644531 269.957031 222.84375 239.4375 222.84375 239.4375 C 222.84375 239.4375 221.972656 260.371094 246.375 266.46875 " fill-opacity="1" fill-rule="nonzero"/></g><path fill="#231f20" d="M 294.808594 447.664062 C 295.625 453.386719 291.644531 458.683594 285.933594 459.5 L 265.222656 462.445312 C 259.511719 463.257812 254.210938 459.273438 253.402344 453.558594 L 232.917969 309.375 C 232.113281 303.660156 236.085938 298.363281 241.800781 297.546875 L 262.507812 294.601562 C 268.222656 293.789062 273.523438 297.773438 274.335938 303.488281 L 294.808594 447.664062 " fill-opacity="1" fill-rule="nonzero"/><path fill="#231f20" d="M 553.964844 348.464844 L 560.9375 307.464844 C 560.9375 307.464844 572.261719 299.636719 585.328125 299.636719 C 598.398438 299.636719 664.636719 301.382812 675.960938 299.636719 C 687.289062 297.886719 709.074219 294.371094 705.585938 307.464844 C 702.101562 320.5625 700.359375 354.574219 700.359375 354.574219 L 553.964844 348.464844 " fill-opacity="1" fill-rule="nonzero"/><path fill="#e9e9e9" d="M 722.667969 399.949219 C 722.667969 399.949219 765.742188 403.371094 771.835938 412.097656 C 777.9375 420.816406 785.78125 433.898438 785.78125 433.898438 L 785.78125 446.972656 L 754.222656 446.972656 L 722.667969 399.949219 " fill-opacity="1" fill-rule="nonzero"/><path fill="#bf1b2c" d="M 226.675781 257.78125 L 245.503906 269.957031 L 268.160156 218.511719 L 231.941406 198.453125 C 231.941406 198.453125 220.914062 245.621094 226.675781 257.78125 " fill-opacity="1" fill-rule="nonzero"/><g clip-path="url(#886f86483a)"><path fill="#ed1c24" d="M 201.933594 180.140625 C 201.933594 180.140625 231.652344 198.289062 242.164062 204.117188 C 252.6875 209.941406 289.945312 223.742188 289.945312 223.742188 L 289.945312 234.207031 C 289.945312 234.207031 243.628906 223.726562 226.261719 229.839844 C 208.90625 235.949219 195.832031 234.207031 195.832031 234.207031 L 187.769531 175.777344 L 201.933594 180.140625 " fill-opacity="1" fill-rule="nonzero"/></g><path fill="#ffffff" d="M 197.132812 235.394531 L 183.097656 237.078125 L 176.019531 178.109375 L 190.042969 176.414062 L 197.132812 235.394531 " fill-opacity="1" fill-rule="nonzero"/><path fill="#bf1b2c" d="M 526.769531 543.472656 C 526.769531 543.472656 432.65625 430.957031 537.226562 399.949219 C 641.792969 368.945312 774.652344 506.980469 785.78125 543.472656 L 526.769531 543.472656 " fill-opacity="1" fill-rule="nonzero"/><path fill="#393536" d="M 472.941406 333.839844 L 448.339844 333.839844 L 448.339844 304.417969 L 472.941406 304.417969 L 472.941406 333.839844 " fill-opacity="1" fill-rule="nonzero"/><path fill="#231f20" d="M 408.460938 291.03125 L 408.460938 323.292969 C 408.460938 323.292969 467.714844 331.144531 483.402344 327.648438 C 499.085938 324.164062 558.34375 291.03125 558.34375 291.03125 C 558.34375 291.03125 553.117188 286.667969 539.171875 286.667969 C 525.226562 286.667969 422.398438 286.667969 422.398438 286.667969 C 422.398438 286.667969 408.460938 285.796875 408.460938 291.03125 " fill-opacity="1" fill-rule="nonzero"/><path fill="#231f20" d="M 657.898438 466.179688 C 657.898438 468.175781 656.28125 469.800781 654.277344 469.800781 L 549.5625 469.800781 C 547.566406 469.800781 545.941406 468.175781 545.941406 466.179688 C 545.941406 464.171875 547.566406 462.554688 549.5625 462.554688 L 654.277344 462.554688 C 656.28125 462.554688 657.898438 464.171875 657.898438 466.179688 " fill-opacity="1" fill-rule="nonzero"/><path fill="#231f20" d="M 671.238281 487.402344 C 671.238281 489.40625 669.617188 491.027344 667.613281 491.027344 L 562.90625 491.027344 C 560.902344 491.027344 559.285156 489.40625 559.285156 487.402344 C 559.285156 485.398438 560.902344 483.777344 562.90625 483.777344 L 667.613281 483.777344 C 669.617188 483.777344 671.238281 485.398438 671.238281 487.402344 " fill-opacity="1" fill-rule="nonzero"/><path fill="#656263" d="M 282.765625 219.472656 C 280.089844 218.964844 277.308594 221.75 276.550781 225.683594 C 275.804688 229.636719 277.363281 233.238281 280.042969 233.753906 L 315.144531 240.472656 L 317.871094 226.195312 L 282.765625 219.472656 " fill-opacity="1" fill-rule="nonzero"/><path fill="#393536" d="M 321.359375 234.261719 C 320.601562 238.203125 317.820312 240.980469 315.144531 240.472656 C 312.464844 239.960938 310.898438 236.347656 311.652344 232.40625 C 312.410156 228.464844 315.191406 225.679688 317.871094 226.195312 C 320.546875 226.707031 322.109375 230.320312 321.359375 234.261719 " fill-opacity="1" fill-rule="nonzero"/></svg>