<svg xmlns="http://www.w3.org/2000/svg" xmlns:xlink="http://www.w3.org/1999/xlink" width="1080" zoomAndPan="magnify" viewBox="0 0 810 809.999993" height="1080" preserveAspectRatio="xMidYMid meet" version="1.0"><defs><clipPath id="bfcdc82eed"><path d="M 166 483 L 235 483 L 235 551.929688 L 166 551.929688 Z M 166 483 " clip-rule="nonzero"/></clipPath><clipPath id="5d0d514275"><path d="M 563 483 L 632 483 L 632 551.929688 L 563 551.929688 Z M 563 483 " clip-rule="nonzero"/></clipPath><clipPath id="bf1032b79e"><path d="M 37.675781 307.792969 L 782.316406 307.792969 L 782.316406 521 L 37.675781 521 Z M 37.675781 307.792969 " clip-rule="nonzero"/></clipPath><clipPath id="57a1e3f5ab"><path d="M 340 289.453125 L 620 289.453125 L 620 308 L 340 308 Z M 340 289.453125 " clip-rule="nonzero"/></clipPath><clipPath id="d0abe63128"><path d="M 767 420 L 782.316406 420 L 782.316406 473 L 767 473 Z M 767 420 " clip-rule="nonzero"/></clipPath></defs><path fill="#4f4c4c" d="M 685.738281 529.402344 L 126.089844 529.402344 L 126.089844 459.425781 L 685.738281 459.425781 L 685.738281 529.402344 " fill-opacity="1" fill-rule="nonzero"/><g clip-path="url(#bfcdc82eed)"><path fill="#231f20" d="M 234.742188 517.859375 C 234.742188 536.675781 219.503906 551.929688 200.703125 551.929688 C 181.902344 551.929688 166.667969 536.675781 166.667969 517.859375 C 166.667969 499.046875 181.902344 483.792969 200.703125 483.792969 C 219.503906 483.792969 234.742188 499.046875 234.742188 517.859375 " fill-opacity="1" fill-rule="nonzero"/></g><path fill="#ffffff" d="M 222.730469 517.859375 C 222.730469 530.03125 212.867188 539.902344 200.703125 539.902344 C 188.539062 539.902344 178.675781 530.03125 178.675781 517.859375 C 178.675781 505.683594 188.539062 495.816406 200.703125 495.816406 C 212.867188 495.816406 222.730469 505.683594 222.730469 517.859375 " fill-opacity="1" fill-rule="nonzero"/><path fill="#d3d2d2" d="M 220.820312 517.859375 C 220.820312 528.976562 211.816406 537.992188 200.703125 537.992188 C 189.589844 537.992188 180.585938 528.976562 180.585938 517.859375 C 180.585938 506.742188 189.589844 497.726562 200.703125 497.726562 C 211.816406 497.726562 220.820312 506.742188 220.820312 517.859375 " fill-opacity="1" fill-rule="nonzero"/><path fill="#918f8f" d="M 209.015625 517.859375 C 209.015625 522.457031 205.292969 526.179688 200.703125 526.179688 C 196.113281 526.179688 192.394531 522.457031 192.394531 517.859375 C 192.394531 513.269531 196.113281 509.546875 200.703125 509.546875 C 205.292969 509.546875 209.015625 513.269531 209.015625 517.859375 " fill-opacity="1" fill-rule="nonzero"/><path fill="#a7a5a6" d="M 203.558594 504.855469 C 203.558594 506.210938 202.457031 507.316406 201.09375 507.316406 C 199.734375 507.316406 198.636719 506.210938 198.636719 504.855469 C 198.636719 503.492188 199.734375 502.390625 201.09375 502.390625 C 202.457031 502.390625 203.558594 503.492188 203.558594 504.855469 " fill-opacity="1" fill-rule="nonzero"/><path fill="#a7a5a6" d="M 203.558594 531.867188 C 203.558594 533.222656 202.457031 534.324219 201.09375 534.324219 C 199.734375 534.324219 198.636719 533.222656 198.636719 531.867188 C 198.636719 530.503906 199.734375 529.402344 201.09375 529.402344 C 202.457031 529.402344 203.558594 530.503906 203.558594 531.867188 " fill-opacity="1" fill-rule="nonzero"/><path fill="#a7a5a6" d="M 187.601562 515.894531 C 188.960938 515.894531 190.0625 517 190.0625 518.359375 C 190.0625 519.714844 188.960938 520.820312 187.601562 520.820312 C 186.242188 520.820312 185.144531 519.714844 185.144531 518.359375 C 185.144531 517 186.242188 515.894531 187.601562 515.894531 " fill-opacity="1" fill-rule="nonzero"/><path fill="#a7a5a6" d="M 214.589844 515.894531 C 215.949219 515.894531 217.050781 517 217.050781 518.359375 C 217.050781 519.714844 215.949219 520.820312 214.589844 520.820312 C 213.234375 520.820312 212.132812 519.714844 212.132812 518.359375 C 212.132812 517 213.234375 515.894531 214.589844 515.894531 " fill-opacity="1" fill-rule="nonzero"/><path fill="#a7a5a6" d="M 193.292969 507.066406 C 194.253906 508.03125 194.253906 509.589844 193.292969 510.546875 C 192.335938 511.507812 190.773438 511.507812 189.816406 510.546875 C 188.855469 509.589844 188.855469 508.03125 189.816406 507.066406 C 190.773438 506.105469 192.335938 506.105469 193.292969 507.066406 " fill-opacity="1" fill-rule="nonzero"/><path fill="#a7a5a6" d="M 212.375 526.167969 C 213.339844 527.128906 213.339844 528.691406 212.378906 529.648438 C 211.417969 530.609375 209.859375 530.609375 208.898438 529.648438 C 207.9375 528.691406 207.9375 527.128906 208.898438 526.167969 C 209.855469 525.203125 211.417969 525.203125 212.375 526.167969 " fill-opacity="1" fill-rule="nonzero"/><path fill="#a7a5a6" d="M 189.816406 526.167969 C 190.773438 525.203125 192.335938 525.203125 193.292969 526.167969 C 194.253906 527.128906 194.253906 528.691406 193.292969 529.648438 C 192.335938 530.609375 190.773438 530.609375 189.816406 529.648438 C 188.855469 528.691406 188.855469 527.128906 189.816406 526.167969 " fill-opacity="1" fill-rule="nonzero"/><path fill="#a7a5a6" d="M 208.898438 507.066406 C 209.855469 506.105469 211.417969 506.105469 212.375 507.066406 C 213.339844 508.03125 213.339844 509.589844 212.375 510.546875 C 211.417969 511.507812 209.855469 511.507812 208.898438 510.546875 C 207.9375 509.589844 207.9375 508.03125 208.898438 507.066406 " fill-opacity="1" fill-rule="nonzero"/><g clip-path="url(#5d0d514275)"><path fill="#231f20" d="M 631.832031 517.859375 C 631.832031 536.675781 616.59375 551.929688 597.800781 551.929688 C 578.992188 551.929688 563.757812 536.675781 563.757812 517.859375 C 563.757812 499.046875 578.992188 483.792969 597.800781 483.792969 C 616.59375 483.792969 631.832031 499.046875 631.832031 517.859375 " fill-opacity="1" fill-rule="nonzero"/></g><path fill="#ffffff" d="M 619.824219 517.859375 C 619.824219 530.03125 609.957031 539.902344 597.800781 539.902344 C 585.625 539.902344 575.761719 530.03125 575.761719 517.859375 C 575.761719 505.683594 585.625 495.816406 597.800781 495.816406 C 609.957031 495.816406 619.824219 505.683594 619.824219 517.859375 " fill-opacity="1" fill-rule="nonzero"/><path fill="#d3d2d2" d="M 617.910156 517.859375 C 617.910156 528.976562 608.902344 537.992188 597.800781 537.992188 C 586.6875 537.992188 577.675781 528.976562 577.675781 517.859375 C 577.675781 506.742188 586.6875 497.726562 597.800781 497.726562 C 608.902344 497.726562 617.910156 506.742188 617.910156 517.859375 " fill-opacity="1" fill-rule="nonzero"/><path fill="#918f8f" d="M 606.101562 517.859375 C 606.101562 522.457031 602.378906 526.179688 597.800781 526.179688 C 593.207031 526.179688 589.492188 522.457031 589.492188 517.859375 C 589.492188 513.269531 593.207031 509.546875 597.800781 509.546875 C 602.378906 509.546875 606.101562 513.269531 606.101562 517.859375 " fill-opacity="1" fill-rule="nonzero"/><path fill="#a7a5a6" d="M 600.648438 504.855469 C 600.648438 506.210938 599.546875 507.316406 598.191406 507.316406 C 596.832031 507.316406 595.726562 506.210938 595.726562 504.855469 C 595.726562 503.492188 596.832031 502.390625 598.191406 502.390625 C 599.546875 502.390625 600.648438 503.492188 600.648438 504.855469 " fill-opacity="1" fill-rule="nonzero"/><path fill="#a7a5a6" d="M 600.648438 531.867188 C 600.648438 533.222656 599.546875 534.324219 598.191406 534.324219 C 596.832031 534.324219 595.726562 533.222656 595.726562 531.867188 C 595.726562 530.503906 596.832031 529.402344 598.191406 529.402344 C 599.546875 529.402344 600.648438 530.503906 600.648438 531.867188 " fill-opacity="1" fill-rule="nonzero"/><path fill="#a7a5a6" d="M 584.695312 515.894531 C 586.050781 515.894531 587.152344 517 587.152344 518.359375 C 587.152344 519.714844 586.050781 520.820312 584.695312 520.820312 C 583.335938 520.820312 582.234375 519.714844 582.234375 518.359375 C 582.234375 517 583.335938 515.894531 584.695312 515.894531 " fill-opacity="1" fill-rule="nonzero"/><path fill="#a7a5a6" d="M 611.679688 515.894531 C 613.039062 515.894531 614.140625 517 614.140625 518.359375 C 614.140625 519.714844 613.039062 520.820312 611.679688 520.820312 C 610.324219 520.820312 609.222656 519.714844 609.222656 518.359375 C 609.222656 517 610.324219 515.894531 611.679688 515.894531 " fill-opacity="1" fill-rule="nonzero"/><path fill="#a7a5a6" d="M 590.382812 507.066406 C 591.34375 508.03125 591.34375 509.589844 590.382812 510.546875 C 589.421875 511.507812 587.871094 511.507812 586.90625 510.546875 C 585.941406 509.589844 585.941406 508.03125 586.90625 507.066406 C 587.871094 506.105469 589.421875 506.105469 590.382812 507.066406 " fill-opacity="1" fill-rule="nonzero"/><path fill="#a7a5a6" d="M 609.472656 526.167969 C 610.429688 527.128906 610.429688 528.691406 609.472656 529.648438 C 608.507812 530.609375 606.953125 530.609375 605.988281 529.648438 C 605.03125 528.691406 605.03125 527.128906 605.988281 526.167969 C 606.953125 525.203125 608.507812 525.203125 609.472656 526.167969 " fill-opacity="1" fill-rule="nonzero"/><path fill="#a7a5a6" d="M 586.90625 526.167969 C 587.871094 525.203125 589.421875 525.203125 590.382812 526.167969 C 591.34375 527.128906 591.34375 528.691406 590.382812 529.648438 C 589.421875 530.609375 587.871094 530.609375 586.90625 529.648438 C 585.941406 528.691406 585.941406 527.128906 586.90625 526.167969 " fill-opacity="1" fill-rule="nonzero"/><path fill="#a7a5a6" d="M 605.988281 507.066406 C 606.953125 506.105469 608.507812 506.105469 609.472656 507.066406 C 610.425781 508.03125 610.429688 509.589844 609.472656 510.546875 C 608.507812 511.507812 606.953125 511.507812 605.988281 510.546875 C 605.03125 509.589844 605.03125 508.03125 605.988281 507.066406 " fill-opacity="1" fill-rule="nonzero"/><g clip-path="url(#bf1032b79e)"><path fill="#aac310" d="M 760.167969 307.929688 L 67.359375 307.929688 C 55.121094 307.929688 45.207031 317.851562 45.207031 330.097656 L 37.824219 498.648438 C 37.824219 510.894531 47.742188 520.820312 59.976562 520.820312 L 160.320312 520.820312 C 160.175781 519.402344 160.097656 517.96875 160.097656 516.507812 C 160.097656 494.058594 178.277344 475.867188 200.703125 475.867188 C 223.132812 475.867188 241.3125 494.058594 241.3125 516.507812 C 241.3125 517.96875 241.234375 519.402344 241.085938 520.820312 L 557.410156 520.820312 C 557.261719 519.402344 557.183594 517.96875 557.183594 516.507812 C 557.183594 494.058594 575.367188 475.867188 597.800781 475.867188 C 620.222656 475.867188 638.40625 494.058594 638.40625 516.507812 C 638.40625 517.96875 638.324219 519.402344 638.175781 520.820312 L 760.167969 520.820312 C 772.402344 520.820312 782.3125 510.894531 782.3125 498.648438 L 782.3125 330.097656 C 782.3125 317.851562 772.402344 307.929688 760.167969 307.929688 " fill-opacity="1" fill-rule="nonzero"/></g><path fill="#231f20" d="M 46.109375 323.851562 L 138.871094 323.851562 L 138.871094 420.003906 C 138.871094 420.003906 118.796875 439.714844 110.304688 439.714844 C 101.808594 439.714844 40.023438 448.320312 40.023438 448.320312 L 46.109375 323.851562 " fill-opacity="1" fill-rule="nonzero"/><path fill="#231f20" d="M 767.542969 391.171875 L 146.835938 391.171875 L 146.835938 323.851562 L 767.542969 323.851562 L 767.542969 391.171875 " fill-opacity="1" fill-rule="nonzero"/><path fill="#231f20" d="M 304.855469 490.214844 L 286.394531 490.214844 L 286.394531 483.792969 L 304.855469 483.792969 L 304.855469 490.214844 " fill-opacity="1" fill-rule="nonzero"/><path fill="#231f20" d="M 421.277344 490.214844 L 402.820312 490.214844 L 402.820312 483.792969 L 421.277344 483.792969 L 421.277344 490.214844 " fill-opacity="1" fill-rule="nonzero"/><path fill="#231f20" d="M 519.25 490.214844 L 500.789062 490.214844 L 500.789062 483.792969 L 519.25 483.792969 L 519.25 490.214844 " fill-opacity="1" fill-rule="nonzero"/><g clip-path="url(#57a1e3f5ab)"><path fill="#4f4c4c" d="M 619.824219 307.929688 L 340.074219 307.929688 L 367.757812 289.460938 L 619.824219 289.460938 L 619.824219 307.929688 " fill-opacity="1" fill-rule="nonzero"/></g><g clip-path="url(#d0abe63128)"><path fill="#bf1b2c" d="M 767.542969 472.972656 L 782.3125 472.972656 L 782.3125 420.015625 L 767.542969 420.015625 L 767.542969 472.972656 " fill-opacity="1" fill-rule="nonzero"/></g><path fill="#231f20" d="M 140.828125 520.835938 L 139.109375 520.808594 L 140.125 458.566406 L 767.542969 458.566406 L 767.542969 460.289062 L 141.824219 460.289062 L 140.828125 520.835938 " fill-opacity="1" fill-rule="nonzero"/><path fill="#231f20" d="M 258.957031 520.820312 L 257.234375 520.820312 L 257.234375 459.425781 L 258.957031 459.425781 L 258.957031 520.820312 " fill-opacity="1" fill-rule="nonzero"/><path fill="#231f20" d="M 353.867188 520.820312 L 352.148438 520.820312 L 352.148438 459.425781 L 353.867188 459.425781 L 353.867188 520.820312 " fill-opacity="1" fill-rule="nonzero"/><path fill="#231f20" d="M 465.945312 520.820312 L 464.222656 520.820312 L 464.222656 459.425781 L 465.945312 459.425781 L 465.945312 520.820312 " fill-opacity="1" fill-rule="nonzero"/><path fill="#231f20" d="M 554.070312 520.820312 L 552.347656 520.820312 L 552.347656 459.425781 L 554.070312 459.425781 L 554.070312 520.820312 " fill-opacity="1" fill-rule="nonzero"/><path fill="#231f20" d="M 129.613281 512.128906 L 68.019531 512.128906 L 68.019531 444.425781 L 69.738281 444.425781 L 69.738281 510.40625 L 127.890625 510.40625 L 127.890625 429.058594 L 129.613281 429.058594 L 129.613281 512.128906 " fill-opacity="1" fill-rule="nonzero"/><path fill="#231f20" d="M 32.824219 334.1875 L 29.507812 334.1875 C 23.222656 334.1875 18.132812 339.28125 18.132812 345.566406 L 18.132812 369.453125 C 18.132812 375.738281 23.222656 380.835938 29.507812 380.835938 L 32.824219 380.835938 L 32.824219 334.1875 " fill-opacity="1" fill-rule="nonzero"/><path fill="#231f20" d="M 53.210938 338.929688 L 25.476562 338.929688 L 25.476562 334.1875 L 53.210938 334.1875 L 53.210938 338.929688 " fill-opacity="1" fill-rule="nonzero"/></svg>