<svg xmlns="http://www.w3.org/2000/svg" xmlns:xlink="http://www.w3.org/1999/xlink" width="1080" zoomAndPan="magnify" viewBox="0 0 810 809.999993" height="1080" preserveAspectRatio="xMidYMid meet" version="1.0"><defs><clipPath id="82245d08bc"><path d="M 30 184 L 789.796875 184 L 789.796875 535 L 30 535 Z M 30 184 " clip-rule="nonzero"/></clipPath><clipPath id="6d3d5f70c9"><path d="M 93 388 L 293 388 L 293 587.691406 L 93 587.691406 Z M 93 388 " clip-rule="nonzero"/></clipPath><clipPath id="313bcc3223"><path d="M 523 388 L 723 388 L 723 587.691406 L 523 587.691406 Z M 523 388 " clip-rule="nonzero"/></clipPath><clipPath id="ea33566de8"><path d="M 749 428 L 789.796875 428 L 789.796875 480 L 749 480 Z M 749 428 " clip-rule="nonzero"/></clipPath><clipPath id="50ab803471"><path d="M 745 460 L 789.796875 460 L 789.796875 468 L 745 468 Z M 745 460 " clip-rule="nonzero"/></clipPath><clipPath id="af10198cbb"><path d="M 745 439 L 789.796875 439 L 789.796875 447 L 745 447 Z M 745 439 " clip-rule="nonzero"/></clipPath></defs><g clip-path="url(#82245d08bc)"><path fill="#e17d05" d="M 789.792969 428.488281 L 789.792969 478.484375 C 789.792969 478.746094 789.792969 478.996094 789.78125 479.257812 C 789.625 489.605469 786.175781 499.738281 779.617188 507.757812 C 779.519531 507.875 779.414062 508.007812 779.316406 508.128906 C 771.679688 517.257812 760.25 522.355469 748.351562 522.355469 L 553.667969 522.355469 L 535.613281 534.671875 L 270.214844 534.671875 L 91.457031 531.019531 C 54.074219 531.019531 32.75 520.3125 31.019531 505.945312 C 30.9375 505.3125 30.902344 504.667969 30.902344 504.023438 L 30.902344 449.613281 C 30.902344 440.734375 31.378906 431.84375 32.382812 423.023438 C 32.488281 422.058594 32.605469 421.089844 32.726562 420.125 C 32.835938 419.277344 32.941406 418.417969 33.074219 417.570312 C 34.207031 409.203125 35.839844 400.898438 37.976562 392.710938 C 40.375 383.484375 43.191406 375.09375 46.472656 367.625 C 48.453125 363.066406 51.234375 358.960938 54.621094 355.4375 C 58.117188 351.785156 62.269531 348.769531 66.875 346.511719 C 117.921875 321.640625 174.253906 308.230469 237.746094 305.53125 C 265.046875 269.191406 295.5 235.714844 330.507812 206.429688 C 331.570312 205.53125 332.773438 204.816406 334.078125 204.304688 C 334.234375 204.246094 334.386719 204.195312 334.542969 204.136719 C 403.6875 180.398438 517.308594 176.066406 630.175781 205.449219 C 632.703125 206.105469 635.042969 207.3125 637.046875 208.957031 C 637.238281 209.113281 637.429688 209.28125 637.617188 209.445312 C 674.296875 242.335938 705.777344 276.753906 729.914062 312.355469 C 739.449219 326.402344 747.800781 340.628906 754.910156 355.019531 L 754.910156 355.03125 C 756.261719 357.765625 757.5625 360.488281 758.8125 363.242188 C 764.457031 375.570312 769.160156 388.019531 772.824219 400.570312 C 785.6875 406.230469 789.792969 412.796875 789.792969 428.488281 Z M 789.792969 428.488281 " fill-opacity="1" fill-rule="nonzero"/></g><path fill="#d66500" d="M 45.9375 412.617188 C 41.878906 415.996094 37.40625 418.324219 32.726562 420.125 C 33.882812 410.886719 35.625 401.734375 37.976562 392.710938 C 40.375 383.484375 43.191406 375.09375 46.472656 367.625 C 48.453125 363.066406 51.234375 358.960938 54.621094 355.4375 C 58.894531 370.023438 51.234375 390.324219 45.9375 412.617188 Z M 45.9375 412.617188 " fill-opacity="1" fill-rule="nonzero"/><path fill="#d66500" d="M 253.796875 514.417969 L 547.101562 514.417969 L 547.101562 534.671875 L 253.796875 534.671875 Z M 253.796875 514.417969 " fill-opacity="1" fill-rule="nonzero"/><g clip-path="url(#6d3d5f70c9)"><path fill="#1c2627" d="M 292.316406 488.085938 C 292.316406 489.710938 292.273438 491.339844 292.195312 492.964844 C 292.113281 494.589844 291.996094 496.214844 291.835938 497.835938 C 291.675781 499.453125 291.476562 501.070312 291.238281 502.679688 C 291 504.289062 290.722656 505.894531 290.402344 507.492188 C 290.085938 509.085938 289.730469 510.675781 289.335938 512.253906 C 288.9375 513.835938 288.503906 515.402344 288.03125 516.960938 C 287.558594 518.519531 287.050781 520.0625 286.5 521.597656 C 285.953125 523.128906 285.367188 524.648438 284.742188 526.152344 C 284.121094 527.65625 283.460938 529.144531 282.765625 530.617188 C 282.070312 532.085938 281.339844 533.539062 280.570312 534.976562 C 279.804688 536.414062 279 537.828125 278.164062 539.226562 C 277.328125 540.621094 276.457031 541.996094 275.554688 543.351562 C 274.648438 544.703125 273.710938 546.035156 272.742188 547.339844 C 271.773438 548.648438 270.773438 549.933594 269.738281 551.191406 C 268.707031 552.449219 267.644531 553.679688 266.550781 554.886719 C 265.457031 556.09375 264.335938 557.273438 263.183594 558.421875 C 262.035156 559.574219 260.855469 560.695312 259.648438 561.789062 C 258.441406 562.882812 257.210938 563.945312 255.953125 564.980469 C 254.695312 566.011719 253.410156 567.011719 252.105469 567.984375 C 250.796875 568.953125 249.464844 569.890625 248.113281 570.792969 C 246.757812 571.699219 245.386719 572.570312 243.988281 573.40625 C 242.59375 574.242188 241.175781 575.046875 239.742188 575.8125 C 238.304688 576.582031 236.851562 577.3125 235.382812 578.007812 C 233.910156 578.703125 232.421875 579.363281 230.917969 579.988281 C 229.414062 580.609375 227.894531 581.195312 226.363281 581.746094 C 224.832031 582.292969 223.285156 582.804688 221.726562 583.277344 C 220.171875 583.75 218.601562 584.183594 217.023438 584.578125 C 215.445312 584.972656 213.855469 585.332031 212.261719 585.648438 C 210.664062 585.964844 209.0625 586.242188 207.449219 586.484375 C 205.839844 586.722656 204.226562 586.921875 202.605469 587.082031 C 200.984375 587.238281 199.363281 587.359375 197.738281 587.4375 C 196.113281 587.519531 194.484375 587.558594 192.859375 587.558594 C 191.230469 587.558594 189.601562 587.519531 187.976562 587.4375 C 186.351562 587.359375 184.730469 587.238281 183.109375 587.082031 C 181.488281 586.921875 179.875 586.722656 178.265625 586.484375 C 176.652344 586.242188 175.050781 585.964844 173.453125 585.648438 C 171.859375 585.332031 170.269531 584.972656 168.691406 584.578125 C 167.113281 584.183594 165.542969 583.75 163.988281 583.277344 C 162.429688 582.804688 160.882812 582.292969 159.351562 581.746094 C 157.820312 581.195312 156.300781 580.609375 154.796875 579.988281 C 153.292969 579.363281 151.804688 578.703125 150.335938 578.007812 C 148.863281 577.3125 147.410156 576.582031 145.972656 575.8125 C 144.539062 575.046875 143.121094 574.242188 141.726562 573.40625 C 140.332031 572.570312 138.957031 571.699219 137.601562 570.792969 C 136.25 569.890625 134.917969 568.953125 133.609375 567.984375 C 132.304688 567.011719 131.019531 566.011719 129.761719 564.980469 C 128.503906 563.945312 127.273438 562.882812 126.066406 561.789062 C 124.859375 560.695312 123.683594 559.574219 122.53125 558.425781 C 121.378906 557.273438 120.257812 556.09375 119.164062 554.886719 C 118.070312 553.679688 117.007812 552.449219 115.976562 551.191406 C 114.945312 549.933594 113.941406 548.648438 112.972656 547.339844 C 112.003906 546.035156 111.066406 544.703125 110.160156 543.351562 C 109.257812 541.996094 108.386719 540.621094 107.550781 539.226562 C 106.714844 537.828125 105.910156 536.414062 105.144531 534.976562 C 104.378906 533.539062 103.644531 532.085938 102.949219 530.617188 C 102.253906 529.144531 101.59375 527.65625 100.972656 526.152344 C 100.347656 524.648438 99.761719 523.128906 99.214844 521.597656 C 98.664062 520.0625 98.15625 518.519531 97.683594 516.960938 C 97.210938 515.402344 96.777344 513.835938 96.382812 512.253906 C 95.984375 510.675781 95.628906 509.085938 95.3125 507.492188 C 94.992188 505.894531 94.714844 504.289062 94.476562 502.679688 C 94.238281 501.070312 94.039062 499.453125 93.878906 497.835938 C 93.71875 496.214844 93.601562 494.589844 93.519531 492.964844 C 93.441406 491.339844 93.402344 489.710938 93.402344 488.085938 C 93.402344 486.457031 93.441406 484.828125 93.519531 483.203125 C 93.601562 481.578125 93.71875 479.953125 93.878906 478.335938 C 94.039062 476.714844 94.238281 475.097656 94.476562 473.488281 C 94.714844 471.878906 94.992188 470.273438 95.3125 468.679688 C 95.628906 467.082031 95.984375 465.492188 96.382812 463.914062 C 96.777344 462.335938 97.210938 460.765625 97.683594 459.207031 C 98.15625 457.652344 98.664062 456.105469 99.214844 454.574219 C 99.761719 453.039062 100.347656 451.519531 100.972656 450.015625 C 101.59375 448.511719 102.253906 447.027344 102.949219 445.554688 C 103.644531 444.082031 104.378906 442.628906 105.144531 441.191406 C 105.910156 439.757812 106.714844 438.339844 107.550781 436.945312 C 108.386719 435.546875 109.257812 434.171875 110.160156 432.820312 C 111.066406 431.464844 112.003906 430.136719 112.972656 428.828125 C 113.941406 427.519531 114.945312 426.238281 115.976562 424.980469 C 117.007812 423.71875 118.070312 422.488281 119.164062 421.28125 C 120.257812 420.074219 121.378906 418.898438 122.53125 417.746094 C 123.683594 416.59375 124.859375 415.472656 126.066406 414.378906 C 127.273438 413.285156 128.503906 412.222656 129.761719 411.191406 C 131.019531 410.15625 132.304688 409.15625 133.609375 408.1875 C 134.917969 407.214844 136.25 406.277344 137.601562 405.375 C 138.957031 404.46875 140.332031 403.597656 141.726562 402.761719 C 143.121094 401.925781 144.539062 401.125 145.972656 400.355469 C 147.410156 399.589844 148.863281 398.855469 150.335938 398.160156 C 151.804688 397.464844 153.292969 396.804688 154.796875 396.183594 C 156.300781 395.558594 157.820312 394.972656 159.351562 394.425781 C 160.882812 393.875 162.429688 393.367188 163.988281 392.894531 C 165.542969 392.421875 167.113281 391.988281 168.691406 391.589844 C 170.269531 391.195312 171.859375 390.839844 173.453125 390.519531 C 175.050781 390.203125 176.652344 389.925781 178.265625 389.6875 C 179.875 389.449219 181.488281 389.25 183.109375 389.089844 C 184.730469 388.929688 186.351562 388.808594 187.976562 388.730469 C 189.601562 388.648438 191.230469 388.609375 192.859375 388.609375 C 194.484375 388.609375 196.113281 388.648438 197.738281 388.730469 C 199.363281 388.808594 200.984375 388.929688 202.605469 389.089844 C 204.226562 389.25 205.839844 389.449219 207.449219 389.6875 C 209.0625 389.925781 210.664062 390.203125 212.261719 390.519531 C 213.855469 390.839844 215.445312 391.195312 217.023438 391.589844 C 218.601562 391.988281 220.171875 392.421875 221.726562 392.894531 C 223.285156 393.367188 224.832031 393.875 226.363281 394.425781 C 227.894531 394.972656 229.414062 395.558594 230.917969 396.183594 C 232.421875 396.804688 233.910156 397.464844 235.382812 398.160156 C 236.851562 398.855469 238.304688 399.589844 239.742188 400.355469 C 241.175781 401.125 242.59375 401.925781 243.988281 402.761719 C 245.386719 403.597656 246.757812 404.46875 248.113281 405.375 C 249.464844 406.277344 250.796875 407.214844 252.105469 408.1875 C 253.410156 409.15625 254.695312 410.15625 255.953125 411.191406 C 257.210938 412.222656 258.441406 413.285156 259.648438 414.378906 C 260.855469 415.472656 262.035156 416.59375 263.183594 417.746094 C 264.335938 418.898438 265.457031 420.074219 266.550781 421.28125 C 267.644531 422.488281 268.707031 423.71875 269.738281 424.980469 C 270.773438 426.238281 271.773438 427.519531 272.742188 428.828125 C 273.710938 430.136719 274.648438 431.464844 275.554688 432.820312 C 276.457031 434.171875 277.328125 435.546875 278.164062 436.945312 C 279 438.339844 279.804688 439.757812 280.570312 441.191406 C 281.339844 442.628906 282.070312 444.082031 282.765625 445.554688 C 283.460938 447.023438 284.121094 448.511719 284.742188 450.015625 C 285.367188 451.519531 285.953125 453.039062 286.5 454.574219 C 287.050781 456.105469 287.558594 457.652344 288.03125 459.207031 C 288.503906 460.765625 288.9375 462.335938 289.335938 463.914062 C 289.730469 465.492188 290.085938 467.082031 290.402344 468.679688 C 290.722656 470.273438 291 471.878906 291.238281 473.488281 C 291.476562 475.097656 291.675781 476.714844 291.835938 478.335938 C 291.996094 479.953125 292.113281 481.578125 292.195312 483.203125 C 292.273438 484.828125 292.316406 486.457031 292.316406 488.085938 Z M 292.316406 488.085938 " fill-opacity="1" fill-rule="nonzero"/></g><path fill="#d5d5d5" d="M 237.871094 443.058594 C 238.605469 443.796875 239.324219 444.550781 240.023438 445.324219 C 240.722656 446.097656 241.402344 446.882812 242.066406 447.691406 C 242.726562 448.496094 243.367188 449.316406 243.988281 450.152344 C 244.609375 450.992188 245.207031 451.84375 245.785156 452.707031 C 246.363281 453.574219 246.921875 454.457031 247.457031 455.347656 C 247.992188 456.242188 248.507812 457.148438 249 458.070312 C 249.488281 458.988281 249.957031 459.917969 250.402344 460.859375 C 250.847656 461.800781 251.269531 462.753906 251.667969 463.71875 C 252.066406 464.679688 252.441406 465.652344 252.792969 466.632812 C 253.144531 467.613281 253.472656 468.601562 253.773438 469.601562 C 254.078125 470.597656 254.355469 471.601562 254.605469 472.613281 C 254.859375 473.621094 255.089844 474.640625 255.292969 475.660156 C 255.496094 476.683594 255.671875 477.710938 255.824219 478.742188 C 255.980469 479.769531 256.105469 480.804688 256.207031 481.84375 C 256.3125 482.878906 256.386719 483.917969 256.4375 484.957031 C 256.488281 486 256.515625 487.042969 256.515625 488.082031 C 256.515625 489.125 256.488281 490.167969 256.4375 491.207031 C 256.386719 492.25 256.3125 493.285156 256.207031 494.324219 C 256.105469 495.359375 255.980469 496.394531 255.824219 497.425781 C 255.671875 498.457031 255.496094 499.484375 255.292969 500.503906 C 255.089844 501.527344 254.859375 502.542969 254.605469 503.554688 C 254.355469 504.566406 254.078125 505.570312 253.773438 506.566406 C 253.472656 507.5625 253.144531 508.550781 252.792969 509.535156 C 252.441406 510.515625 252.066406 511.488281 251.667969 512.449219 C 251.269531 513.410156 250.847656 514.363281 250.402344 515.304688 C 249.957031 516.25 249.488281 517.179688 249 518.097656 C 248.507812 519.015625 247.992188 519.921875 247.457031 520.816406 C 246.921875 521.710938 246.367188 522.589844 245.785156 523.457031 C 245.207031 524.324219 244.609375 525.175781 243.988281 526.011719 C 243.367188 526.847656 242.726562 527.671875 242.066406 528.476562 C 241.402344 529.28125 240.722656 530.070312 240.023438 530.84375 C 239.324219 531.613281 238.605469 532.367188 237.871094 533.105469 C 237.132812 533.84375 236.378906 534.5625 235.605469 535.261719 C 234.835938 535.960938 234.046875 536.640625 233.242188 537.300781 C 232.433594 537.964844 231.613281 538.605469 230.777344 539.226562 C 229.941406 539.84375 229.089844 540.445312 228.222656 541.023438 C 227.355469 541.601562 226.476562 542.160156 225.582031 542.695312 C 224.6875 543.230469 223.78125 543.746094 222.863281 544.238281 C 221.945312 544.726562 221.015625 545.195312 220.074219 545.640625 C 219.132812 546.085938 218.179688 546.507812 217.214844 546.910156 C 216.253906 547.308594 215.28125 547.683594 214.300781 548.03125 C 213.320312 548.382812 212.332031 548.710938 211.335938 549.011719 C 210.335938 549.316406 209.332031 549.59375 208.324219 549.847656 C 207.3125 550.101562 206.296875 550.328125 205.273438 550.53125 C 204.253906 550.734375 203.226562 550.914062 202.195312 551.066406 C 201.164062 551.21875 200.132812 551.347656 199.09375 551.449219 C 198.058594 551.550781 197.019531 551.628906 195.976562 551.679688 C 194.9375 551.730469 193.894531 551.753906 192.855469 551.753906 C 191.8125 551.753906 190.769531 551.730469 189.730469 551.679688 C 188.691406 551.628906 187.652344 551.550781 186.613281 551.449219 C 185.578125 551.347656 184.542969 551.21875 183.511719 551.066406 C 182.484375 550.914062 181.457031 550.734375 180.433594 550.53125 C 179.414062 550.328125 178.398438 550.101562 177.386719 549.847656 C 176.375 549.59375 175.371094 549.316406 174.375 549.011719 C 173.378906 548.710938 172.390625 548.382812 171.40625 548.03125 C 170.425781 547.683594 169.457031 547.308594 168.492188 546.910156 C 167.53125 546.507812 166.578125 546.085938 165.636719 545.640625 C 164.695312 545.195312 163.765625 544.726562 162.84375 544.238281 C 161.925781 543.746094 161.019531 543.230469 160.125 542.695312 C 159.234375 542.160156 158.351562 541.601562 157.488281 541.023438 C 156.621094 540.445312 155.769531 539.84375 154.933594 539.226562 C 154.09375 538.605469 153.273438 537.964844 152.46875 537.300781 C 151.664062 536.640625 150.875 535.960938 150.101562 535.261719 C 149.332031 534.5625 148.578125 533.84375 147.839844 533.105469 C 147.101562 532.367188 146.382812 531.613281 145.683594 530.84375 C 144.984375 530.070312 144.304688 529.28125 143.644531 528.476562 C 142.984375 527.671875 142.34375 526.847656 141.722656 526.011719 C 141.101562 525.175781 140.5 524.324219 139.921875 523.457031 C 139.34375 522.589844 138.785156 521.710938 138.25 520.816406 C 137.714844 519.921875 137.203125 519.015625 136.710938 518.097656 C 136.21875 517.179688 135.75 516.25 135.304688 515.304688 C 134.859375 514.363281 134.4375 513.410156 134.039062 512.449219 C 133.640625 511.488281 133.265625 510.515625 132.914062 509.535156 C 132.5625 508.550781 132.238281 507.5625 131.933594 506.566406 C 131.632812 505.570312 131.355469 504.566406 131.101562 503.554688 C 130.847656 502.542969 130.621094 501.527344 130.417969 500.503906 C 130.214844 499.484375 130.035156 498.457031 129.882812 497.425781 C 129.730469 496.394531 129.601562 495.359375 129.5 494.324219 C 129.398438 493.285156 129.320312 492.25 129.269531 491.207031 C 129.21875 490.167969 129.195312 489.125 129.195312 488.082031 C 129.195312 487.042969 129.21875 486 129.269531 484.957031 C 129.320312 483.917969 129.398438 482.878906 129.5 481.84375 C 129.601562 480.804688 129.730469 479.769531 129.882812 478.742188 C 130.035156 477.710938 130.214844 476.683594 130.417969 475.660156 C 130.621094 474.640625 130.847656 473.621094 131.101562 472.613281 C 131.355469 471.601562 131.632812 470.597656 131.933594 469.601562 C 132.238281 468.601562 132.5625 467.613281 132.914062 466.632812 C 133.265625 465.652344 133.640625 464.679688 134.039062 463.71875 C 134.4375 462.753906 134.859375 461.800781 135.304688 460.859375 C 135.75 459.917969 136.21875 458.988281 136.710938 458.070312 C 137.203125 457.148438 137.714844 456.242188 138.25 455.347656 C 138.785156 454.457031 139.34375 453.574219 139.921875 452.707031 C 140.5 451.84375 141.101562 450.992188 141.722656 450.152344 C 142.34375 449.316406 142.984375 448.496094 143.644531 447.691406 C 144.304688 446.882812 144.984375 446.097656 145.683594 445.324219 C 146.382812 444.550781 147.101562 443.796875 147.839844 443.058594 C 148.578125 442.324219 149.332031 441.605469 150.101562 440.90625 C 150.875 440.207031 151.664062 439.523438 152.46875 438.863281 C 153.273438 438.203125 154.09375 437.5625 154.933594 436.941406 C 155.769531 436.320312 156.621094 435.722656 157.488281 435.140625 C 158.351562 434.5625 159.234375 434.003906 160.125 433.46875 C 161.019531 432.933594 161.925781 432.421875 162.84375 431.929688 C 163.765625 431.4375 164.695312 430.96875 165.636719 430.523438 C 166.578125 430.078125 167.53125 429.65625 168.492188 429.257812 C 169.457031 428.859375 170.425781 428.484375 171.40625 428.132812 C 172.390625 427.78125 173.378906 427.457031 174.375 427.152344 C 175.371094 426.851562 176.375 426.574219 177.386719 426.320312 C 178.398438 426.066406 179.414062 425.839844 180.433594 425.632812 C 181.457031 425.429688 182.484375 425.253906 183.511719 425.101562 C 184.542969 424.949219 185.578125 424.820312 186.613281 424.71875 C 187.652344 424.617188 188.691406 424.539062 189.730469 424.488281 C 190.769531 424.4375 191.8125 424.410156 192.855469 424.410156 C 193.894531 424.410156 194.9375 424.4375 195.976562 424.488281 C 197.019531 424.539062 198.058594 424.617188 199.09375 424.71875 C 200.132812 424.820312 201.164062 424.949219 202.195312 425.101562 C 203.226562 425.253906 204.253906 425.429688 205.273438 425.632812 C 206.296875 425.839844 207.3125 426.066406 208.324219 426.320312 C 209.332031 426.574219 210.335938 426.851562 211.335938 427.152344 C 212.332031 427.457031 213.320312 427.78125 214.300781 428.132812 C 215.28125 428.484375 216.253906 428.859375 217.214844 429.257812 C 218.179688 429.65625 219.132812 430.078125 220.074219 430.523438 C 221.015625 430.96875 221.945312 431.4375 222.863281 431.929688 C 223.78125 432.421875 224.6875 432.933594 225.582031 433.46875 C 226.476562 434.003906 227.355469 434.5625 228.222656 435.140625 C 229.089844 435.722656 229.941406 436.320312 230.777344 436.941406 C 231.613281 437.5625 232.433594 438.203125 233.242188 438.863281 C 234.046875 439.523438 234.835938 440.207031 235.605469 440.90625 C 236.378906 441.605469 237.132812 442.324219 237.871094 443.058594 Z M 237.871094 443.058594 " fill-opacity="1" fill-rule="nonzero"/><g clip-path="url(#313bcc3223)"><path fill="#1c2627" d="M 722.34375 488.085938 C 722.34375 489.710938 722.304688 491.339844 722.226562 492.964844 C 722.144531 494.589844 722.027344 496.214844 721.867188 497.835938 C 721.707031 499.453125 721.507812 501.070312 721.269531 502.679688 C 721.03125 504.289062 720.753906 505.894531 720.433594 507.492188 C 720.117188 509.085938 719.761719 510.675781 719.363281 512.253906 C 718.96875 513.835938 718.535156 515.402344 718.0625 516.960938 C 717.589844 518.519531 717.078125 520.0625 716.53125 521.597656 C 715.984375 523.128906 715.398438 524.648438 714.773438 526.152344 C 714.152344 527.65625 713.492188 529.144531 712.796875 530.617188 C 712.101562 532.085938 711.367188 533.539062 710.601562 534.976562 C 709.835938 536.414062 709.03125 537.828125 708.195312 539.226562 C 707.359375 540.621094 706.488281 541.996094 705.585938 543.351562 C 704.679688 544.703125 703.742188 546.035156 702.773438 547.339844 C 701.804688 548.648438 700.800781 549.933594 699.769531 551.191406 C 698.738281 552.449219 697.675781 553.679688 696.582031 554.886719 C 695.488281 556.09375 694.367188 557.273438 693.214844 558.421875 C 692.0625 559.574219 690.886719 560.695312 689.679688 561.789062 C 688.472656 562.882812 687.242188 563.945312 685.984375 564.980469 C 684.726562 566.011719 683.441406 567.011719 682.136719 567.984375 C 680.828125 568.953125 679.496094 569.890625 678.144531 570.792969 C 676.789062 571.699219 675.414062 572.570312 674.019531 573.40625 C 672.625 574.242188 671.207031 575.046875 669.773438 575.8125 C 668.335938 576.582031 666.882812 577.3125 665.410156 578.007812 C 663.941406 578.703125 662.453125 579.363281 660.949219 579.988281 C 659.445312 580.609375 657.925781 581.195312 656.394531 581.746094 C 654.863281 582.292969 653.316406 582.804688 651.757812 583.277344 C 650.203125 583.75 648.632812 584.183594 647.054688 584.578125 C 645.476562 584.972656 643.886719 585.332031 642.292969 585.648438 C 640.695312 585.964844 639.09375 586.242188 637.480469 586.484375 C 635.871094 586.722656 634.257812 586.921875 632.636719 587.082031 C 631.015625 587.238281 629.394531 587.359375 627.769531 587.4375 C 626.144531 587.519531 624.515625 587.558594 622.886719 587.558594 C 621.261719 587.558594 619.632812 587.519531 618.007812 587.4375 C 616.382812 587.359375 614.761719 587.238281 613.140625 587.082031 C 611.519531 586.921875 609.90625 586.722656 608.296875 586.484375 C 606.683594 586.242188 605.082031 585.964844 603.484375 585.648438 C 601.890625 585.332031 600.300781 584.972656 598.722656 584.578125 C 597.144531 584.183594 595.574219 583.75 594.019531 583.277344 C 592.460938 582.804688 590.914062 582.292969 589.382812 581.746094 C 587.851562 581.195312 586.332031 580.609375 584.828125 579.988281 C 583.324219 579.363281 581.835938 578.703125 580.363281 578.007812 C 578.894531 577.3125 577.441406 576.582031 576.003906 575.8125 C 574.570312 575.046875 573.152344 574.242188 571.757812 573.40625 C 570.359375 572.570312 568.988281 571.699219 567.632812 570.792969 C 566.28125 569.890625 564.949219 568.953125 563.640625 567.984375 C 562.335938 567.011719 561.050781 566.011719 559.792969 564.980469 C 558.535156 563.945312 557.304688 562.882812 556.097656 561.789062 C 554.890625 560.695312 553.710938 559.574219 552.5625 558.425781 C 551.410156 557.273438 550.289062 556.09375 549.195312 554.886719 C 548.101562 553.679688 547.039062 552.449219 546.007812 551.191406 C 544.972656 549.933594 543.972656 548.648438 543.003906 547.339844 C 542.035156 546.035156 541.097656 544.703125 540.191406 543.351562 C 539.289062 541.996094 538.417969 540.621094 537.582031 539.226562 C 536.746094 537.828125 535.941406 536.414062 535.175781 534.976562 C 534.40625 533.539062 533.675781 532.085938 532.980469 530.617188 C 532.285156 529.144531 531.625 527.65625 531.003906 526.152344 C 530.378906 524.648438 529.792969 523.128906 529.246094 521.597656 C 528.695312 520.0625 528.1875 518.519531 527.714844 516.960938 C 527.242188 515.402344 526.808594 513.835938 526.410156 512.253906 C 526.015625 510.675781 525.660156 509.085938 525.34375 507.492188 C 525.023438 505.894531 524.746094 504.289062 524.507812 502.679688 C 524.269531 501.070312 524.070312 499.453125 523.910156 497.835938 C 523.75 496.214844 523.632812 494.589844 523.550781 492.964844 C 523.472656 491.339844 523.429688 489.710938 523.429688 488.085938 C 523.429688 486.457031 523.472656 484.828125 523.550781 483.203125 C 523.632812 481.578125 523.75 479.953125 523.910156 478.335938 C 524.070312 476.714844 524.269531 475.097656 524.507812 473.488281 C 524.746094 471.878906 525.023438 470.273438 525.34375 468.679688 C 525.660156 467.082031 526.015625 465.492188 526.410156 463.914062 C 526.808594 462.335938 527.242188 460.765625 527.714844 459.207031 C 528.1875 457.652344 528.695312 456.105469 529.246094 454.574219 C 529.792969 453.039062 530.378906 451.519531 531.003906 450.015625 C 531.625 448.511719 532.285156 447.027344 532.980469 445.554688 C 533.675781 444.082031 534.40625 442.628906 535.175781 441.191406 C 535.941406 439.757812 536.746094 438.339844 537.582031 436.945312 C 538.417969 435.546875 539.289062 434.171875 540.191406 432.820312 C 541.097656 431.464844 542.035156 430.136719 543.003906 428.828125 C 543.972656 427.519531 544.972656 426.238281 546.007812 424.980469 C 547.039062 423.71875 548.101562 422.488281 549.195312 421.28125 C 550.289062 420.074219 551.410156 418.898438 552.5625 417.746094 C 553.710938 416.59375 554.890625 415.472656 556.097656 414.378906 C 557.304688 413.285156 558.535156 412.222656 559.792969 411.191406 C 561.050781 410.15625 562.335938 409.15625 563.640625 408.1875 C 564.949219 407.214844 566.28125 406.277344 567.632812 405.375 C 568.988281 404.46875 570.359375 403.597656 571.757812 402.761719 C 573.152344 401.925781 574.570312 401.125 576.003906 400.355469 C 577.441406 399.589844 578.894531 398.855469 580.363281 398.160156 C 581.835938 397.464844 583.324219 396.804688 584.828125 396.183594 C 586.332031 395.558594 587.851562 394.972656 589.382812 394.425781 C 590.914062 393.875 592.460938 393.367188 594.019531 392.894531 C 595.574219 392.421875 597.144531 391.988281 598.722656 391.589844 C 600.300781 391.195312 601.890625 390.839844 603.484375 390.519531 C 605.082031 390.203125 606.683594 389.925781 608.296875 389.6875 C 609.90625 389.449219 611.519531 389.25 613.140625 389.089844 C 614.761719 388.929688 616.382812 388.808594 618.007812 388.730469 C 619.632812 388.648438 621.261719 388.609375 622.886719 388.609375 C 624.515625 388.609375 626.144531 388.648438 627.769531 388.730469 C 629.394531 388.808594 631.015625 388.929688 632.636719 389.089844 C 634.257812 389.25 635.871094 389.449219 637.480469 389.6875 C 639.09375 389.925781 640.695312 390.203125 642.292969 390.519531 C 643.886719 390.839844 645.476562 391.195312 647.054688 391.589844 C 648.632812 391.988281 650.203125 392.421875 651.757812 392.894531 C 653.316406 393.367188 654.863281 393.875 656.394531 394.425781 C 657.925781 394.972656 659.445312 395.558594 660.949219 396.183594 C 662.453125 396.804688 663.941406 397.464844 665.410156 398.160156 C 666.882812 398.855469 668.335938 399.589844 669.773438 400.355469 C 671.207031 401.125 672.625 401.925781 674.019531 402.761719 C 675.414062 403.597656 676.789062 404.46875 678.144531 405.375 C 679.496094 406.277344 680.828125 407.214844 682.136719 408.1875 C 683.441406 409.15625 684.726562 410.15625 685.984375 411.191406 C 687.242188 412.222656 688.472656 413.285156 689.679688 414.378906 C 690.886719 415.472656 692.0625 416.59375 693.214844 417.746094 C 694.367188 418.898438 695.488281 420.074219 696.582031 421.28125 C 697.675781 422.488281 698.738281 423.71875 699.769531 424.980469 C 700.800781 426.238281 701.804688 427.519531 702.773438 428.828125 C 703.742188 430.136719 704.679688 431.464844 705.585938 432.820312 C 706.488281 434.171875 707.359375 435.546875 708.195312 436.945312 C 709.03125 438.339844 709.835938 439.757812 710.601562 441.191406 C 711.367188 442.628906 712.101562 444.082031 712.796875 445.554688 C 713.492188 447.023438 714.152344 448.511719 714.773438 450.015625 C 715.398438 451.519531 715.984375 453.039062 716.53125 454.574219 C 717.082031 456.105469 717.589844 457.652344 718.0625 459.207031 C 718.535156 460.765625 718.96875 462.335938 719.363281 463.914062 C 719.761719 465.492188 720.117188 467.082031 720.433594 468.679688 C 720.753906 470.273438 721.03125 471.878906 721.269531 473.488281 C 721.507812 475.097656 721.707031 476.714844 721.867188 478.335938 C 722.027344 479.953125 722.144531 481.578125 722.226562 483.203125 C 722.304688 484.828125 722.34375 486.457031 722.34375 488.085938 Z M 722.34375 488.085938 " fill-opacity="1" fill-rule="nonzero"/></g><path fill="#d5d5d5" d="M 667.898438 443.0625 C 668.632812 443.800781 669.351562 444.554688 670.050781 445.328125 C 670.753906 446.101562 671.433594 446.890625 672.09375 447.695312 C 672.753906 448.5 673.394531 449.320312 674.015625 450.15625 C 674.636719 450.996094 675.234375 451.847656 675.816406 452.714844 C 676.394531 453.578125 676.949219 454.460938 677.488281 455.351562 C 678.023438 456.246094 678.535156 457.152344 679.027344 458.074219 C 679.519531 458.992188 679.984375 459.921875 680.433594 460.863281 C 680.878906 461.804688 681.300781 462.757812 681.699219 463.722656 C 682.097656 464.683594 682.472656 465.65625 682.824219 466.636719 C 683.171875 467.617188 683.5 468.605469 683.800781 469.605469 C 684.105469 470.601562 684.382812 471.605469 684.636719 472.617188 C 684.890625 473.628906 685.117188 474.644531 685.320312 475.664062 C 685.523438 476.6875 685.703125 477.714844 685.855469 478.746094 C 686.007812 479.777344 686.136719 480.808594 686.238281 481.847656 C 686.339844 482.882812 686.414062 483.921875 686.46875 484.964844 C 686.519531 486.003906 686.542969 487.046875 686.542969 488.085938 C 686.542969 489.128906 686.519531 490.171875 686.46875 491.210938 C 686.414062 492.253906 686.339844 493.292969 686.238281 494.328125 C 686.136719 495.367188 686.007812 496.398438 685.855469 497.429688 C 685.703125 498.460938 685.523438 499.488281 685.320312 500.507812 C 685.117188 501.53125 684.890625 502.546875 684.636719 503.558594 C 684.382812 504.570312 684.105469 505.574219 683.800781 506.570312 C 683.5 507.566406 683.171875 508.558594 682.824219 509.539062 C 682.472656 510.519531 682.097656 511.492188 681.699219 512.453125 C 681.300781 513.417969 680.878906 514.367188 680.433594 515.308594 C 679.984375 516.253906 679.519531 517.183594 679.027344 518.101562 C 678.535156 519.019531 678.023438 519.925781 677.488281 520.820312 C 676.949219 521.714844 676.394531 522.59375 675.816406 523.460938 C 675.234375 524.328125 674.636719 525.179688 674.015625 526.015625 C 673.394531 526.855469 672.753906 527.675781 672.09375 528.480469 C 671.433594 529.285156 670.753906 530.074219 670.050781 530.847656 C 669.351562 531.617188 668.632812 532.375 667.898438 533.109375 C 667.160156 533.847656 666.40625 534.566406 665.636719 535.265625 C 664.863281 535.964844 664.074219 536.644531 663.269531 537.304688 C 662.464844 537.96875 661.640625 538.609375 660.804688 539.230469 C 659.96875 539.851562 659.117188 540.449219 658.25 541.027344 C 657.386719 541.609375 656.503906 542.164062 655.609375 542.699219 C 654.71875 543.234375 653.8125 543.75 652.890625 544.242188 C 651.972656 544.730469 651.042969 545.199219 650.101562 545.644531 C 649.160156 546.089844 648.207031 546.515625 647.246094 546.914062 C 646.28125 547.3125 645.3125 547.6875 644.328125 548.039062 C 643.347656 548.386719 642.359375 548.714844 641.363281 549.015625 C 640.367188 549.320312 639.363281 549.597656 638.351562 549.851562 C 637.339844 550.105469 636.324219 550.332031 635.300781 550.535156 C 634.28125 550.738281 633.253906 550.917969 632.222656 551.070312 C 631.195312 551.222656 630.160156 551.351562 629.121094 551.453125 C 628.085938 551.554688 627.046875 551.632812 626.007812 551.683594 C 624.964844 551.734375 623.925781 551.757812 622.882812 551.757812 C 621.839844 551.757812 620.800781 551.734375 619.757812 551.683594 C 618.71875 551.632812 617.679688 551.554688 616.644531 551.453125 C 615.605469 551.351562 614.574219 551.222656 613.542969 551.070312 C 612.511719 550.917969 611.484375 550.738281 610.464844 550.535156 C 609.441406 550.332031 608.425781 550.105469 607.414062 549.851562 C 606.402344 549.597656 605.398438 549.320312 604.402344 549.015625 C 603.40625 548.714844 602.417969 548.386719 601.4375 548.039062 C 600.457031 547.6875 599.484375 547.3125 598.519531 546.914062 C 597.558594 546.515625 596.605469 546.089844 595.664062 545.644531 C 594.722656 545.199219 593.792969 544.730469 592.875 544.242188 C 591.953125 543.75 591.046875 543.234375 590.15625 542.699219 C 589.261719 542.164062 588.382812 541.609375 587.515625 541.027344 C 586.648438 540.449219 585.796875 539.851562 584.960938 539.230469 C 584.125 538.609375 583.300781 537.96875 582.496094 537.304688 C 581.691406 536.644531 580.902344 535.964844 580.132812 535.265625 C 579.359375 534.566406 578.605469 533.847656 577.867188 533.109375 C 577.132812 532.375 576.414062 531.617188 575.714844 530.847656 C 575.015625 530.074219 574.332031 529.285156 573.671875 528.480469 C 573.011719 527.675781 572.371094 526.855469 571.75 526.015625 C 571.128906 525.179688 570.53125 524.328125 569.949219 523.460938 C 569.371094 522.59375 568.816406 521.714844 568.28125 520.820312 C 567.742188 519.925781 567.230469 519.019531 566.738281 518.101562 C 566.25 517.183594 565.78125 516.253906 565.335938 515.308594 C 564.890625 514.367188 564.46875 513.417969 564.066406 512.453125 C 563.667969 511.492188 563.292969 510.519531 562.945312 509.539062 C 562.59375 508.558594 562.265625 507.566406 561.964844 506.570312 C 561.660156 505.574219 561.382812 504.570312 561.128906 503.558594 C 560.875 502.546875 560.648438 501.53125 560.445312 500.507812 C 560.242188 499.488281 560.0625 498.460938 559.910156 497.429688 C 559.757812 496.398438 559.632812 495.367188 559.527344 494.328125 C 559.425781 493.292969 559.351562 492.253906 559.300781 491.210938 C 559.246094 490.171875 559.222656 489.128906 559.222656 488.085938 C 559.222656 487.046875 559.246094 486.003906 559.300781 484.964844 C 559.351562 483.921875 559.425781 482.882812 559.527344 481.847656 C 559.632812 480.808594 559.757812 479.777344 559.910156 478.746094 C 560.0625 477.714844 560.242188 476.6875 560.445312 475.664062 C 560.648438 474.644531 560.878906 473.628906 561.128906 472.617188 C 561.382812 471.605469 561.660156 470.601562 561.964844 469.605469 C 562.265625 468.605469 562.59375 467.617188 562.945312 466.636719 C 563.292969 465.65625 563.667969 464.683594 564.066406 463.722656 C 564.46875 462.757812 564.890625 461.804688 565.335938 460.863281 C 565.78125 459.921875 566.25 458.992188 566.738281 458.074219 C 567.230469 457.152344 567.742188 456.246094 568.28125 455.351562 C 568.816406 454.460938 569.371094 453.578125 569.949219 452.714844 C 570.53125 451.847656 571.128906 450.996094 571.75 450.15625 C 572.371094 449.320312 573.011719 448.5 573.671875 447.695312 C 574.332031 446.890625 575.015625 446.101562 575.714844 445.328125 C 576.414062 444.554688 577.132812 443.800781 577.867188 443.0625 C 578.605469 442.328125 579.359375 441.609375 580.132812 440.910156 C 580.902344 440.210938 581.691406 439.527344 582.496094 438.867188 C 583.300781 438.207031 584.125 437.566406 584.960938 436.945312 C 585.796875 436.324219 586.648438 435.726562 587.515625 435.144531 C 588.382812 434.566406 589.261719 434.011719 590.15625 433.472656 C 591.046875 432.9375 591.953125 432.425781 592.875 431.933594 C 593.792969 431.441406 594.722656 430.972656 595.664062 430.527344 C 596.605469 430.082031 597.558594 429.660156 598.519531 429.261719 C 599.484375 428.863281 600.457031 428.488281 601.4375 428.136719 C 602.417969 427.785156 603.40625 427.460938 604.402344 427.15625 C 605.398438 426.855469 606.402344 426.578125 607.414062 426.324219 C 608.425781 426.070312 609.441406 425.84375 610.464844 425.640625 C 611.484375 425.433594 612.511719 425.257812 613.542969 425.105469 C 614.574219 424.953125 615.605469 424.824219 616.644531 424.722656 C 617.679688 424.621094 618.71875 424.542969 619.757812 424.492188 C 620.800781 424.441406 621.839844 424.414062 622.882812 424.414062 C 623.925781 424.414062 624.964844 424.441406 626.007812 424.492188 C 627.046875 424.542969 628.085938 424.621094 629.121094 424.722656 C 630.160156 424.824219 631.195312 424.953125 632.222656 425.105469 C 633.253906 425.257812 634.28125 425.433594 635.300781 425.640625 C 636.324219 425.84375 637.339844 426.070312 638.351562 426.324219 C 639.363281 426.578125 640.367188 426.855469 641.363281 427.15625 C 642.359375 427.460938 643.347656 427.785156 644.328125 428.136719 C 645.3125 428.488281 646.28125 428.863281 647.246094 429.261719 C 648.207031 429.660156 649.160156 430.082031 650.101562 430.527344 C 651.042969 430.972656 651.972656 431.441406 652.890625 431.933594 C 653.8125 432.425781 654.71875 432.9375 655.609375 433.472656 C 656.503906 434.011719 657.386719 434.566406 658.25 435.144531 C 659.117188 435.726562 659.96875 436.324219 660.804688 436.945312 C 661.640625 437.566406 662.464844 438.207031 663.269531 438.867188 C 664.074219 439.527344 664.863281 440.210938 665.636719 440.910156 C 666.40625 441.609375 667.160156 442.328125 667.898438 443.0625 Z M 667.898438 443.0625 " fill-opacity="1" fill-rule="nonzero"/><path fill="#d5d5d5" d="M 729.917969 312.359375 C 722.613281 313.863281 714.417969 314.542969 705.609375 314.652344 C 677.867188 280.210938 646.761719 247.960938 612.765625 217.601562 C 620.320312 213.769531 628.410156 210.894531 637.046875 208.960938 C 637.238281 209.117188 637.429688 209.28125 637.617188 209.449219 C 674.300781 242.339844 705.777344 276.757812 729.917969 312.359375 Z M 729.917969 312.359375 " fill-opacity="1" fill-rule="nonzero"/><path fill="#d66500" d="M 758.816406 363.246094 C 699.5625 323.304688 629.003906 319.445312 573.007812 353.605469 C 516.601562 388.011719 489.53125 451.191406 500.578125 522.628906 L 495.851562 523.359375 C 490.101562 486.160156 494.554688 450.128906 508.714844 419.160156 C 521.984375 390.183594 543.355469 366.097656 570.523438 349.535156 C 626.082031 315.640625 695.492188 318.050781 754.914062 355.023438 L 754.914062 355.035156 C 756.261719 357.765625 757.5625 360.488281 758.816406 363.246094 Z M 758.816406 363.246094 " fill-opacity="1" fill-rule="nonzero"/><path fill="#d66500" d="M 320.367188 520.0625 L 315.640625 519.359375 C 328.859375 429.753906 274.03125 361.730469 213.046875 340.835938 C 164.515625 324.210938 97.769531 332.875 55.960938 407.046875 L 55.78125 407.355469 L 55.519531 407.605469 C 47.726562 414.96875 39.984375 420.136719 32.382812 423.023438 C 32.488281 422.058594 32.605469 421.089844 32.726562 420.125 C 32.835938 419.277344 32.941406 418.417969 33.074219 417.570312 C 39.242188 414.8125 45.566406 410.410156 51.984375 404.382812 C 95.238281 327.964844 164.316406 319.101562 214.585938 336.320312 C 248.234375 347.847656 277.550781 371.457031 297.136719 402.808594 C 318.574219 437.167969 326.609375 477.707031 320.367188 520.0625 Z M 320.367188 520.0625 " fill-opacity="1" fill-rule="nonzero"/><path fill="#d66500" d="M 490.09375 291.238281 L 485.53125 292.632812 C 491.9375 313.617188 497.015625 335.992188 490.875 357.476562 C 488.371094 366.226562 484.308594 373.800781 480.007812 381.816406 C 478.25 385.089844 476.433594 388.472656 474.734375 391.941406 C 469.257812 403.125 464.992188 416.503906 462.402344 430.628906 C 457.085938 459.609375 457.113281 490.8125 462.472656 523.378906 L 467.183594 522.605469 C 461.910156 490.582031 461.882812 459.929688 467.097656 431.492188 C 469.609375 417.789062 473.734375 404.839844 479.023438 394.042969 C 480.683594 390.65625 482.476562 387.3125 484.210938 384.078125 C 488.445312 376.191406 492.820312 368.035156 495.460938 358.792969 C 501.949219 336.109375 496.714844 312.921875 490.09375 291.238281 Z M 490.09375 291.238281 " fill-opacity="1" fill-rule="nonzero"/><path fill="#d66500" d="M 463.5 353.78125 L 428.691406 353.78125 C 426.066406 353.78125 423.933594 351.652344 423.933594 349.023438 L 423.933594 343.03125 C 423.933594 340.40625 426.0625 338.273438 428.691406 338.273438 L 463.5 338.273438 C 466.128906 338.273438 468.257812 340.402344 468.257812 343.03125 L 468.257812 349.023438 C 468.257812 351.652344 466.128906 353.78125 463.5 353.78125 Z M 463.5 353.78125 " fill-opacity="1" fill-rule="nonzero"/><path fill="#1c2627" d="M 72.128906 464.066406 L 72.128906 492.078125 C 72.128906 493.507812 71.914062 494.902344 71.507812 496.207031 C 69.742188 501.851562 64.480469 505.945312 58.261719 505.945312 L 31.023438 505.945312 C 30.9375 505.3125 30.902344 504.667969 30.902344 504.023438 L 30.902344 455.675781 L 63.742188 455.675781 C 68.367188 455.675781 72.128906 459.4375 72.128906 464.066406 Z M 72.128906 464.066406 " fill-opacity="1" fill-rule="nonzero"/><path fill="#e17d05" d="M 30.902344 467.730469 L 76.496094 467.730469 L 76.496094 474.664062 L 30.902344 474.664062 Z M 30.902344 467.730469 " fill-opacity="1" fill-rule="nonzero"/><path fill="#e17d05" d="M 30.902344 488.078125 L 76.496094 488.078125 L 76.496094 495.011719 L 30.902344 495.011719 Z M 30.902344 488.078125 " fill-opacity="1" fill-rule="nonzero"/><g clip-path="url(#ea33566de8)"><path fill="#1c2627" d="M 789.792969 428.992188 L 789.792969 478.484375 C 789.792969 478.746094 789.792969 478.996094 789.78125 479.257812 L 757.898438 479.257812 C 753.265625 479.257812 749.507812 475.5 749.507812 470.867188 L 749.507812 442.855469 C 749.507812 441.855469 749.613281 440.863281 749.832031 439.921875 C 749.902344 439.515625 750.011719 439.121094 750.128906 438.726562 C 751.894531 433.082031 757.160156 428.988281 763.375 428.988281 L 789.792969 428.988281 Z M 789.792969 428.992188 " fill-opacity="1" fill-rule="nonzero"/></g><g clip-path="url(#50ab803471)"><path fill="#e17d05" d="M 745.140625 460.269531 L 789.792969 460.269531 L 789.792969 467.207031 L 745.140625 467.207031 Z M 745.140625 460.269531 " fill-opacity="1" fill-rule="nonzero"/></g><g clip-path="url(#af10198cbb)"><path fill="#e17d05" d="M 745.140625 439.921875 L 789.792969 439.921875 L 789.792969 446.859375 L 745.140625 446.859375 Z M 745.140625 439.921875 " fill-opacity="1" fill-rule="nonzero"/></g><path fill="#d5d5d5" d="M 347.546875 217.050781 C 313.683594 244.570312 284.546875 277.054688 259.453125 313.742188 C 251.148438 311.710938 243.808594 309.050781 237.746094 305.53125 C 265.046875 269.191406 295.5 235.714844 330.507812 206.429688 C 331.570312 205.53125 332.773438 204.816406 334.078125 204.304688 C 340.101562 207.453125 344.660156 211.65625 347.546875 217.050781 Z M 347.546875 217.050781 " fill-opacity="1" fill-rule="nonzero"/><path fill="#d5d5d5" d="M 281.886719 321.21875 L 647.058594 311.003906 C 630.863281 245.324219 589.511719 221.335938 507.703125 212.851562 C 348.992188 199.648438 330.039062 243.136719 281.886719 321.21875 Z M 281.886719 321.21875 " fill-opacity="1" fill-rule="nonzero"/><path fill="#e17d05" d="M 475.828125 206.023438 L 487.972656 206.023438 L 487.972656 325.703125 L 475.828125 325.703125 Z M 475.828125 206.023438 " fill-opacity="1" fill-rule="nonzero"/><path fill="#f5d543" d="M 62.246094 374.207031 C 62.8125 374.445312 63.351562 374.726562 63.871094 375.058594 C 64.394531 375.386719 64.890625 375.761719 65.363281 376.179688 C 65.835938 376.601562 66.28125 377.066406 66.703125 377.574219 C 67.125 378.078125 67.515625 378.625 67.882812 379.214844 C 68.246094 379.804688 68.582031 380.429688 68.886719 381.09375 C 69.191406 381.757812 69.464844 382.457031 69.710938 383.191406 C 69.953125 383.925781 70.164062 384.691406 70.339844 385.488281 C 70.519531 386.285156 70.664062 387.109375 70.773438 387.960938 C 70.882812 388.8125 70.960938 389.6875 71.003906 390.585938 C 71.050781 391.484375 71.058594 392.402344 71.035156 393.339844 C 71.007812 394.273438 70.949219 395.226562 70.859375 396.191406 C 70.765625 397.15625 70.640625 398.132812 70.480469 399.117188 C 70.320312 400.101562 70.128906 401.089844 69.90625 402.085938 C 69.679688 403.082031 69.421875 404.078125 69.136719 405.074219 C 68.847656 406.070312 68.527344 407.0625 68.179688 408.046875 C 67.832031 409.035156 67.453125 410.011719 67.050781 410.980469 C 66.644531 411.949219 66.210938 412.902344 65.753906 413.84375 C 65.292969 414.785156 64.808594 415.707031 64.300781 416.609375 C 63.792969 417.515625 63.265625 418.394531 62.714844 419.253906 C 62.160156 420.113281 61.589844 420.945312 61 421.75 C 60.410156 422.550781 59.804688 423.328125 59.179688 424.070312 C 58.558594 424.8125 57.921875 425.519531 57.269531 426.195312 C 56.621094 426.871094 55.960938 427.503906 55.289062 428.105469 C 54.621094 428.703125 53.941406 429.261719 53.257812 429.78125 C 52.570312 430.296875 51.882812 430.773438 51.191406 431.207031 C 50.5 431.636719 49.804688 432.023438 49.113281 432.367188 C 48.417969 432.707031 47.726562 433.003906 47.039062 433.25 C 46.351562 433.5 45.671875 433.699219 44.996094 433.855469 C 44.320312 434.007812 43.65625 434.109375 42.996094 434.164062 C 42.339844 434.222656 41.699219 434.226562 41.066406 434.183594 C 40.433594 434.144531 39.820312 434.050781 39.21875 433.910156 C 38.621094 433.773438 38.039062 433.585938 37.476562 433.347656 C 36.914062 433.113281 36.371094 432.828125 35.851562 432.5 C 35.328125 432.171875 34.832031 431.796875 34.359375 431.375 C 33.886719 430.953125 33.441406 430.492188 33.019531 429.984375 C 32.597656 429.476562 32.207031 428.929688 31.839844 428.339844 C 31.476562 427.753906 31.140625 427.125 30.835938 426.460938 C 30.53125 425.796875 30.257812 425.097656 30.011719 424.363281 C 29.769531 423.628906 29.5625 422.863281 29.382812 422.066406 C 29.207031 421.269531 29.0625 420.445312 28.949219 419.59375 C 28.839844 418.742188 28.761719 417.867188 28.71875 416.96875 C 28.671875 416.070312 28.664062 415.15625 28.6875 414.21875 C 28.714844 413.28125 28.773438 412.332031 28.863281 411.367188 C 28.957031 410.402344 29.082031 409.425781 29.242188 408.441406 C 29.402344 407.457031 29.59375 406.464844 29.816406 405.46875 C 30.042969 404.476562 30.300781 403.480469 30.585938 402.484375 C 30.875 401.488281 31.195312 400.496094 31.542969 399.507812 C 31.890625 398.523438 32.269531 397.542969 32.671875 396.578125 C 33.078125 395.609375 33.511719 394.652344 33.96875 393.710938 C 34.429688 392.773438 34.914062 391.851562 35.421875 390.945312 C 35.929688 390.042969 36.457031 389.160156 37.007812 388.300781 C 37.5625 387.445312 38.132812 386.613281 38.722656 385.808594 C 39.3125 385.003906 39.917969 384.230469 40.542969 383.488281 C 41.164062 382.746094 41.800781 382.035156 42.453125 381.363281 C 43.101562 380.6875 43.761719 380.050781 44.433594 379.453125 C 45.105469 378.851562 45.78125 378.292969 46.464844 377.777344 C 47.152344 377.257812 47.839844 376.785156 48.53125 376.351562 C 49.226562 375.917969 49.917969 375.53125 50.609375 375.191406 C 51.304688 374.847656 51.996094 374.554688 52.683594 374.304688 C 53.371094 374.054688 54.050781 373.855469 54.726562 373.703125 C 55.402344 373.550781 56.070312 373.445312 56.726562 373.390625 C 57.382812 373.335938 58.023438 373.328125 58.65625 373.371094 C 59.289062 373.414062 59.902344 373.503906 60.503906 373.644531 C 61.101562 373.785156 61.683594 373.972656 62.246094 374.207031 Z M 62.246094 374.207031 " fill-opacity="1" fill-rule="nonzero"/></svg>