<svg xmlns="http://www.w3.org/2000/svg" xmlns:xlink="http://www.w3.org/1999/xlink" width="1080" zoomAndPan="magnify" viewBox="0 0 810 809.999993" height="1080" preserveAspectRatio="xMidYMid meet" version="1.0"><defs><clipPath id="00a91aef8b"><path d="M 485 504 L 754 504 L 754 772.4375 L 485 772.4375 Z M 485 504 " clip-rule="nonzero"/></clipPath><clipPath id="57a0135a74"><path d="M 78 504 L 347 504 L 347 772.4375 L 78 772.4375 Z M 78 504 " clip-rule="nonzero"/></clipPath></defs><path fill="#d3d2d2" d="M 503.417969 700.664062 C 496.574219 707.90625 487.316406 724.816406 481.273438 734.484375 C 475.238281 744.140625 461.152344 741.324219 457.523438 745.351562 C 453.898438 749.375 450.679688 762.261719 475.238281 763.066406 C 499.792969 763.863281 510.667969 757.824219 510.667969 757.824219 C 510.667969 757.824219 527.570312 746.558594 536.425781 743.335938 C 545.285156 740.117188 562.1875 737.703125 563.800781 733.277344 C 565.414062 728.84375 555.347656 705.902344 550.519531 698.25 C 545.6875 690.601562 503.417969 700.664062 503.417969 700.664062 " fill-opacity="1" fill-rule="evenodd"/><path fill="#ffffff" d="M 458.84375 755.261719 C 458.210938 750.589844 456.933594 747.191406 467.753906 744.222656 C 478.578125 741.257812 482.824219 740.191406 487.699219 730.007812 C 492.582031 719.824219 502.769531 710.273438 502.769531 710.273438 C 502.769531 710.273438 497.039062 719.613281 493.007812 728.953125 C 488.976562 738.28125 485.789062 742.738281 474.757812 745.5 C 463.722656 748.253906 460.121094 749.320312 458.84375 755.261719 " fill-opacity="1" fill-rule="evenodd"/><path fill="#acaeb1" d="M 549.234375 702.640625 C 557.722656 719.402344 562.386719 728.738281 558.144531 731.707031 C 553.902344 734.675781 539.472656 735.105469 525.46875 744.867188 C 511.464844 754.621094 510.832031 756.320312 496.1875 758.652344 C 481.546875 760.992188 477.726562 760.773438 477.726562 760.773438 C 477.726562 760.773438 505.3125 755.683594 515.285156 746.769531 C 525.257812 737.859375 540.53125 731.496094 547.75 728.308594 C 554.957031 725.132812 541.171875 702.640625 542.230469 702.640625 C 543.292969 702.640625 549.445312 702.640625 549.234375 702.640625 " fill-opacity="1" fill-rule="evenodd"/><path fill="#0e0f0e" d="M 450.488281 643.28125 L 468.738281 703.117188 C 469.253906 704.8125 468.300781 706.605469 466.609375 707.125 C 464.910156 707.640625 463.117188 706.679688 462.597656 704.988281 L 444.355469 645.160156 C 443.839844 643.460938 444.792969 641.671875 446.484375 641.152344 C 448.183594 640.636719 449.972656 641.589844 450.488281 643.28125 " fill-opacity="1" fill-rule="evenodd"/><path fill="#0e0f0e" d="M 450.453125 702.957031 L 480.671875 696.132812 L 483.574219 708.964844 L 453.355469 715.792969 L 450.453125 702.957031 " fill-opacity="1" fill-rule="evenodd"/><path fill="#0e0f0e" d="M 424.507812 525.144531 C 432.554688 548.894531 436.179688 565.402344 432.554688 567.816406 C 428.933594 570.234375 409.207031 584.726562 395.925781 578.289062 C 382.644531 571.84375 383.851562 540.847656 385.058594 538.03125 C 386.265625 535.210938 424.507812 525.144531 424.507812 525.144531 " fill-opacity="1" fill-rule="evenodd"/><path fill="#0e0f0e" d="M 490.941406 387.46875 C 480.46875 440.605469 488.523438 505.019531 498.183594 567.816406 C 507.851562 630.621094 497.378906 701.46875 497.378906 701.46875 L 555.347656 699.859375 C 555.347656 699.859375 569.039062 581.507812 563.402344 551.71875 C 557.761719 521.925781 551.324219 496.160156 551.324219 496.160156 L 561.792969 414.039062 C 561.792969 414.039062 591.582031 363.316406 579.5 341.582031 C 567.429688 319.84375 490.941406 387.46875 490.941406 387.46875 " fill-opacity="1" fill-rule="evenodd"/><path fill="#0e0f0e" d="M 542.644531 408.199219 C 524.535156 454.09375 525.339844 454.09375 525.339844 454.09375 L 509.636719 450.875 L 502.394531 450.070312 L 518.183594 408.601562 L 542.644531 408.199219 " fill-opacity="1" fill-rule="evenodd"/><g clip-path="url(#00a91aef8b)"><path fill="#1f1f20" d="M 619.578125 525.355469 C 682.046875 525.355469 732.695312 576.003906 732.695312 638.472656 C 732.695312 700.941406 682.046875 751.589844 619.578125 751.589844 C 557.105469 751.589844 506.457031 700.941406 506.457031 638.472656 C 506.457031 576.003906 557.105469 525.355469 619.578125 525.355469 Z M 619.578125 504.421875 C 545.539062 504.421875 485.523438 564.441406 485.523438 638.472656 C 485.523438 712.511719 545.539062 772.527344 619.578125 772.527344 C 693.609375 772.527344 753.632812 712.511719 753.632812 638.472656 C 753.632812 564.441406 693.609375 504.421875 619.578125 504.421875 " fill-opacity="1" fill-rule="evenodd"/></g><g clip-path="url(#57a0135a74)"><path fill="#1f1f20" d="M 212.175781 525.355469 C 274.65625 525.355469 325.296875 576.003906 325.296875 638.472656 C 325.296875 700.941406 274.65625 751.589844 212.175781 751.589844 C 149.707031 751.589844 99.058594 700.941406 99.058594 638.472656 C 99.058594 576.003906 149.707031 525.355469 212.175781 525.355469 Z M 212.175781 504.421875 C 138.144531 504.421875 78.125 564.441406 78.125 638.472656 C 78.125 712.511719 138.144531 772.527344 212.175781 772.527344 C 286.214844 772.527344 346.238281 712.511719 346.238281 638.472656 C 346.238281 564.441406 286.214844 504.421875 212.175781 504.421875 " fill-opacity="1" fill-rule="evenodd"/></g><path fill="#0e0f0e" d="M 466.96875 404.578125 C 471.398438 414.234375 493.539062 414.644531 522.121094 417.457031 C 550.703125 420.273438 584.113281 403.773438 586.125 393.300781 C 588.136719 382.835938 562.777344 380.824219 549.496094 382.03125 C 536.207031 383.238281 466.96875 404.578125 466.96875 404.578125 " fill-opacity="1" fill-rule="evenodd"/><path fill="#812024" d="M 338.183594 454.90625 C 466.191406 464.964844 483.90625 464.964844 486.320312 476.234375 C 488.738281 487.511719 464.582031 576.882812 456.53125 597.8125 C 448.484375 618.746094 446.875 617.136719 438.816406 617.136719 C 430.769531 617.136719 329.722656 494.351562 312.007812 473.828125 C 294.300781 453.289062 319.660156 453.289062 338.183594 454.90625 Z M 300.746094 417.058594 C 293.898438 415.457031 284.238281 417.058594 285.847656 423.507812 C 287.457031 429.945312 287.457031 433.566406 287.457031 433.566406 L 269.742188 479.460938 C 269.742188 479.460938 258.070312 489.53125 252.4375 502.410156 C 246.796875 515.289062 204.128906 634.851562 204.128906 634.851562 C 204.128906 634.851562 203.726562 647.730469 212.578125 642.496094 C 221.433594 637.265625 272.960938 506.835938 272.960938 506.835938 C 272.960938 506.835938 284.238281 502.007812 285.042969 496.371094 C 285.847656 490.730469 290.679688 477.851562 290.679688 477.851562 C 290.679688 477.851562 433.988281 662.226562 437.207031 667.054688 C 440.425781 671.882812 454.117188 676.714844 458.949219 663.835938 C 463.777344 650.957031 509.671875 506.03125 509.671875 506.03125 C 509.671875 506.03125 617.15625 650.144531 621.1875 647.328125 C 625.210938 644.511719 519.738281 481.46875 519.738281 481.46875 L 537.449219 427.53125 L 508.867188 423.902344 L 501.621094 439.203125 L 304.765625 433.96875 C 304.765625 433.96875 323.285156 417.863281 300.746094 417.058594 " fill-opacity="1" fill-rule="evenodd"/><path fill="#0e0f0e" d="M 257.28125 382.570312 C 266.085938 402.933594 264.949219 419.535156 275.378906 420.210938 C 285.808594 420.902344 314.257812 423.527344 314.257812 423.527344 L 315.488281 409.332031 L 284.285156 405.730469 L 275.664062 380.390625 L 257.28125 382.570312 " fill-opacity="1" fill-rule="evenodd"/><path fill="#80872c" d="M 262.410156 345.171875 C 262.410156 345.171875 252.164062 346.902344 247.234375 350.703125 C 242.300781 354.496094 241.183594 356.222656 240.164062 356.433594 C 239.140625 356.652344 231.988281 357.945312 235.828125 371.140625 C 242.253906 393.234375 240.875 389.242188 260.125 384.707031 C 260.125 384.707031 257.777344 390.714844 260.828125 390.074219 C 263.875 389.433594 276.75 376.863281 278.316406 371.222656 C 279.886719 365.585938 278.542969 361.199219 278.542969 361.199219 C 278.542969 361.199219 305.179688 336.589844 329.136719 321.355469 C 353.101562 306.125 409.152344 225.558594 409.152344 225.558594 C 409.152344 225.558594 429.882812 164.734375 418.121094 153.203125 C 406.347656 141.667969 381.238281 139.324219 368.699219 180.585938 C 356.15625 221.855469 339.027344 251.355469 339.027344 251.355469 C 339.027344 251.355469 305.03125 297.570312 262.410156 345.171875 " fill-opacity="1" fill-rule="evenodd"/><path fill="#966546" d="M 262.410156 345.171875 C 262.410156 345.171875 252.164062 346.902344 247.234375 350.703125 C 242.300781 354.496094 241.183594 356.222656 240.164062 356.433594 C 239.140625 356.652344 231.988281 357.945312 235.828125 371.140625 C 242.253906 393.234375 240.875 389.242188 260.125 384.707031 C 260.125 384.707031 257.777344 390.714844 260.828125 390.074219 C 263.875 389.433594 276.75 376.863281 278.316406 371.222656 C 279.886719 365.585938 278.542969 361.199219 278.542969 361.199219 L 278.5625 361.179688 C 274.769531 358.5 268.175781 352.324219 262.664062 344.882812 L 262.410156 345.171875 " fill-opacity="1" fill-rule="evenodd"/><path fill="#d3925d" d="M 483.757812 166.398438 C 461 153.933594 438.101562 140.539062 426.476562 137.707031 C 414.859375 134.882812 382.5625 129.707031 382.078125 127.40625 C 381.601562 125.113281 360.003906 81.722656 337.941406 74.867188 C 315.890625 68.007812 289.871094 87.863281 287.964844 99.289062 C 286.054688 110.714844 285.691406 111.265625 288.824219 115.886719 C 291.945312 120.496094 295.296875 123.867188 293.207031 131.023438 C 291.113281 138.171875 289.199219 143.847656 294.53125 144.160156 C 299.875 144.472656 299.875 144.472656 299.875 144.472656 C 299.976562 145.496094 311.925781 173.777344 314.984375 174.125 C 319.402344 174.636719 334.164062 169.609375 338.003906 171.914062 C 341.84375 174.226562 371.578125 174.296875 373.925781 187.699219 C 376.265625 201.105469 378.058594 230.113281 378.058594 230.113281 C 378.058594 230.113281 451.109375 221.921875 483.757812 166.398438 " fill-opacity="1" fill-rule="evenodd"/><path fill="#966546" d="M 412.488281 134.792969 C 398.84375 132.125 382.425781 129.042969 382.078125 127.40625 C 381.601562 125.113281 360.003906 81.722656 337.941406 74.867188 C 315.890625 68.007812 289.871094 87.863281 287.964844 99.289062 C 287.558594 101.675781 287.234375 103.59375 286.988281 105.167969 C 299.464844 101.136719 315.625 108.578125 325.089844 125.625 C 334.640625 142.816406 336.550781 162.339844 330.398438 165.945312 C 326.066406 168.484375 318.898438 171.234375 314.886719 174.113281 C 314.921875 174.117188 314.949219 174.125 314.984375 174.125 C 319.402344 174.636719 334.164062 169.609375 338.003906 171.914062 C 341.492188 174.007812 366.273438 174.261719 372.601562 184.289062 C 374.023438 181.226562 375.535156 176.5625 374.957031 173.792969 C 374.109375 169.761719 387.683594 149.179688 404.664062 144.515625 C 421.632812 139.847656 401.902344 145.148438 401.902344 145.148438 C 401.902344 145.148438 407.023438 140.523438 412.488281 134.792969 " fill-opacity="1" fill-rule="evenodd"/><path fill="#242324" d="M 342.4375 41.558594 C 331.03125 37.496094 296.886719 44.921875 286.414062 60.066406 C 275.945312 75.214844 269.6875 97.863281 274.457031 101.171875 C 279.230469 104.480469 285.894531 104.273438 285.894531 104.273438 C 285.894531 104.273438 296.367188 98.238281 305.5 100.625 C 314.632812 103.019531 332.144531 124.738281 337.691406 131.71875 C 343.230469 138.703125 336.058594 170.652344 332.746094 175.421875 C 329.4375 180.191406 329.4375 180.191406 329.4375 180.191406 L 338.488281 183.320312 C 338.488281 183.320312 345.820312 171.472656 347.488281 158.894531 C 349.15625 146.320312 348.222656 131.65625 348.222656 131.65625 L 359.382812 116.371094 L 365.945312 128.171875 L 387.261719 125.835938 L 379.640625 108.988281 L 383.40625 104.117188 L 380.496094 93.710938 C 380.496094 93.710938 392.972656 76.703125 392.527344 73.441406 C 392.078125 70.183594 377.382812 62.964844 377.382812 62.964844 L 382.636719 45.804688 C 382.636719 45.804688 350.480469 41.070312 342.4375 41.558594 " fill-opacity="1" fill-rule="evenodd"/><path fill="#0e0f0e" d="M 282.246094 104.007812 C 284.359375 104.324219 285.894531 104.273438 285.894531 104.273438 C 285.894531 104.273438 296.367188 98.238281 305.5 100.625 C 314.632812 103.019531 332.144531 124.738281 337.691406 131.71875 C 343.230469 138.703125 336.058594 170.652344 332.746094 175.421875 C 329.4375 180.191406 329.4375 180.191406 329.4375 180.191406 L 338.488281 183.320312 C 338.488281 183.320312 345.820312 171.472656 347.488281 158.894531 C 349.15625 146.320312 348.222656 131.65625 348.222656 131.65625 L 359.382812 116.371094 L 365.945312 128.171875 L 387.261719 125.835938 L 379.640625 108.988281 L 383.40625 104.117188 L 380.496094 93.710938 C 380.496094 93.710938 392.972656 76.703125 392.527344 73.441406 C 392.078125 70.183594 377.382812 62.964844 377.382812 62.964844 L 382.636719 45.804688 C 382.636719 45.804688 366.3125 43.402344 354.015625 42.195312 C 352.050781 43.109375 350.222656 44.171875 348.570312 45.414062 C 365.753906 49.023438 373.394531 46.476562 365.542969 56.238281 C 357.699219 65.992188 339.019531 70.660156 347.71875 73.421875 C 356.421875 76.179688 362.152344 81.273438 353.667969 87.214844 C 345.175781 93.15625 341.566406 95.066406 341.566406 95.066406 C 341.566406 95.066406 326.714844 104.617188 325.015625 106.519531 C 323.316406 108.429688 315.253906 98.246094 307.828125 97.1875 C 301.367188 96.261719 288.316406 96.628906 282.246094 104.007812 " fill-opacity="1" fill-rule="evenodd"/><path fill="#d3925d" d="M 329.054688 110.054688 C 342.300781 128.59375 342.207031 128.128906 342.207031 128.128906 C 342.207031 128.128906 352.144531 115.011719 353.003906 113.394531 C 353.863281 111.773438 349.503906 99.03125 343.742188 97.847656 C 337.976562 96.664062 336.714844 103.164062 336.714844 103.164062 L 329.054688 110.054688 " fill-opacity="1" fill-rule="evenodd"/><path fill="#1f1f20" d="M 511.070312 311.785156 C 498.484375 312.359375 475.375 315.300781 448.8125 321.867188 C 400.578125 333.792969 342.894531 353.792969 329.914062 365.738281 C 309.785156 384.25 308.980469 384.25 328.304688 436.582031 C 347.621094 488.914062 373.386719 552.519531 373.386719 552.519531 C 394.464844 547.082031 420.652344 543.050781 434.582031 525.152344 L 382.25 419.671875 C 382.25 419.671875 509.460938 416.453125 542.46875 393.914062 C 575.476562 371.371094 585.144531 348.023438 585.144531 338.355469 C 585.144531 328.695312 560.175781 303.738281 511.070312 311.785156 " fill-opacity="1" fill-rule="evenodd"/><path fill="#d3d2d2" d="M 391.90625 546.882812 C 380.230469 548.894531 380.230469 553.328125 374.996094 564.195312 C 369.765625 575.0625 358.09375 587.144531 351.648438 589.15625 C 345.207031 591.167969 334.339844 595.191406 339.574219 605.664062 C 344.804688 616.125 363.324219 616.929688 390.296875 608.875 C 417.269531 600.832031 454.710938 584.324219 454.710938 584.324219 C 454.710938 584.324219 443.035156 546.480469 439.410156 543.664062 C 435.789062 540.847656 429.746094 543.261719 429.746094 543.261719 C 429.746094 543.261719 435.378906 562.988281 421.292969 562.988281 C 407.199219 562.988281 398.75 564.597656 398.75 556.953125 C 398.75 549.304688 393.917969 547.285156 391.90625 546.882812 " fill-opacity="1" fill-rule="evenodd"/><path fill="#9caa23" d="M 369.363281 182.167969 C 369.695312 188.804688 370.113281 194.28125 370.800781 199.214844 C 365.992188 218.839844 360.160156 240.585938 355.808594 256.472656 C 344.035156 299.40625 311.863281 329.800781 283.488281 365.546875 C 283.488281 365.546875 274.476562 367.621094 270.296875 371.253906 C 266.113281 374.890625 265.207031 376.480469 264.320312 376.726562 C 263.425781 376.964844 257.136719 378.484375 261.242188 390.011719 C 265.351562 401.542969 271.476562 406.4375 271.476562 406.4375 L 286.351562 401.992188 C 286.351562 401.992188 284.59375 407.457031 287.265625 406.726562 C 289.941406 405.996094 302.511719 397.523438 303.617188 392.433594 C 304.714844 387.347656 303.289062 383.519531 303.289062 383.519531 C 303.289062 383.519531 347.554688 349.824219 366.066406 336.453125 C 384.582031 323.082031 399.785156 287.585938 409.8125 272.878906 C 418.46875 282.011719 429.269531 291.65625 431.355469 296.890625 C 439.773438 318.007812 434.574219 325.476562 434.574219 325.476562 C 474.609375 314.554688 516.082031 362.285156 535.804688 368.425781 C 545.246094 371.355469 554.1875 373.101562 561.847656 373.210938 C 609.121094 373.847656 587.074219 305.496094 575.867188 281.007812 C 552.222656 229.359375 504.527344 174.144531 469.410156 153.648438 C 448.707031 141.566406 425.453125 126.664062 400.019531 131.042969 C 397.390625 131.492188 396.136719 122.1875 393.859375 123.28125 C 388.511719 125.859375 384.179688 136.21875 381.203125 142.636719 C 375.113281 155.808594 375.453125 168.988281 369.363281 182.167969 " fill-opacity="1" fill-rule="evenodd"/><path fill="#d3925d" d="M 283.488281 365.546875 C 283.488281 365.546875 274.476562 367.621094 270.296875 371.253906 C 266.113281 374.890625 265.207031 376.480469 264.320312 376.726562 C 263.425781 376.964844 257.136719 378.484375 261.242188 390.011719 C 266.085938 403.609375 267.804688 406.152344 279.785156 407.09375 L 286.351562 401.992188 C 286.351562 401.992188 284.59375 407.457031 287.265625 406.726562 C 289.941406 405.996094 302.511719 397.523438 303.617188 392.433594 C 304.714844 387.347656 303.289062 383.519531 303.289062 383.519531 C 302.238281 382.898438 297.238281 381.207031 293.40625 378.089844 C 290.300781 375.574219 288.25 371.570312 287.335938 370.75 C 285.492188 369.105469 284.695312 366.207031 283.488281 365.546875 " fill-opacity="1" fill-rule="evenodd"/><path fill="#656263" d="M 212.175781 623.984375 C 204.175781 623.984375 197.6875 630.472656 197.6875 638.472656 C 197.6875 646.476562 204.175781 652.960938 212.175781 652.960938 C 220.1875 652.960938 226.667969 646.476562 226.667969 638.472656 C 226.667969 630.472656 220.1875 623.984375 212.175781 623.984375 " fill-opacity="1" fill-rule="evenodd"/><path fill="#656263" d="M 619.578125 623.984375 C 611.574219 623.984375 605.089844 630.472656 605.089844 638.472656 C 605.089844 646.476562 611.574219 652.960938 619.578125 652.960938 C 627.578125 652.960938 634.066406 646.476562 634.066406 638.472656 C 634.066406 630.472656 627.578125 623.984375 619.578125 623.984375 " fill-opacity="1" fill-rule="evenodd"/><path fill="#242324" d="M 445.726562 604.753906 C 423.46875 604.753906 405.421875 622.804688 405.421875 645.070312 C 405.421875 667.335938 423.46875 685.382812 445.726562 685.382812 C 467.992188 685.382812 486.042969 667.335938 486.042969 645.070312 C 486.042969 622.804688 467.992188 604.753906 445.726562 604.753906 " fill-opacity="1" fill-rule="evenodd"/><path fill="#0e0f0e" d="M 445.726562 631.910156 C 438.464844 631.910156 432.578125 637.804688 432.578125 645.070312 C 432.578125 652.335938 438.464844 658.226562 445.726562 658.226562 C 453 658.226562 458.886719 652.335938 458.886719 645.070312 C 458.886719 637.804688 453 631.910156 445.726562 631.910156 " fill-opacity="1" fill-rule="evenodd"/><path fill="#0e0f0e" d="M 401.8125 606.945312 L 430.121094 594.367188 L 435.460938 606.386719 L 407.152344 618.964844 L 401.8125 606.945312 " fill-opacity="1" fill-rule="evenodd"/><path fill="#0e0f0e" d="M 420.25 605.199219 L 436.886719 644.40625 L 448.027344 640.355469 C 449.691406 639.75 451.53125 640.609375 452.132812 642.273438 C 452.738281 643.9375 451.886719 645.777344 450.214844 646.386719 L 443.21875 648.929688 C 442.863281 649.058594 436.347656 652.496094 433.839844 651.40625 C 431.152344 650.234375 415.878906 611.324219 414.34375 607.703125 C 413.648438 606.078125 414.410156 604.1875 416.042969 603.492188 C 417.679688 602.8125 419.554688 603.570312 420.25 605.199219 " fill-opacity="1" fill-rule="evenodd"/><path fill="#d6dd8d" d="M 376.832031 185.359375 C 374.097656 197.824219 364.289062 239.953125 356.046875 266.410156 C 345.898438 299.003906 314.769531 330.128906 291.332031 358.261719 C 289.941406 359.929688 286.15625 361.453125 287.292969 363.164062 L 290.269531 367.621094 C 290.269531 367.621094 355.195312 303.328125 364.101562 263.867188 C 373.011719 224.398438 378.53125 185.785156 392.535156 162.449219 C 406.539062 139.105469 416.722656 139.105469 416.722656 139.105469 C 416.722656 139.105469 388.292969 136.984375 376.832031 185.359375 " fill-opacity="1" fill-rule="evenodd"/><path fill="#80872c" d="M 437.507812 182.816406 C 423.933594 192.148438 398.46875 262.589844 383.195312 294.84375 C 367.917969 327.09375 339.90625 348.308594 339.90625 348.308594 C 339.90625 348.308594 374.703125 332.183594 392.527344 293.996094 C 410.351562 255.804688 412.472656 258.769531 431.144531 285.511719 C 449.8125 312.238281 439.207031 317.332031 439.207031 317.332031 C 439.207031 317.332031 456.183594 316.910156 478.675781 327.941406 C 501.164062 338.976562 505.832031 341.097656 505.832031 341.097656 C 505.832031 341.097656 473.578125 271.929688 457.453125 247.3125 C 441.328125 222.699219 437.507812 182.816406 437.507812 182.816406 " fill-opacity="1" fill-rule="evenodd"/><path fill="#80872c" d="M 441.328125 148.011719 C 493.09375 176.867188 542.324219 258.347656 551.65625 300.785156 C 560.996094 343.21875 547.414062 357.644531 547.414062 357.644531 C 547.414062 357.644531 576.269531 372.925781 585.605469 346.617188 C 594.945312 320.304688 526.199219 176.867188 441.328125 148.011719 " fill-opacity="1" fill-rule="evenodd"/><path fill="#9caa23" d="M 272.527344 345.851562 C 279.738281 338.640625 319.199219 299.179688 333.210938 274.5625 C 347.207031 249.953125 347.207031 248.253906 347.207031 248.253906 C 322.355469 282.726562 298.195312 312.058594 269.074219 342.203125 C 267.96875 343.347656 264.53125 344.582031 265.730469 345.648438 L 269.339844 348.828125 L 272.527344 345.851562 " fill-opacity="1" fill-rule="evenodd"/><path fill="#f1bf95" d="M 289.246094 105.863281 C 289.320312 116.097656 293.578125 119.269531 294.628906 125.277344 C 295.097656 127.964844 295.601562 129.015625 293.632812 135.339844 C 292.410156 139.253906 291.953125 141.839844 294.546875 142.507812 C 297.152344 143.175781 300.222656 141.480469 302.105469 144.117188 C 303.988281 146.75 310.308594 165.324219 310.308594 165.324219 C 310.308594 165.324219 305.5 140.90625 303.523438 139.976562 C 301.542969 139.050781 295.195312 139.488281 296.457031 136.210938 C 297.71875 132.933594 298.480469 127.121094 296.96875 123.605469 C 295.453125 120.09375 292.199219 113.3125 289.246094 105.863281 " fill-opacity="1" fill-rule="evenodd"/><path fill="#80872c" d="M 394.152344 126.371094 C 398.613281 132.523438 397.761719 133.585938 403.488281 132.523438 C 409.21875 131.464844 396.914062 132.734375 390.972656 144.195312 C 385.03125 155.652344 379.511719 172.203125 379.511719 172.203125 C 379.511719 172.203125 375.269531 153.742188 394.152344 126.371094 " fill-opacity="1" fill-rule="evenodd"/><path fill="#74757d" d="M 444.648438 329.84375 C 376.75 344.277344 312.671875 367.1875 320.308594 394.351562 C 327.949219 421.507812 375.898438 545.417969 375.898438 545.417969 L 389.910156 543.296875 C 389.910156 543.296875 317.765625 416.417969 329.648438 385.859375 C 341.53125 355.308594 444.648438 329.84375 444.648438 329.84375 " fill-opacity="1" fill-rule="evenodd"/><path fill="#0e0f0e" d="M 414.097656 534.808594 C 409.382812 520.015625 377.179688 443.601562 365.257812 414.660156 C 361.730469 406.097656 366.457031 401.800781 375.113281 400.804688 C 401.765625 397.75 457.140625 390.457031 482.414062 380.347656 C 516.363281 366.765625 485.808594 348.097656 473.082031 339.609375 C 460.347656 331.117188 490.054688 337.914062 505.332031 354.882812 C 520.605469 371.863281 536.308594 374.828125 544.371094 375.675781 C 552.433594 376.527344 556.675781 377.378906 556.675781 377.378906 C 556.675781 377.378906 537.15625 400.292969 484.957031 405.804688 C 432.765625 411.324219 381.84375 412.167969 378.027344 417.265625 C 374.207031 422.359375 422.152344 510.621094 422.152344 510.621094 L 429.792969 524.625 C 429.792969 524.625 414.089844 539.050781 414.097656 534.808594 " fill-opacity="1" fill-rule="evenodd"/><path fill="#ed1c24" d="M 293.570312 423.207031 C 294.417969 434.449219 294.417969 434.449219 294.417969 434.449219 L 273.414062 484.945312 C 273.414062 484.945312 258.34375 502.769531 253.042969 516.773438 C 247.738281 530.777344 213.789062 619.890625 213.789062 619.890625 C 213.789062 619.890625 211.988281 622.75 211.140625 620.738281 C 210.289062 618.726562 213.574219 612.253906 213.574219 612.253906 L 254.523438 501.917969 L 272.136719 479.003906 L 288.898438 433.8125 L 288.050781 422.566406 L 293.570312 423.207031 " fill-opacity="1" fill-rule="evenodd"/><path fill="#461517" d="M 535.230469 429.78125 C 515.285156 483.671875 515.285156 483.671875 515.285156 483.671875 L 580.210938 577.878906 L 507.644531 480.273438 L 521.226562 428.507812 L 535.230469 429.78125 " fill-opacity="1" fill-rule="evenodd"/><path fill="#461517" d="M 472.425781 609.707031 C 507.644531 502.769531 507.644531 502.769531 507.644531 502.769531 L 500.433594 493.429688 L 466.90625 607.585938 L 472.425781 609.707031 " fill-opacity="1" fill-rule="evenodd"/><path fill="#ffffff" d="M 388.402344 552.414062 C 378.214844 558.78125 379.492188 567.695312 369.730469 578.300781 C 359.96875 588.917969 350.84375 591.03125 345.753906 594.429688 C 340.664062 597.824219 340.875 603.765625 343.421875 606.734375 C 345.964844 609.707031 350.417969 609.917969 350.417969 609.917969 C 350.417969 609.917969 341.511719 601.003906 351.695312 596.125 C 361.878906 591.25 371.640625 585.730469 375.882812 577.246094 C 380.125 568.753906 380.125 560.265625 388.402344 552.414062 " fill-opacity="1" fill-rule="evenodd"/><path fill="#acaeb1" d="M 434.445312 546.472656 C 439.109375 546.902344 443.355469 558.570312 446.75 571.085938 C 450.148438 583.609375 450.148438 583.609375 450.148438 583.609375 C 450.148438 583.609375 396.253906 606.097656 382.25 608.433594 C 368.242188 610.765625 363.789062 608.644531 363.789062 608.644531 C 363.789062 608.644531 425.746094 588.273438 435.078125 583.1875 C 444.417969 578.089844 434.445312 546.472656 434.445312 546.472656 " fill-opacity="1" fill-rule="evenodd"/><path fill="#ffffff" d="M 133.144531 739.550781 C 87.195312 699.246094 69.496094 637.496094 96.214844 581.230469 C 119.488281 532.183594 169.476562 502.558594 223.957031 510.402344 C 200.859375 510.824219 184.605469 511.542969 162.824219 520.824219 C 113.179688 542.007812 81.683594 599.78125 88.371094 652.714844 C 92.996094 689.355469 110.4375 712.230469 133.144531 739.550781 " fill-opacity="1" fill-rule="evenodd"/><path fill="#0e0f0e" d="M 717.90625 557.933594 C 767.730469 615.125 756.210938 697.390625 697.339844 742.464844 C 667.148438 765.574219 626.683594 770.621094 590.601562 759.925781 C 610.417969 761.960938 624.222656 764.566406 644.945312 761.265625 C 698.652344 752.71875 740.132812 701.3125 745.273438 648.371094 C 748.78125 612.265625 737.054688 587.304688 717.90625 557.933594 " fill-opacity="1" fill-rule="evenodd"/><path fill="#74757d" d="M 417.425781 624.550781 C 411.347656 639.375 408.886719 652.523438 420.613281 665.765625 C 432.039062 678.671875 448.429688 681.203125 463.429688 672.75 L 469.625 668.683594 L 464.089844 673.78125 C 443.761719 688.589844 414.574219 675.859375 410.644531 650.96875 C 408.886719 639.816406 411.867188 633.601562 417.425781 624.550781 " fill-opacity="1" fill-rule="evenodd"/><path fill="#74757d" d="M 283.011719 99.625 C 281.101562 100.585938 275.371094 100.15625 275.261719 97.398438 C 275.160156 94.644531 281.734375 58.574219 302.949219 50.078125 C 324.171875 41.59375 338.597656 42.871094 338.597656 42.871094 C 338.597656 42.871094 312.078125 47.542969 298.714844 59.425781 C 285.34375 71.300781 277.28125 94.21875 285.34375 95.066406 C 293.40625 95.914062 302.105469 93.578125 302.105469 93.578125 L 283.011719 99.625 " fill-opacity="1" fill-rule="evenodd"/></svg>