<svg xmlns="http://www.w3.org/2000/svg" xmlns:xlink="http://www.w3.org/1999/xlink" width="1080" zoomAndPan="magnify" viewBox="0 0 810 809.999993" height="1080" preserveAspectRatio="xMidYMid meet" version="1.0"><defs><clipPath id="eb28bbe09b"><path d="M 31.675781 306.921875 L 778.675781 306.921875 L 778.675781 557.421875 L 31.675781 557.421875 Z M 31.675781 306.921875 " clip-rule="nonzero"/></clipPath><clipPath id="89a2efb183"><path d="M 0.675781 198 L 4 198 L 4 225 L 0.675781 225 Z M 0.675781 198 " clip-rule="nonzero"/></clipPath><clipPath id="1bda1380f3"><path d="M 160 0.921875 L 726 0.921875 L 726 183 L 160 183 Z M 160 0.921875 " clip-rule="nonzero"/></clipPath><clipPath id="1a5d8de5fc"><path d="M 742 191 L 747.324219 191 L 747.324219 213 L 742 213 Z M 742 191 " clip-rule="nonzero"/></clipPath><clipPath id="dd813546f6"><path d="M 47 191 L 108 191 L 108 251.421875 L 47 251.421875 Z M 47 191 " clip-rule="nonzero"/></clipPath><clipPath id="a9764afd7e"><path d="M 278 191 L 339 191 L 339 251.421875 L 278 251.421875 Z M 278 191 " clip-rule="nonzero"/></clipPath><clipPath id="3b2acfd028"><path d="M 308 238 L 310 238 L 310 251.421875 L 308 251.421875 Z M 308 238 " clip-rule="nonzero"/></clipPath><clipPath id="cbb79e736f"><path d="M 213 191 L 274 191 L 274 251.421875 L 213 251.421875 Z M 213 191 " clip-rule="nonzero"/></clipPath><clipPath id="cefbc1f7e9"><path d="M 242 238 L 244 238 L 244 251.421875 L 242 251.421875 Z M 242 238 " clip-rule="nonzero"/></clipPath><clipPath id="044ffc499a"><path d="M 511 191 L 572 191 L 572 251.421875 L 511 251.421875 Z M 511 191 " clip-rule="nonzero"/></clipPath><clipPath id="20c7f18484"><path d="M 541 238 L 543 238 L 543 251.421875 L 541 251.421875 Z M 541 238 " clip-rule="nonzero"/></clipPath><clipPath id="8a2ae891cd"><path d="M 578 191 L 639 191 L 639 251.421875 L 578 251.421875 Z M 578 191 " clip-rule="nonzero"/></clipPath><clipPath id="a109494910"><rect x="0" width="748" y="0" height="252"/></clipPath></defs><g clip-path="url(#eb28bbe09b)"><g transform="matrix(1, 0, 0, 1, 31, 306)"><g clip-path="url(#a109494910)"><path fill="#494949" d="M 278.015625 197.027344 L 202.226562 197.027344 L 202.226562 188.441406 L 278.015625 188.441406 Z M 278.015625 197.027344 " fill-opacity="1" fill-rule="nonzero"/><path fill="#494949" d="M 481.070312 197.027344 L 405.28125 197.027344 L 405.28125 188.441406 L 481.070312 188.441406 Z M 481.070312 197.027344 " fill-opacity="1" fill-rule="nonzero"/><path fill="#494949" d="M 684.125 197.027344 L 608.335938 197.027344 L 608.335938 188.441406 L 684.125 188.441406 Z M 684.125 197.027344 " fill-opacity="1" fill-rule="nonzero"/><g clip-path="url(#89a2efb183)"><path fill="#ffce00" d="M 3.464844 224.226562 L 2.03125 224.226562 L 0.601562 222.792969 L 0.601562 199.890625 L 2.03125 198.460938 L 3.464844 198.460938 Z M 3.464844 224.226562 " fill-opacity="1" fill-rule="nonzero"/></g><path fill="#355100" d="M 143.597656 202.753906 L 126.441406 202.753906 L 126.441406 95.398438 L 143.597656 95.398438 Z M 143.597656 202.753906 " fill-opacity="1" fill-rule="nonzero"/><path fill="#355100" d="M 146.460938 202.753906 L 129.300781 202.753906 L 129.300781 128.320312 L 146.460938 128.320312 Z M 146.460938 202.753906 " fill-opacity="1" fill-rule="nonzero"/><path fill="#355100" d="M 50.652344 119.730469 L 24.914062 99.691406 L 23.484375 99.691406 L 23.484375 101.125 L 30.632812 108.28125 L 30.632812 109.710938 L 14.902344 101.125 L 12.042969 115.4375 L 20.621094 128.320312 L 42.070312 118.300781 L 47.792969 122.59375 L 50.652344 122.59375 Z M 50.652344 119.730469 " fill-opacity="1" fill-rule="nonzero"/><path fill="#355100" d="M 12.042969 229.953125 L 7.753906 229.953125 C 4.894531 229.953125 3.464844 227.089844 3.464844 224.226562 L 3.464844 169.832031 C 3.464844 168.402344 4.894531 165.539062 7.753906 165.539062 L 12.042969 165.539062 Z M 12.042969 229.953125 " fill-opacity="1" fill-rule="nonzero"/><path fill="#628421" d="M 102.128906 62.476562 L 30.632812 62.476562 C 22.050781 78.21875 17.761719 95.398438 14.902344 115.4375 L 33.492188 115.4375 C 37.78125 115.4375 40.640625 112.574219 42.070312 109.710938 C 43.503906 106.847656 46.363281 103.984375 49.222656 103.984375 L 102.128906 103.984375 Z M 135.019531 48.160156 L 135.019531 197.027344 L 6.324219 197.027344 L 6.324219 174.125 C 6.324219 131.183594 10.613281 75.359375 39.210938 46.730469 L 132.160156 46.730469 C 133.589844 46.730469 135.019531 46.730469 135.019531 48.160156 Z M 135.019531 48.160156 " fill-opacity="1" fill-rule="nonzero"/><path fill="#000000" d="M 737.03125 228.519531 L 135.019531 228.519531 L 135.019531 191.304688 L 737.03125 191.304688 Z M 737.03125 228.519531 " fill-opacity="1" fill-rule="nonzero"/><path fill="#355100" d="M 130.730469 66.769531 L 106.421875 66.769531 L 107.851562 65.335938 L 130.730469 65.335938 L 132.160156 66.769531 Z M 130.730469 66.769531 " fill-opacity="1" fill-rule="nonzero"/><path fill="#355100" d="M 130.730469 71.0625 L 106.421875 71.0625 L 107.851562 69.632812 L 130.730469 69.632812 L 132.160156 71.0625 Z M 130.730469 71.0625 " fill-opacity="1" fill-rule="nonzero"/><path fill="#355100" d="M 130.730469 76.789062 L 107.851562 76.789062 L 106.421875 75.359375 L 107.851562 73.925781 L 130.730469 73.925781 L 132.160156 75.359375 Z M 130.730469 76.789062 " fill-opacity="1" fill-rule="nonzero"/><path fill="#355100" d="M 130.730469 81.082031 L 107.851562 81.082031 L 106.421875 79.652344 L 107.851562 78.21875 L 130.730469 78.21875 L 132.160156 79.652344 Z M 130.730469 81.082031 " fill-opacity="1" fill-rule="nonzero"/><path fill="#355100" d="M 130.730469 85.378906 L 107.851562 85.378906 L 106.421875 83.945312 L 132.160156 83.945312 Z M 130.730469 85.378906 " fill-opacity="1" fill-rule="nonzero"/><path fill="#355100" d="M 130.730469 89.671875 L 107.851562 89.671875 L 106.421875 88.242188 L 132.160156 88.242188 Z M 130.730469 89.671875 " fill-opacity="1" fill-rule="nonzero"/><path fill="#355100" d="M 130.730469 93.964844 L 106.421875 93.964844 L 107.851562 92.535156 L 130.730469 92.535156 L 132.160156 93.964844 Z M 130.730469 93.964844 " fill-opacity="1" fill-rule="nonzero"/><path fill="#355100" d="M 130.730469 98.261719 L 106.421875 98.261719 L 107.851562 96.828125 L 130.730469 96.828125 L 132.160156 98.261719 Z M 130.730469 98.261719 " fill-opacity="1" fill-rule="nonzero"/><path fill="#006e8e" d="M 76.390625 144.066406 L 66.382812 144.066406 C 64.953125 144.066406 63.519531 142.632812 63.519531 139.773438 L 79.25 139.773438 C 79.25 142.632812 77.820312 144.066406 76.390625 144.066406 Z M 76.390625 144.066406 " fill-opacity="1" fill-rule="nonzero"/><path fill="#000000" d="M 66.382812 136.910156 L 76.390625 136.910156 C 77.820312 136.910156 79.25 138.339844 79.25 141.203125 L 62.089844 141.203125 C 62.089844 138.339844 64.953125 136.910156 66.382812 136.910156 Z M 66.382812 136.910156 " fill-opacity="1" fill-rule="nonzero"/><g clip-path="url(#1bda1380f3)"><path fill="#fe6259" d="M 725.59375 182.714844 L 160.757812 182.714844 L 160.757812 0.921875 L 725.59375 0.921875 Z M 725.59375 182.714844 " fill-opacity="1" fill-rule="nonzero"/></g><path fill="#aa0908" d="M 717.011719 176.988281 L 167.910156 176.988281 L 167.910156 6.648438 L 717.011719 6.648438 Z M 717.011719 176.988281 " fill-opacity="1" fill-rule="nonzero"/><path fill="#303030" d="M 725.59375 188.441406 L 160.757812 188.441406 L 160.757812 182.714844 L 725.59375 182.714844 Z M 725.59375 188.441406 " fill-opacity="1" fill-rule="nonzero"/><path fill="#000000" d="M 742.75 212.773438 L 737.03125 212.773438 L 737.03125 191.304688 L 742.75 191.304688 Z M 742.75 212.773438 " fill-opacity="1" fill-rule="nonzero"/><g clip-path="url(#1a5d8de5fc)"><path fill="#ff0000" d="M 747.042969 212.773438 L 742.75 212.773438 L 742.75 191.304688 L 747.042969 191.304688 Z M 747.042969 212.773438 " fill-opacity="1" fill-rule="nonzero"/></g><path fill="#355100" d="M 6.324219 197.027344 L 302.324219 197.027344 L 302.324219 232.816406 L 10.613281 232.816406 C 7.753906 232.816406 6.324219 231.382812 6.324219 228.519531 Z M 6.324219 197.027344 " fill-opacity="1" fill-rule="nonzero"/><path fill="#000000" d="M 109.28125 232.816406 C 110.710938 229.953125 110.710938 225.65625 110.710938 221.363281 C 110.710938 201.324219 96.410156 187.007812 77.820312 187.007812 C 59.230469 187.007812 44.933594 201.324219 44.933594 221.363281 C 44.933594 225.65625 44.933594 229.953125 46.363281 232.816406 Z M 109.28125 232.816406 " fill-opacity="1" fill-rule="nonzero"/><g clip-path="url(#dd813546f6)"><path fill="#000000" d="M 107.851562 221.363281 C 107.851562 238.539062 93.550781 251.421875 77.820312 251.421875 C 60.660156 251.421875 47.792969 238.539062 47.792969 221.363281 C 47.792969 205.617188 60.660156 191.304688 77.820312 191.304688 C 93.550781 191.304688 107.851562 205.617188 107.851562 221.363281 Z M 107.851562 221.363281 " fill-opacity="1" fill-rule="nonzero"/><path fill="#262626" d="M 107.851562 221.363281 C 107.851562 238.539062 93.550781 251.421875 77.820312 251.421875 C 60.660156 251.421875 47.792969 238.539062 47.792969 221.363281 C 47.792969 205.617188 60.660156 191.304688 77.820312 191.304688 C 93.550781 191.304688 107.851562 205.617188 107.851562 221.363281 Z M 107.851562 221.363281 " fill-opacity="1" fill-rule="nonzero"/><path fill="#262626" d="M 107.851562 221.363281 C 107.851562 238.539062 93.550781 251.421875 77.820312 251.421875 C 60.660156 251.421875 47.792969 238.539062 47.792969 221.363281 C 47.792969 205.617188 60.660156 191.304688 77.820312 191.304688 C 93.550781 191.304688 107.851562 205.617188 107.851562 221.363281 Z M 107.851562 221.363281 " fill-opacity="1" fill-rule="nonzero"/></g><path fill="#000000" d="M 94.980469 221.363281 C 94.980469 222.792969 97.839844 222.792969 100.699219 222.792969 C 103.558594 222.792969 106.421875 222.792969 106.421875 221.363281 C 106.421875 221.363281 103.558594 221.363281 100.699219 221.363281 C 97.839844 221.363281 94.980469 221.363281 94.980469 221.363281 Z M 94.980469 221.363281 " fill-opacity="1" fill-rule="nonzero"/><path fill="#000000" d="M 60.660156 221.363281 C 60.660156 221.363281 57.800781 221.363281 54.941406 221.363281 C 52.082031 221.363281 49.222656 221.363281 49.222656 221.363281 C 49.222656 222.792969 52.082031 222.792969 54.941406 222.792969 C 57.800781 222.792969 60.660156 222.792969 60.660156 221.363281 Z M 60.660156 221.363281 " fill-opacity="1" fill-rule="nonzero"/><path fill="#000000" d="M 89.261719 209.910156 C 90.691406 209.910156 92.121094 208.480469 94.980469 205.617188 C 96.410156 204.1875 97.839844 201.324219 97.839844 201.324219 C 97.839844 201.324219 96.410156 202.753906 93.550781 205.617188 C 90.691406 207.050781 89.261719 209.910156 89.261719 209.910156 Z M 89.261719 209.910156 " fill-opacity="1" fill-rule="nonzero"/><path fill="#000000" d="M 64.953125 234.246094 C 64.953125 234.246094 63.519531 235.675781 60.660156 238.539062 C 59.230469 239.972656 56.371094 241.402344 57.800781 242.835938 C 57.800781 242.835938 59.230469 241.402344 62.089844 238.539062 C 63.519531 235.675781 64.953125 234.246094 64.953125 234.246094 Z M 64.953125 234.246094 " fill-opacity="1" fill-rule="nonzero"/><path fill="#000000" d="M 89.261719 234.246094 C 89.261719 234.246094 90.691406 235.675781 93.550781 238.539062 C 96.410156 241.402344 97.839844 242.835938 97.839844 242.835938 C 97.839844 241.402344 96.410156 239.972656 94.980469 238.539062 C 92.121094 235.675781 90.691406 234.246094 89.261719 234.246094 Z M 89.261719 234.246094 " fill-opacity="1" fill-rule="nonzero"/><path fill="#000000" d="M 64.953125 209.910156 C 64.953125 209.910156 63.519531 207.050781 62.089844 205.617188 C 59.230469 202.753906 57.800781 201.324219 57.800781 201.324219 C 56.371094 201.324219 59.230469 204.1875 60.660156 205.617188 C 63.519531 208.480469 64.953125 209.910156 64.953125 209.910156 Z M 64.953125 209.910156 " fill-opacity="1" fill-rule="nonzero"/><path fill="#000000" d="M 87.832031 201.324219 C 87.832031 198.460938 89.261719 195.597656 89.261719 195.597656 C 89.261719 195.597656 87.832031 197.027344 86.402344 199.890625 C 84.972656 202.753906 83.539062 205.617188 84.972656 205.617188 C 84.972656 205.617188 86.402344 204.1875 87.832031 201.324219 Z M 87.832031 201.324219 " fill-opacity="1" fill-rule="nonzero"/><path fill="#000000" d="M 67.8125 242.835938 C 66.382812 245.699219 66.382812 248.558594 66.382812 248.558594 C 66.382812 248.558594 67.8125 245.699219 69.242188 242.835938 C 70.671875 239.972656 70.671875 238.539062 70.671875 238.539062 C 70.671875 237.109375 69.242188 239.972656 67.8125 242.835938 Z M 67.8125 242.835938 " fill-opacity="1" fill-rule="nonzero"/><path fill="#000000" d="M 99.269531 229.953125 C 96.410156 228.519531 93.550781 228.519531 93.550781 228.519531 C 93.550781 228.519531 96.410156 229.953125 99.269531 231.382812 C 102.128906 232.816406 103.558594 232.816406 103.558594 232.816406 C 104.988281 232.816406 102.128906 231.382812 99.269531 229.953125 Z M 99.269531 229.953125 " fill-opacity="1" fill-rule="nonzero"/><path fill="#000000" d="M 56.371094 212.773438 C 59.230469 214.207031 62.089844 215.636719 62.089844 215.636719 C 62.089844 214.207031 59.230469 214.207031 56.371094 212.773438 C 53.511719 211.34375 50.652344 209.910156 50.652344 209.910156 C 50.652344 211.34375 53.511719 212.773438 56.371094 212.773438 Z M 56.371094 212.773438 " fill-opacity="1" fill-rule="nonzero"/><path fill="#000000" d="M 93.550781 215.636719 C 93.550781 215.636719 96.410156 214.207031 99.269531 214.207031 C 102.128906 212.773438 104.988281 211.34375 104.988281 211.34375 C 103.558594 211.34375 102.128906 211.34375 99.269531 212.773438 C 96.410156 214.207031 93.550781 215.636719 93.550781 215.636719 Z M 93.550781 215.636719 " fill-opacity="1" fill-rule="nonzero"/><path fill="#000000" d="M 62.089844 228.519531 C 62.089844 228.519531 59.230469 228.519531 56.371094 229.953125 C 53.511719 231.382812 50.652344 232.816406 50.652344 232.816406 C 50.652344 232.816406 53.511719 232.816406 56.371094 231.382812 C 59.230469 229.953125 62.089844 228.519531 62.089844 228.519531 Z M 62.089844 228.519531 " fill-opacity="1" fill-rule="nonzero"/><path fill="#000000" d="M 83.539062 238.539062 C 83.539062 238.539062 84.972656 239.972656 86.402344 242.835938 C 86.402344 247.128906 87.832031 248.558594 87.832031 248.558594 C 89.261719 248.558594 87.832031 245.699219 86.402344 242.835938 C 84.972656 239.972656 84.972656 238.539062 83.539062 238.539062 Z M 83.539062 238.539062 " fill-opacity="1" fill-rule="nonzero"/><path fill="#000000" d="M 66.382812 195.597656 C 66.382812 195.597656 67.8125 197.027344 69.242188 201.324219 C 69.242188 204.1875 70.671875 205.617188 70.671875 205.617188 C 72.101562 205.617188 70.671875 202.753906 69.242188 199.890625 C 67.8125 197.027344 66.382812 195.597656 66.382812 195.597656 Z M 66.382812 195.597656 " fill-opacity="1" fill-rule="nonzero"/><path fill="#000000" d="M 82.109375 199.890625 C 83.539062 195.597656 83.539062 194.167969 83.539062 194.167969 C 82.109375 194.167969 82.109375 195.597656 82.109375 198.460938 C 80.679688 202.753906 80.679688 204.1875 80.679688 204.1875 C 80.679688 204.1875 82.109375 202.753906 82.109375 199.890625 Z M 82.109375 199.890625 " fill-opacity="1" fill-rule="nonzero"/><path fill="#000000" d="M 72.101562 244.265625 C 72.101562 247.128906 72.101562 249.992188 72.101562 249.992188 C 72.101562 249.992188 73.53125 247.128906 73.53125 244.265625 C 74.960938 241.402344 74.960938 238.539062 74.960938 238.539062 C 73.53125 238.539062 73.53125 241.402344 72.101562 244.265625 Z M 72.101562 244.265625 " fill-opacity="1" fill-rule="nonzero"/><path fill="#000000" d="M 100.699219 225.65625 C 97.839844 225.65625 94.980469 224.226562 94.980469 225.65625 C 94.980469 225.65625 96.410156 225.65625 100.699219 227.089844 C 103.558594 227.089844 106.421875 227.089844 106.421875 227.089844 C 106.421875 227.089844 103.558594 225.65625 100.699219 225.65625 Z M 100.699219 225.65625 " fill-opacity="1" fill-rule="nonzero"/><path fill="#000000" d="M 54.941406 218.5 C 57.800781 218.5 60.660156 218.5 60.660156 218.5 C 60.660156 218.5 57.800781 217.070312 54.941406 217.070312 C 52.082031 217.070312 49.222656 215.636719 49.222656 217.070312 C 49.222656 217.070312 52.082031 217.070312 54.941406 218.5 Z M 54.941406 218.5 " fill-opacity="1" fill-rule="nonzero"/><path fill="#000000" d="M 92.121094 212.773438 C 92.121094 212.773438 94.980469 211.34375 96.410156 209.910156 C 99.269531 207.050781 102.128906 205.617188 102.128906 205.617188 C 100.699219 205.617188 99.269531 207.050781 96.410156 208.480469 C 93.550781 209.910156 92.121094 211.34375 92.121094 212.773438 Z M 92.121094 212.773438 " fill-opacity="1" fill-rule="nonzero"/><path fill="#000000" d="M 63.519531 231.382812 C 63.519531 231.382812 60.660156 232.816406 57.800781 234.246094 C 54.941406 235.675781 53.511719 238.539062 53.511719 238.539062 C 53.511719 238.539062 56.371094 237.109375 59.230469 235.675781 C 62.089844 232.816406 63.519531 231.382812 63.519531 231.382812 Z M 63.519531 231.382812 " fill-opacity="1" fill-rule="nonzero"/><path fill="#000000" d="M 87.832031 235.675781 C 87.832031 235.675781 87.832031 238.539062 90.691406 241.402344 C 92.121094 244.265625 93.550781 245.699219 93.550781 245.699219 C 93.550781 245.699219 92.121094 242.835938 90.691406 241.402344 C 89.261719 238.539062 87.832031 235.675781 87.832031 235.675781 Z M 87.832031 235.675781 " fill-opacity="1" fill-rule="nonzero"/><path fill="#000000" d="M 67.8125 207.050781 C 67.8125 207.050781 66.382812 205.617188 64.953125 202.753906 C 63.519531 199.890625 62.089844 198.460938 62.089844 198.460938 C 60.660156 198.460938 62.089844 199.890625 64.953125 202.753906 C 66.382812 205.617188 67.8125 207.050781 67.8125 207.050781 Z M 67.8125 207.050781 " fill-opacity="1" fill-rule="nonzero"/><path fill="#000000" d="M 87.832031 207.050781 C 87.832031 207.050781 89.261719 205.617188 90.691406 202.753906 C 92.121094 199.890625 93.550781 198.460938 93.550781 198.460938 C 93.550781 197.027344 92.121094 199.890625 90.691406 202.753906 C 87.832031 205.617188 86.402344 207.050781 87.832031 207.050781 Z M 87.832031 207.050781 " fill-opacity="1" fill-rule="nonzero"/><path fill="#000000" d="M 67.8125 235.675781 C 67.8125 235.675781 66.382812 238.539062 64.953125 241.402344 C 62.089844 242.835938 62.089844 245.699219 62.089844 245.699219 C 62.089844 245.699219 63.519531 244.265625 64.953125 241.402344 C 66.382812 238.539062 67.8125 237.109375 67.8125 235.675781 Z M 67.8125 235.675781 " fill-opacity="1" fill-rule="nonzero"/><path fill="#000000" d="M 96.410156 234.246094 C 94.980469 232.816406 92.121094 231.382812 92.121094 231.382812 C 92.121094 231.382812 93.550781 232.816406 96.410156 235.675781 C 99.269531 237.109375 102.128906 238.539062 102.128906 238.539062 C 102.128906 237.109375 99.269531 235.675781 96.410156 234.246094 Z M 96.410156 234.246094 " fill-opacity="1" fill-rule="nonzero"/><path fill="#000000" d="M 57.800781 209.910156 C 60.660156 211.34375 63.519531 212.773438 63.519531 212.773438 C 63.519531 211.34375 62.089844 209.910156 59.230469 208.480469 C 56.371094 207.050781 53.511719 205.617188 53.511719 205.617188 C 53.511719 205.617188 54.941406 207.050781 57.800781 209.910156 Z M 57.800781 209.910156 " fill-opacity="1" fill-rule="nonzero"/><path fill="#000000" d="M 94.980469 218.5 C 94.980469 218.5 97.839844 218.5 100.699219 218.5 C 103.558594 217.070312 106.421875 217.070312 106.421875 215.636719 C 106.421875 215.636719 103.558594 215.636719 100.699219 217.070312 C 96.410156 217.070312 94.980469 218.5 94.980469 218.5 Z M 94.980469 218.5 " fill-opacity="1" fill-rule="nonzero"/><path fill="#000000" d="M 60.660156 225.65625 C 60.660156 225.65625 57.800781 225.65625 54.941406 225.65625 C 52.082031 227.089844 49.222656 227.089844 49.222656 227.089844 C 49.222656 227.089844 52.082031 227.089844 54.941406 227.089844 C 57.800781 225.65625 60.660156 225.65625 60.660156 225.65625 Z M 60.660156 225.65625 " fill-opacity="1" fill-rule="nonzero"/><path fill="#000000" d="M 80.679688 238.539062 C 80.679688 238.539062 80.679688 241.402344 82.109375 244.265625 C 82.109375 247.128906 83.539062 249.992188 83.539062 249.992188 C 83.539062 249.992188 83.539062 247.128906 82.109375 244.265625 C 82.109375 241.402344 80.679688 238.539062 80.679688 238.539062 Z M 80.679688 238.539062 " fill-opacity="1" fill-rule="nonzero"/><path fill="#000000" d="M 74.960938 204.1875 C 74.960938 204.1875 74.960938 202.753906 73.53125 198.460938 C 73.53125 195.597656 72.101562 194.167969 72.101562 194.167969 C 72.101562 194.167969 72.101562 195.597656 72.101562 199.890625 C 73.53125 202.753906 73.53125 205.617188 74.960938 204.1875 Z M 74.960938 204.1875 " fill-opacity="1" fill-rule="nonzero"/><path fill="#6c6d6d" d="M 96.410156 221.363281 C 96.410156 232.816406 87.832031 241.402344 77.820312 241.402344 C 67.8125 241.402344 59.230469 232.816406 59.230469 221.363281 C 59.230469 211.34375 67.8125 202.753906 77.820312 202.753906 C 87.832031 202.753906 96.410156 211.34375 96.410156 221.363281 Z M 96.410156 221.363281 " fill-opacity="1" fill-rule="nonzero"/><path fill="#9e9e9e" d="M 93.550781 221.363281 C 93.550781 231.382812 86.402344 238.539062 77.820312 238.539062 C 69.242188 238.539062 62.089844 231.382812 62.089844 221.363281 C 62.089844 212.773438 69.242188 205.617188 77.820312 205.617188 C 86.402344 205.617188 93.550781 212.773438 93.550781 221.363281 Z M 93.550781 221.363281 " fill-opacity="1" fill-rule="nonzero"/><path fill="#494949" d="M 90.691406 221.363281 C 90.691406 228.519531 84.972656 234.246094 77.820312 234.246094 C 70.671875 234.246094 64.953125 228.519531 64.953125 221.363281 C 64.953125 214.207031 70.671875 208.480469 77.820312 208.480469 C 84.972656 208.480469 90.691406 214.207031 90.691406 221.363281 Z M 90.691406 221.363281 " fill-opacity="1" fill-rule="nonzero"/><path fill="#6c6d6d" d="M 89.261719 221.363281 C 89.261719 228.519531 83.539062 232.816406 77.820312 232.816406 C 72.101562 232.816406 66.382812 228.519531 66.382812 221.363281 C 66.382812 215.636719 72.101562 209.910156 77.820312 209.910156 C 83.539062 209.910156 89.261719 215.636719 89.261719 221.363281 Z M 89.261719 221.363281 " fill-opacity="1" fill-rule="nonzero"/><path fill="#9e9e9e" d="M 86.402344 221.363281 C 86.402344 227.089844 82.109375 229.953125 77.820312 229.953125 C 73.53125 229.953125 69.242188 227.089844 69.242188 221.363281 C 69.242188 217.070312 73.53125 212.773438 77.820312 212.773438 C 82.109375 212.773438 86.402344 217.070312 86.402344 221.363281 Z M 86.402344 221.363281 " fill-opacity="1" fill-rule="nonzero"/><g clip-path="url(#a9764afd7e)"><path fill="#000000" d="M 338.074219 221.363281 C 338.074219 238.539062 325.203125 251.421875 308.042969 251.421875 C 292.316406 251.421875 278.015625 238.539062 278.015625 221.363281 C 278.015625 205.617188 292.316406 191.304688 308.042969 191.304688 C 325.203125 191.304688 338.074219 205.617188 338.074219 221.363281 Z M 338.074219 221.363281 " fill-opacity="1" fill-rule="nonzero"/><path fill="#262626" d="M 338.074219 221.363281 C 338.074219 238.539062 325.203125 251.421875 308.042969 251.421875 C 292.316406 251.421875 278.015625 238.539062 278.015625 221.363281 C 278.015625 205.617188 292.316406 191.304688 308.042969 191.304688 C 325.203125 191.304688 338.074219 205.617188 338.074219 221.363281 Z M 338.074219 221.363281 " fill-opacity="1" fill-rule="nonzero"/><path fill="#262626" d="M 338.074219 221.363281 C 338.074219 238.539062 325.203125 251.421875 308.042969 251.421875 C 292.316406 251.421875 278.015625 238.539062 278.015625 221.363281 C 278.015625 205.617188 292.316406 191.304688 308.042969 191.304688 C 325.203125 191.304688 338.074219 205.617188 338.074219 221.363281 Z M 338.074219 221.363281 " fill-opacity="1" fill-rule="nonzero"/></g><path fill="#000000" d="M 308.042969 198.460938 C 308.042969 201.324219 308.042969 204.1875 308.042969 204.1875 C 309.472656 204.1875 309.472656 201.324219 309.472656 198.460938 C 309.472656 195.597656 309.472656 192.734375 308.042969 192.734375 C 308.042969 192.734375 308.042969 195.597656 308.042969 198.460938 Z M 308.042969 198.460938 " fill-opacity="1" fill-rule="nonzero"/><g clip-path="url(#3b2acfd028)"><path fill="#000000" d="M 308.042969 244.265625 C 308.042969 248.558594 308.042969 251.421875 308.042969 251.421875 C 309.472656 251.421875 309.472656 248.558594 309.472656 244.265625 C 309.472656 241.402344 309.472656 238.539062 308.042969 238.539062 C 308.042969 238.539062 308.042969 241.402344 308.042969 244.265625 Z M 308.042969 244.265625 " fill-opacity="1" fill-rule="nonzero"/></g><path fill="#000000" d="M 325.203125 221.363281 C 325.203125 222.792969 328.0625 222.792969 330.921875 222.792969 C 335.214844 222.792969 336.644531 222.792969 336.644531 221.363281 C 336.644531 221.363281 335.214844 221.363281 330.921875 221.363281 C 328.0625 221.363281 325.203125 221.363281 325.203125 221.363281 Z M 325.203125 221.363281 " fill-opacity="1" fill-rule="nonzero"/><path fill="#000000" d="M 290.886719 221.363281 C 290.886719 221.363281 288.023438 221.363281 285.164062 221.363281 C 282.304688 221.363281 279.445312 221.363281 279.445312 221.363281 C 279.445312 222.792969 282.304688 222.792969 285.164062 222.792969 C 288.023438 222.792969 290.886719 222.792969 290.886719 221.363281 Z M 290.886719 221.363281 " fill-opacity="1" fill-rule="nonzero"/><path fill="#000000" d="M 320.914062 209.910156 C 320.914062 209.910156 322.34375 208.480469 325.203125 205.617188 C 328.0625 204.1875 329.492188 201.324219 329.492188 201.324219 C 328.0625 201.324219 326.632812 202.753906 323.773438 205.617188 C 322.34375 207.050781 320.914062 209.910156 320.914062 209.910156 Z M 320.914062 209.910156 " fill-opacity="1" fill-rule="nonzero"/><path fill="#000000" d="M 296.605469 234.246094 C 296.605469 234.246094 293.746094 235.675781 292.316406 238.539062 C 289.453125 239.972656 288.023438 241.402344 288.023438 242.835938 C 288.023438 242.835938 290.886719 241.402344 292.316406 238.539062 C 295.175781 235.675781 296.605469 234.246094 296.605469 234.246094 Z M 296.605469 234.246094 " fill-opacity="1" fill-rule="nonzero"/><path fill="#000000" d="M 320.914062 234.246094 C 320.914062 234.246094 322.34375 235.675781 323.773438 238.539062 C 326.632812 241.402344 328.0625 242.835938 329.492188 242.835938 C 329.492188 241.402344 328.0625 239.972656 325.203125 238.539062 C 322.34375 235.675781 320.914062 234.246094 320.914062 234.246094 Z M 320.914062 234.246094 " fill-opacity="1" fill-rule="nonzero"/><path fill="#000000" d="M 296.605469 209.910156 C 296.605469 209.910156 295.175781 207.050781 292.316406 205.617188 C 290.886719 202.753906 288.023438 201.324219 288.023438 201.324219 C 288.023438 201.324219 289.453125 204.1875 292.316406 205.617188 C 293.746094 208.480469 296.605469 209.910156 296.605469 209.910156 Z M 296.605469 209.910156 " fill-opacity="1" fill-rule="nonzero"/><path fill="#000000" d="M 318.054688 201.324219 C 319.484375 198.460938 319.484375 195.597656 319.484375 195.597656 C 319.484375 195.597656 318.054688 197.027344 316.625 199.890625 C 315.195312 202.753906 315.195312 205.617188 315.195312 205.617188 C 315.195312 205.617188 316.625 204.1875 318.054688 201.324219 Z M 318.054688 201.324219 " fill-opacity="1" fill-rule="nonzero"/><path fill="#000000" d="M 299.464844 242.835938 C 298.035156 245.699219 296.605469 248.558594 296.605469 248.558594 C 298.035156 248.558594 298.035156 245.699219 299.464844 242.835938 C 300.894531 239.972656 302.324219 238.539062 302.324219 238.539062 C 300.894531 237.109375 300.894531 239.972656 299.464844 242.835938 Z M 299.464844 242.835938 " fill-opacity="1" fill-rule="nonzero"/><path fill="#000000" d="M 329.492188 229.953125 C 326.632812 228.519531 325.203125 228.519531 323.773438 228.519531 C 323.773438 228.519531 326.632812 229.953125 329.492188 231.382812 C 332.355469 232.816406 335.214844 232.816406 335.214844 232.816406 C 335.214844 232.816406 332.355469 231.382812 329.492188 229.953125 Z M 329.492188 229.953125 " fill-opacity="1" fill-rule="nonzero"/><path fill="#000000" d="M 286.59375 212.773438 C 289.453125 214.207031 292.316406 215.636719 292.316406 215.636719 C 292.316406 214.207031 290.886719 214.207031 288.023438 212.773438 C 285.164062 211.34375 282.304688 209.910156 282.304688 209.910156 C 282.304688 211.34375 283.734375 212.773438 286.59375 212.773438 Z M 286.59375 212.773438 " fill-opacity="1" fill-rule="nonzero"/><path fill="#000000" d="M 325.203125 215.636719 C 325.203125 215.636719 326.632812 214.207031 329.492188 214.207031 C 332.355469 212.773438 335.214844 211.34375 335.214844 211.34375 C 335.214844 211.34375 332.355469 211.34375 329.492188 212.773438 C 326.632812 214.207031 323.773438 215.636719 325.203125 215.636719 Z M 325.203125 215.636719 " fill-opacity="1" fill-rule="nonzero"/><path fill="#000000" d="M 292.316406 228.519531 C 292.316406 228.519531 289.453125 228.519531 286.59375 229.953125 C 283.734375 231.382812 282.304688 232.816406 282.304688 232.816406 C 282.304688 232.816406 283.734375 232.816406 286.59375 231.382812 C 290.886719 229.953125 292.316406 228.519531 292.316406 228.519531 Z M 292.316406 228.519531 " fill-opacity="1" fill-rule="nonzero"/><path fill="#000000" d="M 315.195312 238.539062 C 315.195312 238.539062 315.195312 239.972656 316.625 242.835938 C 318.054688 247.128906 319.484375 248.558594 319.484375 248.558594 C 319.484375 248.558594 319.484375 245.699219 318.054688 242.835938 C 316.625 239.972656 315.195312 238.539062 315.195312 238.539062 Z M 315.195312 238.539062 " fill-opacity="1" fill-rule="nonzero"/><path fill="#000000" d="M 298.035156 195.597656 C 298.035156 195.597656 298.035156 197.027344 299.464844 201.324219 C 300.894531 204.1875 302.324219 205.617188 302.324219 205.617188 C 302.324219 205.617188 300.894531 202.753906 300.894531 199.890625 C 299.464844 197.027344 298.035156 195.597656 298.035156 195.597656 Z M 298.035156 195.597656 " fill-opacity="1" fill-rule="nonzero"/><path fill="#000000" d="M 313.765625 199.890625 C 313.765625 195.597656 313.765625 194.167969 313.765625 194.167969 C 313.765625 194.167969 312.335938 195.597656 312.335938 198.460938 C 312.335938 202.753906 310.902344 204.1875 312.335938 204.1875 C 312.335938 204.1875 312.335938 202.753906 313.765625 199.890625 Z M 313.765625 199.890625 " fill-opacity="1" fill-rule="nonzero"/><path fill="#000000" d="M 303.753906 244.265625 C 303.753906 247.128906 302.324219 249.992188 303.753906 249.992188 C 303.753906 249.992188 303.753906 247.128906 305.183594 244.265625 C 305.183594 241.402344 305.183594 238.539062 305.183594 238.539062 C 305.183594 238.539062 303.753906 241.402344 303.753906 244.265625 Z M 303.753906 244.265625 " fill-opacity="1" fill-rule="nonzero"/><path fill="#000000" d="M 330.921875 225.65625 C 328.0625 225.65625 325.203125 224.226562 325.203125 225.65625 C 325.203125 225.65625 328.0625 225.65625 330.921875 227.089844 C 333.785156 227.089844 336.644531 227.089844 336.644531 227.089844 C 336.644531 227.089844 333.785156 225.65625 330.921875 225.65625 Z M 330.921875 225.65625 " fill-opacity="1" fill-rule="nonzero"/><path fill="#000000" d="M 285.164062 218.5 C 289.453125 218.5 290.886719 218.5 290.886719 218.5 C 290.886719 218.5 289.453125 217.070312 286.59375 217.070312 C 282.304688 217.070312 280.875 215.636719 280.875 217.070312 C 279.445312 217.070312 282.304688 217.070312 285.164062 218.5 Z M 285.164062 218.5 " fill-opacity="1" fill-rule="nonzero"/><path fill="#000000" d="M 322.34375 212.773438 C 322.34375 212.773438 325.203125 211.34375 328.0625 209.910156 C 330.921875 207.050781 332.355469 205.617188 332.355469 205.617188 C 332.355469 205.617188 329.492188 207.050781 326.632812 208.480469 C 325.203125 209.910156 322.34375 211.34375 322.34375 212.773438 Z M 322.34375 212.773438 " fill-opacity="1" fill-rule="nonzero"/><path fill="#000000" d="M 293.746094 231.382812 C 293.746094 231.382812 292.316406 232.816406 289.453125 234.246094 C 286.59375 235.675781 285.164062 238.539062 285.164062 238.539062 C 285.164062 238.539062 286.59375 237.109375 289.453125 235.675781 C 292.316406 232.816406 293.746094 231.382812 293.746094 231.382812 Z M 293.746094 231.382812 " fill-opacity="1" fill-rule="nonzero"/><path fill="#000000" d="M 318.054688 235.675781 C 318.054688 235.675781 319.484375 238.539062 320.914062 241.402344 C 322.34375 244.265625 323.773438 245.699219 325.203125 245.699219 C 325.203125 245.699219 323.773438 242.835938 322.34375 241.402344 C 319.484375 238.539062 318.054688 235.675781 318.054688 235.675781 Z M 318.054688 235.675781 " fill-opacity="1" fill-rule="nonzero"/><path fill="#000000" d="M 299.464844 207.050781 C 299.464844 207.050781 298.035156 205.617188 296.605469 202.753906 C 293.746094 199.890625 292.316406 198.460938 292.316406 198.460938 C 292.316406 198.460938 293.746094 199.890625 295.175781 202.753906 C 296.605469 205.617188 298.035156 207.050781 299.464844 207.050781 Z M 299.464844 207.050781 " fill-opacity="1" fill-rule="nonzero"/><path fill="#000000" d="M 318.054688 207.050781 C 318.054688 207.050781 319.484375 205.617188 322.34375 202.753906 C 323.773438 199.890625 325.203125 198.460938 325.203125 198.460938 C 323.773438 197.027344 322.34375 199.890625 320.914062 202.753906 C 319.484375 205.617188 318.054688 207.050781 318.054688 207.050781 Z M 318.054688 207.050781 " fill-opacity="1" fill-rule="nonzero"/><path fill="#000000" d="M 299.464844 235.675781 C 298.035156 235.675781 296.605469 238.539062 295.175781 241.402344 C 293.746094 242.835938 292.316406 245.699219 292.316406 245.699219 C 292.316406 245.699219 293.746094 244.265625 296.605469 241.402344 C 298.035156 238.539062 299.464844 237.109375 299.464844 235.675781 Z M 299.464844 235.675781 " fill-opacity="1" fill-rule="nonzero"/><path fill="#000000" d="M 328.0625 234.246094 C 325.203125 232.816406 323.773438 231.382812 322.34375 231.382812 C 322.34375 231.382812 325.203125 232.816406 328.0625 235.675781 C 329.492188 237.109375 332.355469 238.539062 332.355469 238.539062 C 332.355469 237.109375 330.921875 235.675781 328.0625 234.246094 Z M 328.0625 234.246094 " fill-opacity="1" fill-rule="nonzero"/><path fill="#000000" d="M 289.453125 209.910156 C 292.316406 211.34375 293.746094 212.773438 293.746094 212.773438 C 293.746094 211.34375 292.316406 209.910156 289.453125 208.480469 C 286.59375 207.050781 285.164062 205.617188 285.164062 205.617188 C 283.734375 205.617188 286.59375 207.050781 289.453125 209.910156 Z M 289.453125 209.910156 " fill-opacity="1" fill-rule="nonzero"/><path fill="#000000" d="M 325.203125 218.5 C 325.203125 218.5 328.0625 218.5 330.921875 218.5 C 333.785156 217.070312 336.644531 217.070312 336.644531 215.636719 C 336.644531 215.636719 333.785156 215.636719 330.921875 217.070312 C 328.0625 217.070312 325.203125 218.5 325.203125 218.5 Z M 325.203125 218.5 " fill-opacity="1" fill-rule="nonzero"/><path fill="#000000" d="M 290.886719 225.65625 C 290.886719 225.65625 289.453125 225.65625 285.164062 225.65625 C 282.304688 227.089844 280.875 227.089844 280.875 227.089844 C 280.875 227.089844 282.304688 227.089844 286.59375 227.089844 C 289.453125 225.65625 290.886719 225.65625 290.886719 225.65625 Z M 290.886719 225.65625 " fill-opacity="1" fill-rule="nonzero"/><path fill="#000000" d="M 312.335938 238.539062 C 310.902344 238.539062 312.335938 241.402344 312.335938 244.265625 C 313.765625 247.128906 313.765625 249.992188 313.765625 249.992188 C 313.765625 249.992188 313.765625 247.128906 313.765625 244.265625 C 312.335938 241.402344 312.335938 238.539062 312.335938 238.539062 Z M 312.335938 238.539062 " fill-opacity="1" fill-rule="nonzero"/><path fill="#000000" d="M 305.183594 204.1875 C 305.183594 204.1875 305.183594 202.753906 305.183594 198.460938 C 303.753906 195.597656 303.753906 194.167969 302.324219 194.167969 C 302.324219 194.167969 302.324219 195.597656 303.753906 199.890625 C 303.753906 202.753906 305.183594 205.617188 305.183594 204.1875 Z M 305.183594 204.1875 " fill-opacity="1" fill-rule="nonzero"/><path fill="#6c6d6d" d="M 328.0625 221.363281 C 328.0625 232.816406 319.484375 241.402344 308.042969 241.402344 C 298.035156 241.402344 289.453125 232.816406 289.453125 221.363281 C 289.453125 211.34375 298.035156 202.753906 308.042969 202.753906 C 319.484375 202.753906 328.0625 211.34375 328.0625 221.363281 Z M 328.0625 221.363281 " fill-opacity="1" fill-rule="nonzero"/><path fill="#9e9e9e" d="M 323.773438 221.363281 C 323.773438 231.382812 316.625 238.539062 308.042969 238.539062 C 299.464844 238.539062 292.316406 231.382812 292.316406 221.363281 C 292.316406 212.773438 299.464844 205.617188 308.042969 205.617188 C 316.625 205.617188 323.773438 212.773438 323.773438 221.363281 Z M 323.773438 221.363281 " fill-opacity="1" fill-rule="nonzero"/><path fill="#494949" d="M 320.914062 221.363281 C 320.914062 228.519531 315.195312 234.246094 308.042969 234.246094 C 300.894531 234.246094 295.175781 228.519531 295.175781 221.363281 C 295.175781 214.207031 300.894531 208.480469 308.042969 208.480469 C 315.195312 208.480469 320.914062 214.207031 320.914062 221.363281 Z M 320.914062 221.363281 " fill-opacity="1" fill-rule="nonzero"/><path fill="#6c6d6d" d="M 319.484375 221.363281 C 319.484375 228.519531 315.195312 232.816406 308.042969 232.816406 C 302.324219 232.816406 296.605469 228.519531 296.605469 221.363281 C 296.605469 215.636719 302.324219 209.910156 308.042969 209.910156 C 315.195312 209.910156 319.484375 215.636719 319.484375 221.363281 Z M 319.484375 221.363281 " fill-opacity="1" fill-rule="nonzero"/><path fill="#9e9e9e" d="M 316.625 221.363281 C 316.625 227.089844 313.765625 229.953125 308.042969 229.953125 C 303.753906 229.953125 299.464844 227.089844 299.464844 221.363281 C 299.464844 217.070312 303.753906 212.773438 308.042969 212.773438 C 313.765625 212.773438 316.625 217.070312 316.625 221.363281 Z M 316.625 221.363281 " fill-opacity="1" fill-rule="nonzero"/><g clip-path="url(#cbb79e736f)"><path fill="#000000" d="M 273.726562 221.363281 C 273.726562 238.539062 259.425781 251.421875 243.695312 251.421875 C 226.535156 251.421875 213.667969 238.539062 213.667969 221.363281 C 213.667969 205.617188 226.535156 191.304688 243.695312 191.304688 C 259.425781 191.304688 273.726562 205.617188 273.726562 221.363281 Z M 273.726562 221.363281 " fill-opacity="1" fill-rule="nonzero"/><path fill="#262626" d="M 273.726562 221.363281 C 273.726562 238.539062 259.425781 251.421875 243.695312 251.421875 C 226.535156 251.421875 213.667969 238.539062 213.667969 221.363281 C 213.667969 205.617188 226.535156 191.304688 243.695312 191.304688 C 259.425781 191.304688 273.726562 205.617188 273.726562 221.363281 Z M 273.726562 221.363281 " fill-opacity="1" fill-rule="nonzero"/><path fill="#262626" d="M 273.726562 221.363281 C 273.726562 238.539062 259.425781 251.421875 243.695312 251.421875 C 226.535156 251.421875 213.667969 238.539062 213.667969 221.363281 C 213.667969 205.617188 226.535156 191.304688 243.695312 191.304688 C 259.425781 191.304688 273.726562 205.617188 273.726562 221.363281 Z M 273.726562 221.363281 " fill-opacity="1" fill-rule="nonzero"/></g><path fill="#000000" d="M 242.265625 198.460938 C 242.265625 201.324219 242.265625 204.1875 243.695312 204.1875 C 243.695312 204.1875 243.695312 201.324219 243.695312 198.460938 C 243.695312 195.597656 243.695312 192.734375 243.695312 192.734375 C 242.265625 192.734375 242.265625 195.597656 242.265625 198.460938 Z M 242.265625 198.460938 " fill-opacity="1" fill-rule="nonzero"/><g clip-path="url(#cefbc1f7e9)"><path fill="#000000" d="M 242.265625 244.265625 C 242.265625 248.558594 242.265625 251.421875 243.695312 251.421875 C 243.695312 251.421875 243.695312 248.558594 243.695312 244.265625 C 243.695312 241.402344 243.695312 238.539062 243.695312 238.539062 C 242.265625 238.539062 242.265625 241.402344 242.265625 244.265625 Z M 242.265625 244.265625 " fill-opacity="1" fill-rule="nonzero"/></g><path fill="#000000" d="M 260.855469 221.363281 C 260.855469 222.792969 263.714844 222.792969 266.574219 222.792969 C 269.433594 222.792969 272.296875 222.792969 272.296875 221.363281 C 272.296875 221.363281 269.433594 221.363281 266.574219 221.363281 C 263.714844 221.363281 260.855469 221.363281 260.855469 221.363281 Z M 260.855469 221.363281 " fill-opacity="1" fill-rule="nonzero"/><path fill="#000000" d="M 226.535156 221.363281 C 226.535156 221.363281 223.675781 221.363281 220.816406 221.363281 C 216.527344 221.363281 215.097656 221.363281 215.097656 221.363281 C 215.097656 222.792969 216.527344 222.792969 220.816406 222.792969 C 223.675781 222.792969 226.535156 222.792969 226.535156 221.363281 Z M 226.535156 221.363281 " fill-opacity="1" fill-rule="nonzero"/><path fill="#000000" d="M 255.136719 209.910156 C 255.136719 209.910156 257.996094 208.480469 259.425781 205.617188 C 262.285156 204.1875 263.714844 201.324219 263.714844 201.324219 C 263.714844 201.324219 260.855469 202.753906 259.425781 205.617188 C 256.566406 207.050781 255.136719 209.910156 255.136719 209.910156 Z M 255.136719 209.910156 " fill-opacity="1" fill-rule="nonzero"/><path fill="#000000" d="M 230.828125 234.246094 C 230.828125 234.246094 229.398438 235.675781 226.535156 238.539062 C 223.675781 239.972656 222.246094 241.402344 222.246094 242.835938 C 223.675781 242.835938 225.105469 241.402344 227.964844 238.539062 C 229.398438 235.675781 230.828125 234.246094 230.828125 234.246094 Z M 230.828125 234.246094 " fill-opacity="1" fill-rule="nonzero"/><path fill="#000000" d="M 255.136719 234.246094 C 255.136719 234.246094 256.566406 235.675781 259.425781 238.539062 C 260.855469 241.402344 263.714844 242.835938 263.714844 242.835938 C 263.714844 241.402344 262.285156 239.972656 259.425781 238.539062 C 257.996094 235.675781 255.136719 234.246094 255.136719 234.246094 Z M 255.136719 234.246094 " fill-opacity="1" fill-rule="nonzero"/><path fill="#000000" d="M 230.828125 209.910156 C 230.828125 209.910156 229.398438 207.050781 227.964844 205.617188 C 225.105469 202.753906 223.675781 201.324219 222.246094 201.324219 C 222.246094 201.324219 223.675781 204.1875 226.535156 205.617188 C 229.398438 208.480469 230.828125 209.910156 230.828125 209.910156 Z M 230.828125 209.910156 " fill-opacity="1" fill-rule="nonzero"/><path fill="#000000" d="M 252.277344 201.324219 C 253.707031 198.460938 255.136719 195.597656 255.136719 195.597656 C 253.707031 195.597656 253.707031 197.027344 252.277344 199.890625 C 250.847656 202.753906 249.417969 205.617188 249.417969 205.617188 C 250.847656 205.617188 250.847656 204.1875 252.277344 201.324219 Z M 252.277344 201.324219 " fill-opacity="1" fill-rule="nonzero"/><path fill="#000000" d="M 233.6875 242.835938 C 232.257812 245.699219 232.257812 248.558594 232.257812 248.558594 C 232.257812 248.558594 233.6875 245.699219 235.117188 242.835938 C 236.546875 239.972656 236.546875 238.539062 236.546875 238.539062 C 236.546875 237.109375 235.117188 239.972656 233.6875 242.835938 Z M 233.6875 242.835938 " fill-opacity="1" fill-rule="nonzero"/><path fill="#000000" d="M 265.144531 229.953125 C 262.285156 228.519531 259.425781 228.519531 259.425781 228.519531 C 259.425781 228.519531 260.855469 229.953125 263.714844 231.382812 C 266.574219 232.816406 269.433594 232.816406 269.433594 232.816406 C 269.433594 232.816406 268.003906 231.382812 265.144531 229.953125 Z M 265.144531 229.953125 " fill-opacity="1" fill-rule="nonzero"/><path fill="#000000" d="M 222.246094 212.773438 C 225.105469 214.207031 226.535156 215.636719 227.964844 215.636719 C 227.964844 214.207031 225.105469 214.207031 222.246094 212.773438 C 219.386719 211.34375 216.527344 209.910156 216.527344 209.910156 C 216.527344 211.34375 219.386719 212.773438 222.246094 212.773438 Z M 222.246094 212.773438 " fill-opacity="1" fill-rule="nonzero"/><path fill="#000000" d="M 259.425781 215.636719 C 259.425781 215.636719 262.285156 214.207031 265.144531 214.207031 C 268.003906 212.773438 269.433594 211.34375 269.433594 211.34375 C 269.433594 211.34375 268.003906 211.34375 263.714844 212.773438 C 260.855469 214.207031 259.425781 215.636719 259.425781 215.636719 Z M 259.425781 215.636719 " fill-opacity="1" fill-rule="nonzero"/><path fill="#000000" d="M 226.535156 228.519531 C 226.535156 228.519531 225.105469 228.519531 222.246094 229.953125 C 219.386719 231.382812 216.527344 232.816406 216.527344 232.816406 C 216.527344 232.816406 219.386719 232.816406 222.246094 231.382812 C 225.105469 229.953125 227.964844 228.519531 226.535156 228.519531 Z M 226.535156 228.519531 " fill-opacity="1" fill-rule="nonzero"/><path fill="#000000" d="M 249.417969 238.539062 C 249.417969 238.539062 250.847656 239.972656 250.847656 242.835938 C 252.277344 247.128906 253.707031 248.558594 253.707031 248.558594 C 253.707031 248.558594 253.707031 245.699219 252.277344 242.835938 C 250.847656 239.972656 249.417969 238.539062 249.417969 238.539062 Z M 249.417969 238.539062 " fill-opacity="1" fill-rule="nonzero"/><path fill="#000000" d="M 232.257812 195.597656 C 232.257812 195.597656 232.257812 197.027344 233.6875 201.324219 C 235.117188 204.1875 236.546875 205.617188 236.546875 205.617188 C 236.546875 205.617188 236.546875 202.753906 235.117188 199.890625 C 233.6875 197.027344 232.257812 195.597656 232.257812 195.597656 Z M 232.257812 195.597656 " fill-opacity="1" fill-rule="nonzero"/><path fill="#000000" d="M 247.984375 199.890625 C 247.984375 195.597656 249.417969 194.167969 247.984375 194.167969 C 247.984375 194.167969 247.984375 195.597656 246.554688 198.460938 C 246.554688 202.753906 246.554688 204.1875 246.554688 204.1875 C 246.554688 204.1875 247.984375 202.753906 247.984375 199.890625 Z M 247.984375 199.890625 " fill-opacity="1" fill-rule="nonzero"/><path fill="#000000" d="M 237.976562 244.265625 C 237.976562 247.128906 237.976562 249.992188 237.976562 249.992188 C 237.976562 249.992188 239.40625 247.128906 239.40625 244.265625 C 239.40625 241.402344 240.835938 238.539062 239.40625 238.539062 C 239.40625 238.539062 239.40625 241.402344 237.976562 244.265625 Z M 237.976562 244.265625 " fill-opacity="1" fill-rule="nonzero"/><path fill="#000000" d="M 266.574219 225.65625 C 262.285156 225.65625 260.855469 224.226562 260.855469 225.65625 C 260.855469 225.65625 262.285156 225.65625 265.144531 227.089844 C 269.433594 227.089844 270.867188 227.089844 270.867188 227.089844 C 272.296875 227.089844 269.433594 225.65625 266.574219 225.65625 Z M 266.574219 225.65625 " fill-opacity="1" fill-rule="nonzero"/><path fill="#000000" d="M 220.816406 218.5 C 223.675781 218.5 226.535156 218.5 226.535156 218.5 C 226.535156 218.5 223.675781 217.070312 220.816406 217.070312 C 217.957031 217.070312 215.097656 215.636719 215.097656 217.070312 C 215.097656 217.070312 217.957031 217.070312 220.816406 218.5 Z M 220.816406 218.5 " fill-opacity="1" fill-rule="nonzero"/><path fill="#000000" d="M 257.996094 212.773438 C 257.996094 212.773438 259.425781 211.34375 262.285156 209.910156 C 265.144531 207.050781 266.574219 205.617188 266.574219 205.617188 C 266.574219 205.617188 265.144531 207.050781 262.285156 208.480469 C 259.425781 209.910156 257.996094 211.34375 257.996094 212.773438 Z M 257.996094 212.773438 " fill-opacity="1" fill-rule="nonzero"/><path fill="#000000" d="M 229.398438 231.382812 C 229.398438 231.382812 226.535156 232.816406 223.675781 234.246094 C 220.816406 235.675781 219.386719 238.539062 219.386719 238.539062 C 219.386719 238.539062 222.246094 237.109375 225.105469 235.675781 C 226.535156 232.816406 229.398438 231.382812 229.398438 231.382812 Z M 229.398438 231.382812 " fill-opacity="1" fill-rule="nonzero"/><path fill="#000000" d="M 252.277344 235.675781 C 252.277344 235.675781 253.707031 238.539062 255.136719 241.402344 C 257.996094 244.265625 259.425781 245.699219 259.425781 245.699219 C 259.425781 245.699219 257.996094 242.835938 256.566406 241.402344 C 255.136719 238.539062 253.707031 235.675781 252.277344 235.675781 Z M 252.277344 235.675781 " fill-opacity="1" fill-rule="nonzero"/><path fill="#000000" d="M 233.6875 207.050781 C 233.6875 207.050781 232.257812 205.617188 230.828125 202.753906 C 229.398438 199.890625 227.964844 198.460938 226.535156 198.460938 C 226.535156 198.460938 227.964844 199.890625 229.398438 202.753906 C 232.257812 205.617188 233.6875 207.050781 233.6875 207.050781 Z M 233.6875 207.050781 " fill-opacity="1" fill-rule="nonzero"/><path fill="#000000" d="M 252.277344 207.050781 C 253.707031 207.050781 255.136719 205.617188 256.566406 202.753906 C 257.996094 199.890625 259.425781 198.460938 259.425781 198.460938 C 259.425781 197.027344 257.996094 199.890625 255.136719 202.753906 C 253.707031 205.617188 252.277344 207.050781 252.277344 207.050781 Z M 252.277344 207.050781 " fill-opacity="1" fill-rule="nonzero"/><path fill="#000000" d="M 233.6875 235.675781 C 233.6875 235.675781 232.257812 238.539062 229.398438 241.402344 C 227.964844 242.835938 226.535156 245.699219 226.535156 245.699219 C 227.964844 245.699219 229.398438 244.265625 230.828125 241.402344 C 232.257812 238.539062 233.6875 237.109375 233.6875 235.675781 Z M 233.6875 235.675781 " fill-opacity="1" fill-rule="nonzero"/><path fill="#000000" d="M 262.285156 234.246094 C 259.425781 232.816406 257.996094 231.382812 257.996094 231.382812 C 257.996094 231.382812 259.425781 232.816406 262.285156 235.675781 C 265.144531 237.109375 266.574219 238.539062 266.574219 238.539062 C 268.003906 237.109375 265.144531 235.675781 262.285156 234.246094 Z M 262.285156 234.246094 " fill-opacity="1" fill-rule="nonzero"/><path fill="#000000" d="M 223.675781 209.910156 C 226.535156 211.34375 227.964844 212.773438 229.398438 212.773438 C 229.398438 211.34375 226.535156 209.910156 223.675781 208.480469 C 222.246094 207.050781 219.386719 205.617188 219.386719 205.617188 C 219.386719 205.617188 220.816406 207.050781 223.675781 209.910156 Z M 223.675781 209.910156 " fill-opacity="1" fill-rule="nonzero"/><path fill="#000000" d="M 260.855469 218.5 C 260.855469 218.5 262.285156 218.5 266.574219 218.5 C 269.433594 217.070312 270.867188 217.070312 270.867188 215.636719 C 270.867188 215.636719 269.433594 215.636719 265.144531 217.070312 C 262.285156 217.070312 260.855469 218.5 260.855469 218.5 Z M 260.855469 218.5 " fill-opacity="1" fill-rule="nonzero"/><path fill="#000000" d="M 226.535156 225.65625 C 226.535156 225.65625 223.675781 225.65625 220.816406 225.65625 C 217.957031 227.089844 215.097656 227.089844 215.097656 227.089844 C 215.097656 227.089844 217.957031 227.089844 220.816406 227.089844 C 223.675781 225.65625 226.535156 225.65625 226.535156 225.65625 Z M 226.535156 225.65625 " fill-opacity="1" fill-rule="nonzero"/><path fill="#000000" d="M 246.554688 238.539062 C 246.554688 238.539062 246.554688 241.402344 246.554688 244.265625 C 247.984375 247.128906 247.984375 249.992188 249.417969 249.992188 C 249.417969 249.992188 249.417969 247.128906 247.984375 244.265625 C 247.984375 241.402344 246.554688 238.539062 246.554688 238.539062 Z M 246.554688 238.539062 " fill-opacity="1" fill-rule="nonzero"/><path fill="#000000" d="M 239.40625 204.1875 C 240.835938 204.1875 239.40625 202.753906 239.40625 198.460938 C 237.976562 195.597656 237.976562 194.167969 237.976562 194.167969 C 237.976562 194.167969 237.976562 195.597656 237.976562 199.890625 C 239.40625 202.753906 239.40625 205.617188 239.40625 204.1875 Z M 239.40625 204.1875 " fill-opacity="1" fill-rule="nonzero"/><path fill="#6c6d6d" d="M 262.285156 221.363281 C 262.285156 232.816406 253.707031 241.402344 243.695312 241.402344 C 232.257812 241.402344 223.675781 232.816406 223.675781 221.363281 C 223.675781 211.34375 232.257812 202.753906 243.695312 202.753906 C 253.707031 202.753906 262.285156 211.34375 262.285156 221.363281 Z M 262.285156 221.363281 " fill-opacity="1" fill-rule="nonzero"/><path fill="#9e9e9e" d="M 259.425781 221.363281 C 259.425781 231.382812 252.277344 238.539062 243.695312 238.539062 C 235.117188 238.539062 227.964844 231.382812 227.964844 221.363281 C 227.964844 212.773438 235.117188 205.617188 243.695312 205.617188 C 252.277344 205.617188 259.425781 212.773438 259.425781 221.363281 Z M 259.425781 221.363281 " fill-opacity="1" fill-rule="nonzero"/><path fill="#494949" d="M 256.566406 221.363281 C 256.566406 228.519531 250.847656 234.246094 243.695312 234.246094 C 236.546875 234.246094 230.828125 228.519531 230.828125 221.363281 C 230.828125 214.207031 236.546875 208.480469 243.695312 208.480469 C 250.847656 208.480469 256.566406 214.207031 256.566406 221.363281 Z M 256.566406 221.363281 " fill-opacity="1" fill-rule="nonzero"/><path fill="#6c6d6d" d="M 255.136719 221.363281 C 255.136719 228.519531 249.417969 232.816406 243.695312 232.816406 C 236.546875 232.816406 232.257812 228.519531 232.257812 221.363281 C 232.257812 215.636719 236.546875 209.910156 243.695312 209.910156 C 249.417969 209.910156 255.136719 215.636719 255.136719 221.363281 Z M 255.136719 221.363281 " fill-opacity="1" fill-rule="nonzero"/><path fill="#9e9e9e" d="M 252.277344 221.363281 C 252.277344 227.089844 247.984375 229.953125 243.695312 229.953125 C 237.976562 229.953125 235.117188 227.089844 235.117188 221.363281 C 235.117188 217.070312 237.976562 212.773438 243.695312 212.773438 C 247.984375 212.773438 252.277344 217.070312 252.277344 221.363281 Z M 252.277344 221.363281 " fill-opacity="1" fill-rule="nonzero"/><g clip-path="url(#044ffc499a)"><path fill="#000000" d="M 571.15625 221.363281 C 571.15625 238.539062 558.285156 251.421875 541.128906 251.421875 C 525.398438 251.421875 511.097656 238.539062 511.097656 221.363281 C 511.097656 205.617188 525.398438 191.304688 541.128906 191.304688 C 558.285156 191.304688 571.15625 205.617188 571.15625 221.363281 Z M 571.15625 221.363281 " fill-opacity="1" fill-rule="nonzero"/><path fill="#262626" d="M 571.15625 221.363281 C 571.15625 238.539062 558.285156 251.421875 541.128906 251.421875 C 525.398438 251.421875 511.097656 238.539062 511.097656 221.363281 C 511.097656 205.617188 525.398438 191.304688 541.128906 191.304688 C 558.285156 191.304688 571.15625 205.617188 571.15625 221.363281 Z M 571.15625 221.363281 " fill-opacity="1" fill-rule="nonzero"/><path fill="#262626" d="M 571.15625 221.363281 C 571.15625 238.539062 558.285156 251.421875 541.128906 251.421875 C 525.398438 251.421875 511.097656 238.539062 511.097656 221.363281 C 511.097656 205.617188 525.398438 191.304688 541.128906 191.304688 C 558.285156 191.304688 571.15625 205.617188 571.15625 221.363281 Z M 571.15625 221.363281 " fill-opacity="1" fill-rule="nonzero"/></g><path fill="#000000" d="M 541.128906 198.460938 C 541.128906 201.324219 541.128906 204.1875 541.128906 204.1875 C 542.558594 204.1875 542.558594 201.324219 542.558594 198.460938 C 542.558594 195.597656 542.558594 192.734375 541.128906 192.734375 C 541.128906 192.734375 541.128906 195.597656 541.128906 198.460938 Z M 541.128906 198.460938 " fill-opacity="1" fill-rule="nonzero"/><g clip-path="url(#20c7f18484)"><path fill="#000000" d="M 541.128906 244.265625 C 541.128906 248.558594 541.128906 251.421875 541.128906 251.421875 C 542.558594 251.421875 542.558594 248.558594 542.558594 244.265625 C 542.558594 241.402344 542.558594 238.539062 541.128906 238.539062 C 541.128906 238.539062 541.128906 241.402344 541.128906 244.265625 Z M 541.128906 244.265625 " fill-opacity="1" fill-rule="nonzero"/></g><path fill="#000000" d="M 559.71875 221.363281 C 559.71875 222.792969 561.148438 222.792969 565.4375 222.792969 C 568.296875 222.792969 571.15625 222.792969 571.15625 221.363281 C 571.15625 221.363281 568.296875 221.363281 565.4375 221.363281 C 561.148438 221.363281 559.71875 221.363281 559.71875 221.363281 Z M 559.71875 221.363281 " fill-opacity="1" fill-rule="nonzero"/><path fill="#000000" d="M 523.96875 221.363281 C 523.96875 221.363281 521.109375 221.363281 518.25 221.363281 C 515.386719 221.363281 512.527344 221.363281 512.527344 221.363281 C 512.527344 222.792969 515.386719 222.792969 518.25 222.792969 C 521.109375 222.792969 523.96875 222.792969 523.96875 221.363281 Z M 523.96875 221.363281 " fill-opacity="1" fill-rule="nonzero"/><path fill="#000000" d="M 553.996094 209.910156 C 553.996094 209.910156 556.855469 208.480469 558.285156 205.617188 C 561.148438 204.1875 562.578125 201.324219 562.578125 201.324219 C 562.578125 201.324219 559.71875 202.753906 558.285156 205.617188 C 555.425781 207.050781 553.996094 209.910156 553.996094 209.910156 Z M 553.996094 209.910156 " fill-opacity="1" fill-rule="nonzero"/><path fill="#000000" d="M 529.6875 234.246094 C 529.6875 234.246094 526.828125 235.675781 525.398438 238.539062 C 522.539062 239.972656 521.109375 241.402344 521.109375 242.835938 C 521.109375 242.835938 523.96875 241.402344 525.398438 238.539062 C 528.257812 235.675781 529.6875 234.246094 529.6875 234.246094 Z M 529.6875 234.246094 " fill-opacity="1" fill-rule="nonzero"/><path fill="#000000" d="M 553.996094 234.246094 C 553.996094 234.246094 555.425781 235.675781 558.285156 238.539062 C 559.71875 241.402344 562.578125 242.835938 562.578125 242.835938 C 562.578125 241.402344 561.148438 239.972656 558.285156 238.539062 C 556.855469 235.675781 553.996094 234.246094 553.996094 234.246094 Z M 553.996094 234.246094 " fill-opacity="1" fill-rule="nonzero"/><path fill="#000000" d="M 529.6875 209.910156 C 529.6875 209.910156 528.257812 207.050781 525.398438 205.617188 C 523.96875 202.753906 521.109375 201.324219 521.109375 201.324219 C 521.109375 201.324219 522.539062 204.1875 525.398438 205.617188 C 526.828125 208.480469 529.6875 209.910156 529.6875 209.910156 Z M 529.6875 209.910156 " fill-opacity="1" fill-rule="nonzero"/><path fill="#000000" d="M 551.136719 201.324219 C 552.566406 198.460938 552.566406 195.597656 552.566406 195.597656 C 552.566406 195.597656 551.136719 197.027344 549.707031 199.890625 C 549.707031 202.753906 548.277344 205.617188 548.277344 205.617188 C 548.277344 205.617188 549.707031 204.1875 551.136719 201.324219 Z M 551.136719 201.324219 " fill-opacity="1" fill-rule="nonzero"/><path fill="#000000" d="M 532.546875 242.835938 C 531.117188 245.699219 529.6875 248.558594 531.117188 248.558594 C 531.117188 248.558594 532.546875 245.699219 532.546875 242.835938 C 533.976562 239.972656 535.40625 238.539062 535.40625 238.539062 C 535.40625 237.109375 533.976562 239.972656 532.546875 242.835938 Z M 532.546875 242.835938 " fill-opacity="1" fill-rule="nonzero"/><path fill="#000000" d="M 562.578125 229.953125 C 559.71875 228.519531 558.285156 228.519531 558.285156 228.519531 C 556.855469 228.519531 559.71875 229.953125 562.578125 231.382812 C 565.4375 232.816406 568.296875 232.816406 568.296875 232.816406 C 568.296875 232.816406 565.4375 231.382812 562.578125 229.953125 Z M 562.578125 229.953125 " fill-opacity="1" fill-rule="nonzero"/><path fill="#000000" d="M 519.679688 212.773438 C 522.539062 214.207031 525.398438 215.636719 525.398438 215.636719 C 525.398438 214.207031 523.96875 214.207031 521.109375 212.773438 C 518.25 211.34375 515.386719 209.910156 515.386719 209.910156 C 515.386719 211.34375 516.816406 212.773438 519.679688 212.773438 Z M 519.679688 212.773438 " fill-opacity="1" fill-rule="nonzero"/><path fill="#000000" d="M 558.285156 215.636719 C 558.285156 215.636719 559.71875 214.207031 562.578125 214.207031 C 566.867188 212.773438 568.296875 211.34375 568.296875 211.34375 C 568.296875 211.34375 565.4375 211.34375 562.578125 212.773438 C 559.71875 214.207031 558.285156 215.636719 558.285156 215.636719 Z M 558.285156 215.636719 " fill-opacity="1" fill-rule="nonzero"/><path fill="#000000" d="M 525.398438 228.519531 C 525.398438 228.519531 522.539062 228.519531 519.679688 229.953125 C 516.816406 231.382812 515.386719 232.816406 515.386719 232.816406 C 515.386719 232.816406 518.25 232.816406 521.109375 231.382812 C 523.96875 229.953125 525.398438 228.519531 525.398438 228.519531 Z M 525.398438 228.519531 " fill-opacity="1" fill-rule="nonzero"/><path fill="#000000" d="M 548.277344 238.539062 C 548.277344 238.539062 548.277344 239.972656 549.707031 242.835938 C 551.136719 247.128906 552.566406 248.558594 552.566406 248.558594 C 552.566406 248.558594 552.566406 245.699219 551.136719 242.835938 C 549.707031 239.972656 548.277344 238.539062 548.277344 238.539062 Z M 548.277344 238.539062 " fill-opacity="1" fill-rule="nonzero"/><path fill="#000000" d="M 531.117188 195.597656 C 531.117188 195.597656 531.117188 197.027344 532.546875 201.324219 C 533.976562 204.1875 535.40625 205.617188 535.40625 205.617188 C 535.40625 205.617188 535.40625 202.753906 533.976562 199.890625 C 532.546875 197.027344 531.117188 195.597656 531.117188 195.597656 Z M 531.117188 195.597656 " fill-opacity="1" fill-rule="nonzero"/><path fill="#000000" d="M 546.847656 199.890625 C 546.847656 195.597656 546.847656 194.167969 546.847656 194.167969 C 546.847656 194.167969 546.847656 195.597656 545.417969 198.460938 C 545.417969 202.753906 543.988281 204.1875 545.417969 204.1875 C 545.417969 204.1875 545.417969 202.753906 546.847656 199.890625 Z M 546.847656 199.890625 " fill-opacity="1" fill-rule="nonzero"/><path fill="#000000" d="M 536.835938 244.265625 C 536.835938 247.128906 535.40625 249.992188 536.835938 249.992188 C 536.835938 249.992188 536.835938 247.128906 538.269531 244.265625 C 538.269531 241.402344 538.269531 238.539062 538.269531 238.539062 C 538.269531 238.539062 536.835938 241.402344 536.835938 244.265625 Z M 536.835938 244.265625 " fill-opacity="1" fill-rule="nonzero"/><path fill="#000000" d="M 564.007812 225.65625 C 561.148438 225.65625 558.285156 224.226562 558.285156 225.65625 C 558.285156 225.65625 561.148438 225.65625 564.007812 227.089844 C 566.867188 227.089844 569.726562 227.089844 569.726562 227.089844 C 569.726562 227.089844 568.296875 225.65625 564.007812 225.65625 Z M 564.007812 225.65625 " fill-opacity="1" fill-rule="nonzero"/><path fill="#000000" d="M 518.25 218.5 C 522.539062 218.5 523.96875 218.5 525.398438 218.5 C 525.398438 218.5 522.539062 217.070312 519.679688 217.070312 C 515.386719 217.070312 513.957031 215.636719 513.957031 217.070312 C 513.957031 217.070312 515.386719 217.070312 518.25 218.5 Z M 518.25 218.5 " fill-opacity="1" fill-rule="nonzero"/><path fill="#000000" d="M 555.425781 212.773438 C 556.855469 212.773438 558.285156 211.34375 561.148438 209.910156 C 564.007812 207.050781 565.4375 205.617188 565.4375 205.617188 C 565.4375 205.617188 562.578125 207.050781 561.148438 208.480469 C 558.285156 209.910156 555.425781 211.34375 555.425781 212.773438 Z M 555.425781 212.773438 " fill-opacity="1" fill-rule="nonzero"/><path fill="#000000" d="M 526.828125 231.382812 C 526.828125 231.382812 525.398438 232.816406 522.539062 234.246094 C 519.679688 235.675781 518.25 238.539062 518.25 238.539062 C 518.25 238.539062 519.679688 237.109375 522.539062 235.675781 C 525.398438 232.816406 526.828125 231.382812 526.828125 231.382812 Z M 526.828125 231.382812 " fill-opacity="1" fill-rule="nonzero"/><path fill="#000000" d="M 551.136719 235.675781 C 551.136719 235.675781 552.566406 238.539062 553.996094 241.402344 C 555.425781 244.265625 558.285156 245.699219 558.285156 245.699219 C 558.285156 245.699219 556.855469 242.835938 555.425781 241.402344 C 553.996094 238.539062 551.136719 235.675781 551.136719 235.675781 Z M 551.136719 235.675781 " fill-opacity="1" fill-rule="nonzero"/><path fill="#000000" d="M 532.546875 207.050781 C 532.546875 207.050781 531.117188 205.617188 529.6875 202.753906 C 526.828125 199.890625 525.398438 198.460938 525.398438 198.460938 C 525.398438 198.460938 526.828125 199.890625 528.257812 202.753906 C 529.6875 205.617188 531.117188 207.050781 532.546875 207.050781 Z M 532.546875 207.050781 " fill-opacity="1" fill-rule="nonzero"/><path fill="#000000" d="M 551.136719 207.050781 C 551.136719 207.050781 552.566406 205.617188 555.425781 202.753906 C 556.855469 199.890625 558.285156 198.460938 558.285156 198.460938 C 556.855469 197.027344 555.425781 199.890625 553.996094 202.753906 C 552.566406 205.617188 551.136719 207.050781 551.136719 207.050781 Z M 551.136719 207.050781 " fill-opacity="1" fill-rule="nonzero"/><path fill="#000000" d="M 532.546875 235.675781 C 531.117188 235.675781 529.6875 238.539062 528.257812 241.402344 C 526.828125 242.835938 525.398438 245.699219 525.398438 245.699219 C 525.398438 245.699219 526.828125 244.265625 529.6875 241.402344 C 531.117188 238.539062 532.546875 237.109375 532.546875 235.675781 Z M 532.546875 235.675781 " fill-opacity="1" fill-rule="nonzero"/><path fill="#000000" d="M 561.148438 234.246094 C 558.285156 232.816406 556.855469 231.382812 555.425781 231.382812 C 555.425781 231.382812 558.285156 232.816406 561.148438 235.675781 C 562.578125 237.109375 565.4375 238.539062 565.4375 238.539062 C 565.4375 237.109375 564.007812 235.675781 561.148438 234.246094 Z M 561.148438 234.246094 " fill-opacity="1" fill-rule="nonzero"/><path fill="#000000" d="M 522.539062 209.910156 C 525.398438 211.34375 526.828125 212.773438 526.828125 212.773438 C 526.828125 211.34375 525.398438 209.910156 522.539062 208.480469 C 519.679688 207.050781 518.25 205.617188 518.25 205.617188 C 518.25 205.617188 519.679688 207.050781 522.539062 209.910156 Z M 522.539062 209.910156 " fill-opacity="1" fill-rule="nonzero"/><path fill="#000000" d="M 558.285156 218.5 C 558.285156 218.5 561.148438 218.5 564.007812 218.5 C 566.867188 217.070312 569.726562 217.070312 569.726562 215.636719 C 569.726562 215.636719 566.867188 215.636719 564.007812 217.070312 C 561.148438 217.070312 558.285156 218.5 558.285156 218.5 Z M 558.285156 218.5 " fill-opacity="1" fill-rule="nonzero"/><path fill="#000000" d="M 525.398438 225.65625 C 523.96875 225.65625 522.539062 225.65625 519.679688 225.65625 C 515.386719 227.089844 513.957031 227.089844 513.957031 227.089844 C 513.957031 227.089844 515.386719 227.089844 519.679688 227.089844 C 522.539062 225.65625 525.398438 225.65625 525.398438 225.65625 Z M 525.398438 225.65625 " fill-opacity="1" fill-rule="nonzero"/><path fill="#000000" d="M 545.417969 238.539062 C 545.417969 238.539062 545.417969 241.402344 545.417969 244.265625 C 546.847656 247.128906 546.847656 249.992188 546.847656 249.992188 C 548.277344 249.992188 546.847656 247.128906 546.847656 244.265625 C 545.417969 241.402344 545.417969 238.539062 545.417969 238.539062 Z M 545.417969 238.539062 " fill-opacity="1" fill-rule="nonzero"/><path fill="#000000" d="M 538.269531 204.1875 C 538.269531 204.1875 538.269531 202.753906 538.269531 198.460938 C 536.835938 195.597656 536.835938 194.167969 535.40625 194.167969 C 535.40625 194.167969 535.40625 195.597656 536.835938 199.890625 C 536.835938 202.753906 538.269531 205.617188 538.269531 204.1875 Z M 538.269531 204.1875 " fill-opacity="1" fill-rule="nonzero"/><path fill="#6c6d6d" d="M 561.148438 221.363281 C 561.148438 232.816406 552.566406 241.402344 541.128906 241.402344 C 531.117188 241.402344 522.539062 232.816406 522.539062 221.363281 C 522.539062 211.34375 531.117188 202.753906 541.128906 202.753906 C 552.566406 202.753906 561.148438 211.34375 561.148438 221.363281 Z M 561.148438 221.363281 " fill-opacity="1" fill-rule="nonzero"/><path fill="#9e9e9e" d="M 558.285156 221.363281 C 558.285156 231.382812 551.136719 238.539062 541.128906 238.539062 C 532.546875 238.539062 525.398438 231.382812 525.398438 221.363281 C 525.398438 212.773438 532.546875 205.617188 541.128906 205.617188 C 551.136719 205.617188 558.285156 212.773438 558.285156 221.363281 Z M 558.285156 221.363281 " fill-opacity="1" fill-rule="nonzero"/><path fill="#494949" d="M 553.996094 221.363281 C 553.996094 228.519531 548.277344 234.246094 541.128906 234.246094 C 533.976562 234.246094 528.257812 228.519531 528.257812 221.363281 C 528.257812 214.207031 533.976562 208.480469 541.128906 208.480469 C 548.277344 208.480469 553.996094 214.207031 553.996094 221.363281 Z M 553.996094 221.363281 " fill-opacity="1" fill-rule="nonzero"/><path fill="#6c6d6d" d="M 552.566406 221.363281 C 552.566406 228.519531 548.277344 232.816406 541.128906 232.816406 C 535.40625 232.816406 531.117188 228.519531 531.117188 221.363281 C 531.117188 215.636719 535.40625 209.910156 541.128906 209.910156 C 548.277344 209.910156 552.566406 215.636719 552.566406 221.363281 Z M 552.566406 221.363281 " fill-opacity="1" fill-rule="nonzero"/><path fill="#9e9e9e" d="M 549.707031 221.363281 C 549.707031 227.089844 546.847656 229.953125 541.128906 229.953125 C 536.835938 229.953125 532.546875 227.089844 532.546875 221.363281 C 532.546875 217.070312 536.835938 212.773438 541.128906 212.773438 C 546.847656 212.773438 549.707031 217.070312 549.707031 221.363281 Z M 549.707031 221.363281 " fill-opacity="1" fill-rule="nonzero"/><g clip-path="url(#8a2ae891cd)"><path fill="#000000" d="M 638.363281 221.363281 C 638.363281 238.539062 625.496094 251.421875 608.335938 251.421875 C 591.175781 251.421875 578.304688 238.539062 578.304688 221.363281 C 578.304688 205.617188 591.175781 191.304688 608.335938 191.304688 C 625.496094 191.304688 638.363281 205.617188 638.363281 221.363281 Z M 638.363281 221.363281 " fill-opacity="1" fill-rule="nonzero"/><path fill="#262626" d="M 638.363281 221.363281 C 638.363281 238.539062 625.496094 251.421875 608.335938 251.421875 C 591.175781 251.421875 578.304688 238.539062 578.304688 221.363281 C 578.304688 205.617188 591.175781 191.304688 608.335938 191.304688 C 625.496094 191.304688 638.363281 205.617188 638.363281 221.363281 Z M 638.363281 221.363281 " fill-opacity="1" fill-rule="nonzero"/><path fill="#262626" d="M 638.363281 221.363281 C 638.363281 238.539062 625.496094 251.421875 608.335938 251.421875 C 591.175781 251.421875 578.304688 238.539062 578.304688 221.363281 C 578.304688 205.617188 591.175781 191.304688 608.335938 191.304688 C 625.496094 191.304688 638.363281 205.617188 638.363281 221.363281 Z M 638.363281 221.363281 " fill-opacity="1" fill-rule="nonzero"/></g><path fill="#000000" d="M 625.496094 221.363281 C 625.496094 222.792969 628.355469 222.792969 631.214844 222.792969 C 634.074219 222.792969 636.933594 222.792969 636.933594 221.363281 C 636.933594 221.363281 634.074219 221.363281 631.214844 221.363281 C 628.355469 221.363281 625.496094 221.363281 625.496094 221.363281 Z M 625.496094 221.363281 " fill-opacity="1" fill-rule="nonzero"/><path fill="#000000" d="M 591.175781 221.363281 C 591.175781 221.363281 588.316406 221.363281 585.457031 221.363281 C 582.597656 221.363281 579.738281 221.363281 579.738281 221.363281 C 579.738281 222.792969 582.597656 222.792969 585.457031 222.792969 C 588.316406 222.792969 591.175781 222.792969 591.175781 221.363281 Z M 591.175781 221.363281 " fill-opacity="1" fill-rule="nonzero"/><path fill="#000000" d="M 621.207031 209.910156 C 621.207031 209.910156 622.636719 208.480469 625.496094 205.617188 C 626.925781 204.1875 628.355469 201.324219 628.355469 201.324219 C 628.355469 201.324219 626.925781 202.753906 624.066406 205.617188 C 622.636719 207.050781 619.773438 209.910156 621.207031 209.910156 Z M 621.207031 209.910156 " fill-opacity="1" fill-rule="nonzero"/><path fill="#000000" d="M 595.464844 234.246094 C 595.464844 234.246094 594.035156 235.675781 591.175781 238.539062 C 589.746094 239.972656 588.316406 241.402344 588.316406 242.835938 C 588.316406 242.835938 589.746094 241.402344 592.605469 238.539062 C 594.035156 235.675781 596.894531 234.246094 595.464844 234.246094 Z M 595.464844 234.246094 " fill-opacity="1" fill-rule="nonzero"/><path fill="#000000" d="M 621.207031 234.246094 C 619.773438 234.246094 622.636719 235.675781 624.066406 238.539062 C 626.925781 241.402344 628.355469 242.835938 628.355469 242.835938 C 628.355469 241.402344 626.925781 239.972656 625.496094 238.539062 C 622.636719 235.675781 621.207031 234.246094 621.207031 234.246094 Z M 621.207031 234.246094 " fill-opacity="1" fill-rule="nonzero"/><path fill="#000000" d="M 595.464844 209.910156 C 596.894531 209.910156 594.035156 207.050781 592.605469 205.617188 C 589.746094 202.753906 588.316406 201.324219 588.316406 201.324219 C 588.316406 201.324219 589.746094 204.1875 591.175781 205.617188 C 594.035156 208.480469 595.464844 209.910156 595.464844 209.910156 Z M 595.464844 209.910156 " fill-opacity="1" fill-rule="nonzero"/><path fill="#000000" d="M 618.34375 201.324219 C 619.773438 198.460938 619.773438 195.597656 619.773438 195.597656 C 619.773438 195.597656 618.34375 197.027344 616.914062 199.890625 C 615.484375 202.753906 615.484375 205.617188 615.484375 205.617188 C 615.484375 205.617188 616.914062 204.1875 618.34375 201.324219 Z M 618.34375 201.324219 " fill-opacity="1" fill-rule="nonzero"/><path fill="#000000" d="M 598.324219 242.835938 C 598.324219 245.699219 596.894531 248.558594 596.894531 248.558594 C 596.894531 248.558594 598.324219 245.699219 599.757812 242.835938 C 601.1875 239.972656 601.1875 238.539062 601.1875 238.539062 C 601.1875 237.109375 599.757812 239.972656 598.324219 242.835938 Z M 598.324219 242.835938 " fill-opacity="1" fill-rule="nonzero"/><path fill="#000000" d="M 629.785156 229.953125 C 626.925781 228.519531 624.066406 228.519531 624.066406 228.519531 C 624.066406 228.519531 626.925781 229.953125 629.785156 231.382812 C 632.644531 232.816406 635.503906 232.816406 635.503906 232.816406 C 635.503906 232.816406 632.644531 231.382812 629.785156 229.953125 Z M 629.785156 229.953125 " fill-opacity="1" fill-rule="nonzero"/><path fill="#000000" d="M 586.886719 212.773438 C 589.746094 214.207031 592.605469 215.636719 592.605469 215.636719 C 592.605469 214.207031 589.746094 214.207031 586.886719 212.773438 C 584.027344 211.34375 582.597656 209.910156 581.167969 209.910156 C 581.167969 211.34375 584.027344 212.773438 586.886719 212.773438 Z M 586.886719 212.773438 " fill-opacity="1" fill-rule="nonzero"/><path fill="#000000" d="M 624.066406 215.636719 C 624.066406 215.636719 626.925781 214.207031 629.785156 214.207031 C 632.644531 212.773438 635.503906 211.34375 635.503906 211.34375 C 635.503906 211.34375 632.644531 211.34375 629.785156 212.773438 C 626.925781 214.207031 624.066406 215.636719 624.066406 215.636719 Z M 624.066406 215.636719 " fill-opacity="1" fill-rule="nonzero"/><path fill="#000000" d="M 592.605469 228.519531 C 592.605469 228.519531 589.746094 228.519531 586.886719 229.953125 C 584.027344 231.382812 581.167969 232.816406 581.167969 232.816406 C 581.167969 232.816406 584.027344 232.816406 586.886719 231.382812 C 589.746094 229.953125 592.605469 228.519531 592.605469 228.519531 Z M 592.605469 228.519531 " fill-opacity="1" fill-rule="nonzero"/><path fill="#000000" d="M 615.484375 238.539062 C 614.054688 238.539062 615.484375 239.972656 616.914062 242.835938 C 618.34375 247.128906 618.34375 248.558594 619.773438 248.558594 C 619.773438 248.558594 618.34375 245.699219 616.914062 242.835938 C 616.914062 239.972656 615.484375 238.539062 615.484375 238.539062 Z M 615.484375 238.539062 " fill-opacity="1" fill-rule="nonzero"/><path fill="#000000" d="M 596.894531 195.597656 C 596.894531 195.597656 598.324219 197.027344 599.757812 201.324219 C 599.757812 204.1875 601.1875 205.617188 601.1875 205.617188 C 602.617188 205.617188 601.1875 202.753906 599.757812 199.890625 C 598.324219 197.027344 598.324219 195.597656 596.894531 195.597656 Z M 596.894531 195.597656 " fill-opacity="1" fill-rule="nonzero"/><path fill="#000000" d="M 612.625 199.890625 C 614.054688 195.597656 614.054688 194.167969 614.054688 194.167969 C 614.054688 194.167969 612.625 195.597656 612.625 198.460938 C 611.195312 202.753906 611.195312 204.1875 611.195312 204.1875 C 612.625 204.1875 612.625 202.753906 612.625 199.890625 Z M 612.625 199.890625 " fill-opacity="1" fill-rule="nonzero"/><path fill="#000000" d="M 604.046875 244.265625 C 602.617188 247.128906 602.617188 249.992188 602.617188 249.992188 C 602.617188 249.992188 604.046875 247.128906 604.046875 244.265625 C 605.476562 241.402344 605.476562 238.539062 605.476562 238.539062 C 605.476562 238.539062 604.046875 241.402344 604.046875 244.265625 Z M 604.046875 244.265625 " fill-opacity="1" fill-rule="nonzero"/><path fill="#000000" d="M 631.214844 225.65625 C 628.355469 225.65625 625.496094 224.226562 625.496094 225.65625 C 625.496094 225.65625 628.355469 225.65625 631.214844 227.089844 C 634.074219 227.089844 636.933594 227.089844 636.933594 227.089844 C 636.933594 227.089844 634.074219 225.65625 631.214844 225.65625 Z M 631.214844 225.65625 " fill-opacity="1" fill-rule="nonzero"/><path fill="#000000" d="M 585.457031 218.5 C 588.316406 218.5 591.175781 218.5 591.175781 218.5 C 591.175781 218.5 588.316406 217.070312 585.457031 217.070312 C 582.597656 217.070312 579.738281 215.636719 579.738281 217.070312 C 579.738281 217.070312 582.597656 217.070312 585.457031 218.5 Z M 585.457031 218.5 " fill-opacity="1" fill-rule="nonzero"/><path fill="#000000" d="M 622.636719 212.773438 C 622.636719 212.773438 625.496094 211.34375 628.355469 209.910156 C 629.785156 207.050781 632.644531 205.617188 632.644531 205.617188 C 632.644531 205.617188 629.785156 207.050781 626.925781 208.480469 C 624.066406 209.910156 622.636719 211.34375 622.636719 212.773438 Z M 622.636719 212.773438 " fill-opacity="1" fill-rule="nonzero"/><path fill="#000000" d="M 594.035156 231.382812 C 594.035156 231.382812 591.175781 232.816406 588.316406 234.246094 C 586.886719 235.675781 584.027344 238.539062 584.027344 238.539062 C 584.027344 238.539062 586.886719 237.109375 589.746094 235.675781 C 592.605469 232.816406 594.035156 231.382812 594.035156 231.382812 Z M 594.035156 231.382812 " fill-opacity="1" fill-rule="nonzero"/><path fill="#000000" d="M 618.34375 235.675781 C 618.34375 235.675781 619.773438 238.539062 621.207031 241.402344 C 622.636719 244.265625 624.066406 245.699219 624.066406 245.699219 C 625.496094 245.699219 624.066406 242.835938 621.207031 241.402344 C 619.773438 238.539062 618.34375 235.675781 618.34375 235.675781 Z M 618.34375 235.675781 " fill-opacity="1" fill-rule="nonzero"/><path fill="#000000" d="M 598.324219 207.050781 C 598.324219 207.050781 598.324219 205.617188 595.464844 202.753906 C 594.035156 199.890625 592.605469 198.460938 592.605469 198.460938 C 592.605469 198.460938 592.605469 199.890625 595.464844 202.753906 C 596.894531 205.617188 598.324219 207.050781 598.324219 207.050781 Z M 598.324219 207.050781 " fill-opacity="1" fill-rule="nonzero"/><path fill="#000000" d="M 618.34375 207.050781 C 618.34375 207.050781 619.773438 205.617188 621.207031 202.753906 C 624.066406 199.890625 624.066406 198.460938 624.066406 198.460938 C 624.066406 197.027344 622.636719 199.890625 621.207031 202.753906 C 618.34375 205.617188 618.34375 207.050781 618.34375 207.050781 Z M 618.34375 207.050781 " fill-opacity="1" fill-rule="nonzero"/><path fill="#000000" d="M 598.324219 235.675781 C 598.324219 235.675781 596.894531 238.539062 595.464844 241.402344 C 594.035156 242.835938 592.605469 245.699219 592.605469 245.699219 C 592.605469 245.699219 594.035156 244.265625 595.464844 241.402344 C 598.324219 238.539062 598.324219 237.109375 598.324219 235.675781 Z M 598.324219 235.675781 " fill-opacity="1" fill-rule="nonzero"/><path fill="#000000" d="M 628.355469 234.246094 C 625.496094 232.816406 622.636719 231.382812 622.636719 231.382812 C 622.636719 231.382812 624.066406 232.816406 626.925781 235.675781 C 629.785156 237.109375 632.644531 238.539062 632.644531 238.539062 C 632.644531 237.109375 629.785156 235.675781 628.355469 234.246094 Z M 628.355469 234.246094 " fill-opacity="1" fill-rule="nonzero"/><path fill="#000000" d="M 588.316406 209.910156 C 591.175781 211.34375 594.035156 212.773438 594.035156 212.773438 C 594.035156 211.34375 592.605469 209.910156 589.746094 208.480469 C 586.886719 207.050781 584.027344 205.617188 584.027344 205.617188 C 584.027344 205.617188 586.886719 207.050781 588.316406 209.910156 Z M 588.316406 209.910156 " fill-opacity="1" fill-rule="nonzero"/><path fill="#000000" d="M 625.496094 218.5 C 625.496094 218.5 628.355469 218.5 631.214844 218.5 C 634.074219 217.070312 636.933594 217.070312 636.933594 215.636719 C 636.933594 215.636719 634.074219 215.636719 631.214844 217.070312 C 628.355469 217.070312 625.496094 218.5 625.496094 218.5 Z M 625.496094 218.5 " fill-opacity="1" fill-rule="nonzero"/><path fill="#000000" d="M 591.175781 225.65625 C 591.175781 225.65625 588.316406 225.65625 585.457031 225.65625 C 582.597656 227.089844 579.738281 227.089844 579.738281 227.089844 C 579.738281 227.089844 582.597656 227.089844 585.457031 227.089844 C 588.316406 225.65625 591.175781 225.65625 591.175781 225.65625 Z M 591.175781 225.65625 " fill-opacity="1" fill-rule="nonzero"/><path fill="#000000" d="M 611.195312 238.539062 C 611.195312 238.539062 611.195312 241.402344 612.625 244.265625 C 612.625 247.128906 614.054688 249.992188 614.054688 249.992188 C 614.054688 249.992188 614.054688 247.128906 614.054688 244.265625 C 612.625 241.402344 612.625 238.539062 611.195312 238.539062 Z M 611.195312 238.539062 " fill-opacity="1" fill-rule="nonzero"/><path fill="#000000" d="M 605.476562 204.1875 C 605.476562 204.1875 605.476562 202.753906 604.046875 198.460938 C 604.046875 195.597656 602.617188 194.167969 602.617188 194.167969 C 602.617188 194.167969 602.617188 195.597656 604.046875 199.890625 C 604.046875 202.753906 604.046875 205.617188 605.476562 204.1875 Z M 605.476562 204.1875 " fill-opacity="1" fill-rule="nonzero"/><path fill="#6c6d6d" d="M 626.925781 221.363281 C 626.925781 232.816406 618.34375 241.402344 608.335938 241.402344 C 598.324219 241.402344 589.746094 232.816406 589.746094 221.363281 C 589.746094 211.34375 598.324219 202.753906 608.335938 202.753906 C 618.34375 202.753906 626.925781 211.34375 626.925781 221.363281 Z M 626.925781 221.363281 " fill-opacity="1" fill-rule="nonzero"/><path fill="#9e9e9e" d="M 624.066406 221.363281 C 624.066406 231.382812 616.914062 238.539062 608.335938 238.539062 C 599.757812 238.539062 592.605469 231.382812 592.605469 221.363281 C 592.605469 212.773438 599.757812 205.617188 608.335938 205.617188 C 616.914062 205.617188 624.066406 212.773438 624.066406 221.363281 Z M 624.066406 221.363281 " fill-opacity="1" fill-rule="nonzero"/><path fill="#494949" d="M 621.207031 221.363281 C 621.207031 228.519531 615.484375 234.246094 608.335938 234.246094 C 601.1875 234.246094 595.464844 228.519531 595.464844 221.363281 C 595.464844 214.207031 601.1875 208.480469 608.335938 208.480469 C 615.484375 208.480469 621.207031 214.207031 621.207031 221.363281 Z M 621.207031 221.363281 " fill-opacity="1" fill-rule="nonzero"/><path fill="#6c6d6d" d="M 619.773438 221.363281 C 619.773438 228.519531 614.054688 232.816406 608.335938 232.816406 C 602.617188 232.816406 596.894531 228.519531 596.894531 221.363281 C 596.894531 215.636719 602.617188 209.910156 608.335938 209.910156 C 614.054688 209.910156 619.773438 215.636719 619.773438 221.363281 Z M 619.773438 221.363281 " fill-opacity="1" fill-rule="nonzero"/><path fill="#9e9e9e" d="M 616.914062 221.363281 C 616.914062 227.089844 612.625 229.953125 608.335938 229.953125 C 604.046875 229.953125 599.757812 227.089844 599.757812 221.363281 C 599.757812 217.070312 604.046875 212.773438 608.335938 212.773438 C 612.625 212.773438 616.914062 217.070312 616.914062 221.363281 Z M 616.914062 221.363281 " fill-opacity="1" fill-rule="nonzero"/><path fill="#000000" d="M 646.945312 239.972656 L 644.085938 239.972656 L 644.085938 209.910156 L 646.945312 209.910156 Z M 646.945312 239.972656 " fill-opacity="1" fill-rule="nonzero"/><path fill="#99cc33" d="M 52.082031 30.984375 L 135.019531 30.984375 L 135.019531 56.75 L 29.203125 56.75 C 26.34375 56.75 24.914062 53.886719 26.34375 51.023438 C 26.34375 51.023438 37.78125 30.984375 52.082031 30.984375 Z M 52.082031 30.984375 " fill-opacity="1" fill-rule="nonzero"/><path fill="#355100" d="M 40.640625 214.207031 L 39.210938 214.207031 C 44.933594 189.871094 59.230469 176.988281 86.402344 172.695312 L 86.402344 62.476562 L 87.832031 62.476562 L 87.832031 174.125 L 86.402344 174.125 C 60.660156 178.421875 46.363281 191.304688 40.640625 214.207031 Z M 40.640625 214.207031 " fill-opacity="1" fill-rule="nonzero"/><path fill="#628421" d="M 40.640625 224.226562 L 16.332031 224.226562 L 16.332031 199.890625 L 40.640625 199.890625 Z M 40.640625 224.226562 " fill-opacity="1" fill-rule="nonzero"/><path fill="#ff0000" d="M 143.597656 227.089844 L 126.441406 227.089844 L 126.441406 224.226562 L 143.597656 224.226562 Z M 143.597656 227.089844 " fill-opacity="1" fill-rule="nonzero"/><path fill="#ffce00" d="M 119.289062 49.59375 C 119.289062 51.023438 120.71875 52.453125 122.148438 52.453125 C 125.007812 52.453125 126.441406 51.023438 126.441406 49.59375 C 126.441406 48.160156 125.007812 46.730469 122.148438 46.730469 C 120.71875 46.730469 119.289062 48.160156 119.289062 49.59375 Z M 119.289062 49.59375 " fill-opacity="1" fill-rule="nonzero"/><path fill="#ffce00" d="M 109.28125 49.59375 C 109.28125 51.023438 110.710938 52.453125 112.140625 52.453125 C 115 52.453125 116.429688 51.023438 116.429688 49.59375 C 116.429688 48.160156 115 46.730469 112.140625 46.730469 C 110.710938 46.730469 109.28125 48.160156 109.28125 49.59375 Z M 109.28125 49.59375 " fill-opacity="1" fill-rule="nonzero"/><path fill="#ffce00" d="M 99.269531 49.59375 C 99.269531 51.023438 100.699219 52.453125 102.128906 52.453125 C 103.558594 52.453125 106.421875 51.023438 106.421875 49.59375 C 106.421875 48.160156 103.558594 46.730469 102.128906 46.730469 C 100.699219 46.730469 99.269531 48.160156 99.269531 49.59375 Z M 99.269531 49.59375 " fill-opacity="1" fill-rule="nonzero"/><path fill="#0091bc" d="M 89.261719 103.984375 L 84.972656 103.984375 L 84.972656 62.476562 L 89.261719 62.476562 Z M 89.261719 103.984375 " fill-opacity="1" fill-rule="nonzero"/><path fill="#ffce00" d="M 186.496094 187.007812 L 177.917969 187.007812 L 177.917969 184.144531 L 186.496094 184.144531 Z M 186.496094 187.007812 " fill-opacity="1" fill-rule="nonzero"/><path fill="#ffce00" d="M 345.222656 187.007812 L 336.644531 187.007812 L 336.644531 184.144531 L 345.222656 184.144531 Z M 345.222656 187.007812 " fill-opacity="1" fill-rule="nonzero"/><path fill="#ffce00" d="M 505.378906 187.007812 L 495.367188 187.007812 L 495.367188 184.144531 L 505.378906 184.144531 Z M 505.378906 187.007812 " fill-opacity="1" fill-rule="nonzero"/><path fill="#ffce00" d="M 664.105469 187.007812 L 655.523438 187.007812 L 655.523438 184.144531 L 664.105469 184.144531 Z M 664.105469 187.007812 " fill-opacity="1" fill-rule="nonzero"/><path fill="#fe6259" d="M 177.917969 179.851562 L 173.628906 179.851562 L 173.628906 5.21875 L 177.917969 5.21875 Z M 177.917969 179.851562 " fill-opacity="1" fill-rule="nonzero"/><path fill="#fe6259" d="M 187.929688 179.851562 L 182.207031 179.851562 L 182.207031 5.21875 L 187.929688 5.21875 Z M 187.929688 179.851562 " fill-opacity="1" fill-rule="nonzero"/><path fill="#fe6259" d="M 196.507812 179.851562 L 192.21875 179.851562 L 192.21875 5.21875 L 196.507812 5.21875 Z M 196.507812 179.851562 " fill-opacity="1" fill-rule="nonzero"/><path fill="#fe6259" d="M 206.515625 179.851562 L 202.226562 179.851562 L 202.226562 5.21875 L 206.515625 5.21875 Z M 206.515625 179.851562 " fill-opacity="1" fill-rule="nonzero"/><path fill="#fe6259" d="M 216.527344 179.851562 L 212.238281 179.851562 L 212.238281 5.21875 L 216.527344 5.21875 Z M 216.527344 179.851562 " fill-opacity="1" fill-rule="nonzero"/><path fill="#fe6259" d="M 226.535156 179.851562 L 222.246094 179.851562 L 222.246094 5.21875 L 226.535156 5.21875 Z M 226.535156 179.851562 " fill-opacity="1" fill-rule="nonzero"/><path fill="#fe6259" d="M 236.546875 179.851562 L 230.828125 179.851562 L 230.828125 5.21875 L 236.546875 5.21875 Z M 236.546875 179.851562 " fill-opacity="1" fill-rule="nonzero"/><path fill="#fe6259" d="M 245.125 179.851562 L 240.835938 179.851562 L 240.835938 5.21875 L 245.125 5.21875 Z M 245.125 179.851562 " fill-opacity="1" fill-rule="nonzero"/><path fill="#fe6259" d="M 255.136719 179.851562 L 250.847656 179.851562 L 250.847656 5.21875 L 255.136719 5.21875 Z M 255.136719 179.851562 " fill-opacity="1" fill-rule="nonzero"/><path fill="#fe6259" d="M 265.144531 179.851562 L 260.855469 179.851562 L 260.855469 5.21875 L 265.144531 5.21875 Z M 265.144531 179.851562 " fill-opacity="1" fill-rule="nonzero"/><path fill="#fe6259" d="M 275.15625 179.851562 L 270.867188 179.851562 L 270.867188 5.21875 L 275.15625 5.21875 Z M 275.15625 179.851562 " fill-opacity="1" fill-rule="nonzero"/><path fill="#fe6259" d="M 285.164062 179.851562 L 279.445312 179.851562 L 279.445312 5.21875 L 285.164062 5.21875 Z M 285.164062 179.851562 " fill-opacity="1" fill-rule="nonzero"/><path fill="#fe6259" d="M 293.746094 179.851562 L 289.453125 179.851562 L 289.453125 5.21875 L 293.746094 5.21875 Z M 293.746094 179.851562 " fill-opacity="1" fill-rule="nonzero"/><path fill="#fe6259" d="M 303.753906 179.851562 L 299.464844 179.851562 L 299.464844 5.21875 L 303.753906 5.21875 Z M 303.753906 179.851562 " fill-opacity="1" fill-rule="nonzero"/><path fill="#fe6259" d="M 313.765625 179.851562 L 309.472656 179.851562 L 309.472656 5.21875 L 313.765625 5.21875 Z M 313.765625 179.851562 " fill-opacity="1" fill-rule="nonzero"/><path fill="#fe6259" d="M 323.773438 179.851562 L 319.484375 179.851562 L 319.484375 5.21875 L 323.773438 5.21875 Z M 323.773438 179.851562 " fill-opacity="1" fill-rule="nonzero"/><path fill="#fe6259" d="M 333.785156 179.851562 L 328.0625 179.851562 L 328.0625 5.21875 L 333.785156 5.21875 Z M 333.785156 179.851562 " fill-opacity="1" fill-rule="nonzero"/><path fill="#fe6259" d="M 342.363281 179.851562 L 338.074219 179.851562 L 338.074219 5.21875 L 342.363281 5.21875 Z M 342.363281 179.851562 " fill-opacity="1" fill-rule="nonzero"/><path fill="#fe6259" d="M 352.371094 179.851562 L 348.082031 179.851562 L 348.082031 5.21875 L 352.371094 5.21875 Z M 352.371094 179.851562 " fill-opacity="1" fill-rule="nonzero"/><path fill="#fe6259" d="M 362.382812 179.851562 L 358.09375 179.851562 L 358.09375 5.21875 L 362.382812 5.21875 Z M 362.382812 179.851562 " fill-opacity="1" fill-rule="nonzero"/><path fill="#fe6259" d="M 372.390625 179.851562 L 368.101562 179.851562 L 368.101562 5.21875 L 372.390625 5.21875 Z M 372.390625 179.851562 " fill-opacity="1" fill-rule="nonzero"/><path fill="#fe6259" d="M 382.402344 179.851562 L 376.683594 179.851562 L 376.683594 5.21875 L 382.402344 5.21875 Z M 382.402344 179.851562 " fill-opacity="1" fill-rule="nonzero"/><path fill="#fe6259" d="M 392.410156 179.851562 L 386.691406 179.851562 L 386.691406 5.21875 L 392.410156 5.21875 Z M 392.410156 179.851562 " fill-opacity="1" fill-rule="nonzero"/><path fill="#fe6259" d="M 400.992188 179.851562 L 396.703125 179.851562 L 396.703125 5.21875 L 400.992188 5.21875 Z M 400.992188 179.851562 " fill-opacity="1" fill-rule="nonzero"/><path fill="#fe6259" d="M 411 179.851562 L 406.710938 179.851562 L 406.710938 5.21875 L 411 5.21875 Z M 411 179.851562 " fill-opacity="1" fill-rule="nonzero"/><path fill="#fe6259" d="M 421.011719 179.851562 L 416.722656 179.851562 L 416.722656 5.21875 L 421.011719 5.21875 Z M 421.011719 179.851562 " fill-opacity="1" fill-rule="nonzero"/><path fill="#fe6259" d="M 431.019531 179.851562 L 426.730469 179.851562 L 426.730469 5.21875 L 431.019531 5.21875 Z M 431.019531 179.851562 " fill-opacity="1" fill-rule="nonzero"/><path fill="#fe6259" d="M 441.03125 179.851562 L 435.3125 179.851562 L 435.3125 5.21875 L 441.03125 5.21875 Z M 441.03125 179.851562 " fill-opacity="1" fill-rule="nonzero"/><path fill="#fe6259" d="M 449.609375 179.851562 L 445.320312 179.851562 L 445.320312 5.21875 L 449.609375 5.21875 Z M 449.609375 179.851562 " fill-opacity="1" fill-rule="nonzero"/><path fill="#fe6259" d="M 459.621094 179.851562 L 455.328125 179.851562 L 455.328125 5.21875 L 459.621094 5.21875 Z M 459.621094 179.851562 " fill-opacity="1" fill-rule="nonzero"/><path fill="#fe6259" d="M 469.628906 179.851562 L 465.339844 179.851562 L 465.339844 5.21875 L 469.628906 5.21875 Z M 469.628906 179.851562 " fill-opacity="1" fill-rule="nonzero"/><path fill="#fe6259" d="M 479.640625 179.851562 L 475.347656 179.851562 L 475.347656 5.21875 L 479.640625 5.21875 Z M 479.640625 179.851562 " fill-opacity="1" fill-rule="nonzero"/><path fill="#fe6259" d="M 489.648438 179.851562 L 483.929688 179.851562 L 483.929688 5.21875 L 489.648438 5.21875 Z M 489.648438 179.851562 " fill-opacity="1" fill-rule="nonzero"/><path fill="#fe6259" d="M 498.230469 179.851562 L 493.9375 179.851562 L 493.9375 5.21875 L 498.230469 5.21875 Z M 498.230469 179.851562 " fill-opacity="1" fill-rule="nonzero"/><path fill="#fe6259" d="M 508.238281 179.851562 L 503.949219 179.851562 L 503.949219 5.21875 L 508.238281 5.21875 Z M 508.238281 179.851562 " fill-opacity="1" fill-rule="nonzero"/><path fill="#fe6259" d="M 518.25 179.851562 L 513.957031 179.851562 L 513.957031 5.21875 L 518.25 5.21875 Z M 518.25 179.851562 " fill-opacity="1" fill-rule="nonzero"/><path fill="#fe6259" d="M 528.257812 179.851562 L 523.96875 179.851562 L 523.96875 5.21875 L 528.257812 5.21875 Z M 528.257812 179.851562 " fill-opacity="1" fill-rule="nonzero"/><path fill="#fe6259" d="M 538.269531 179.851562 L 532.546875 179.851562 L 532.546875 5.21875 L 538.269531 5.21875 Z M 538.269531 179.851562 " fill-opacity="1" fill-rule="nonzero"/><path fill="#fe6259" d="M 546.847656 179.851562 L 542.558594 179.851562 L 542.558594 5.21875 L 546.847656 5.21875 Z M 546.847656 179.851562 " fill-opacity="1" fill-rule="nonzero"/><path fill="#fe6259" d="M 556.855469 179.851562 L 552.566406 179.851562 L 552.566406 5.21875 L 556.855469 5.21875 Z M 556.855469 179.851562 " fill-opacity="1" fill-rule="nonzero"/><path fill="#fe6259" d="M 566.867188 179.851562 L 562.578125 179.851562 L 562.578125 5.21875 L 566.867188 5.21875 Z M 566.867188 179.851562 " fill-opacity="1" fill-rule="nonzero"/><path fill="#fe6259" d="M 576.875 179.851562 L 572.585938 179.851562 L 572.585938 5.21875 L 576.875 5.21875 Z M 576.875 179.851562 " fill-opacity="1" fill-rule="nonzero"/><path fill="#fe6259" d="M 586.886719 179.851562 L 581.167969 179.851562 L 581.167969 5.21875 L 586.886719 5.21875 Z M 586.886719 179.851562 " fill-opacity="1" fill-rule="nonzero"/><path fill="#fe6259" d="M 595.464844 179.851562 L 591.175781 179.851562 L 591.175781 5.21875 L 595.464844 5.21875 Z M 595.464844 179.851562 " fill-opacity="1" fill-rule="nonzero"/><path fill="#fe6259" d="M 605.476562 179.851562 L 601.1875 179.851562 L 601.1875 5.21875 L 605.476562 5.21875 Z M 605.476562 179.851562 " fill-opacity="1" fill-rule="nonzero"/><path fill="#fe6259" d="M 615.484375 179.851562 L 611.195312 179.851562 L 611.195312 5.21875 L 615.484375 5.21875 Z M 615.484375 179.851562 " fill-opacity="1" fill-rule="nonzero"/><path fill="#fe6259" d="M 625.496094 179.851562 L 621.207031 179.851562 L 621.207031 5.21875 L 625.496094 5.21875 Z M 625.496094 179.851562 " fill-opacity="1" fill-rule="nonzero"/><path fill="#fe6259" d="M 635.503906 179.851562 L 629.785156 179.851562 L 629.785156 5.21875 L 635.503906 5.21875 Z M 635.503906 179.851562 " fill-opacity="1" fill-rule="nonzero"/><path fill="#fe6259" d="M 644.085938 179.851562 L 639.792969 179.851562 L 639.792969 5.21875 L 644.085938 5.21875 Z M 644.085938 179.851562 " fill-opacity="1" fill-rule="nonzero"/><path fill="#fe6259" d="M 654.09375 179.851562 L 649.804688 179.851562 L 649.804688 5.21875 L 654.09375 5.21875 Z M 654.09375 179.851562 " fill-opacity="1" fill-rule="nonzero"/><path fill="#fe6259" d="M 664.105469 179.851562 L 659.8125 179.851562 L 659.8125 5.21875 L 664.105469 5.21875 Z M 664.105469 179.851562 " fill-opacity="1" fill-rule="nonzero"/><path fill="#fe6259" d="M 674.113281 179.851562 L 669.824219 179.851562 L 669.824219 5.21875 L 674.113281 5.21875 Z M 674.113281 179.851562 " fill-opacity="1" fill-rule="nonzero"/><path fill="#fe6259" d="M 684.125 179.851562 L 678.402344 179.851562 L 678.402344 5.21875 L 684.125 5.21875 Z M 684.125 179.851562 " fill-opacity="1" fill-rule="nonzero"/><path fill="#fe6259" d="M 694.132812 179.851562 L 688.414062 179.851562 L 688.414062 5.21875 L 694.132812 5.21875 Z M 694.132812 179.851562 " fill-opacity="1" fill-rule="nonzero"/><path fill="#fe6259" d="M 702.714844 179.851562 L 698.421875 179.851562 L 698.421875 5.21875 L 702.714844 5.21875 Z M 702.714844 179.851562 " fill-opacity="1" fill-rule="nonzero"/><path fill="#fe6259" d="M 712.722656 179.851562 L 708.433594 179.851562 L 708.433594 5.21875 L 712.722656 5.21875 Z M 712.722656 179.851562 " fill-opacity="1" fill-rule="nonzero"/></g></g></g></svg>